<svg width="725" height="295" viewBox="0 0 725 295" fill="none" xmlns="http://www.w3.org/2000/svg">
<g clip-path="url(#clip0_212_6127)">
<path d="M484.456 180.387C484.249 175.897 482.712 171.306 480.76 167.199C477.516 160.385 473.136 153.96 471.655 146.562C470.789 142.235 470.469 136.96 471.599 132.652C473.72 124.55 469.917 115.494 463.874 109.779C462.161 108.159 460.165 106.802 458.778 104.893C457.586 103.254 456.908 101.301 456.25 99.3792C453.809 92.2448 451.361 85.1105 448.92 77.9762C453.344 81.041 458.835 74.5849 458.333 69.2279C457.831 63.8709 454.486 58.966 454.637 53.5902C454.762 49.0496 457.385 44.6158 456.425 40.1757C455.359 35.2583 450.244 32.0742 448.952 27.2133C447.992 23.5897 449.297 19.4761 447.609 16.1225C446.429 13.7737 444.032 12.3355 441.754 11.023C428.752 3.51813 412.913 -4.13116 399.497 2.58238C394.314 5.1761 389.972 9.78577 384.249 10.6524C381.613 11.0544 378.356 10.8722 376.951 13.1457C374.34 17.3534 382.096 21.8689 380.954 26.6858C369.226 19.652 356.356 14.3954 342.889 11.9964C335.905 10.7529 328.776 10.2819 321.692 10.5959C318.222 10.7466 314.764 11.0858 311.325 11.607C307.773 12.1471 302.697 13.6732 299.289 11.9587C296.321 10.464 293.61 8.52345 290.667 6.9848C289.387 6.3191 287.969 5.52779 286.507 5.30799C285.528 5.16354 284.744 5.54663 283.89 5.97369C281.418 7.21717 278.807 7.98335 276.693 9.86113C273.586 12.6307 272.206 16.7882 270.336 20.5061C267.876 25.3921 264.387 29.7568 260.164 33.2235C259.091 34.109 257.949 34.9568 257.183 36.1187C256.418 37.2805 256.116 38.8694 256.832 40.0626C258.068 42.1225 261.3 41.6452 263.182 40.1568C265.065 38.6684 266.389 36.4704 268.516 35.3588C270.75 34.1906 273.543 34.4167 275.707 33.123C277.929 31.7979 279.04 29.1539 281.104 27.5901C282.623 26.4346 284.543 25.951 286.4 25.4988C288.283 25.0404 290.165 24.5819 292.048 24.1235C293.836 23.6901 295.518 23.395 297.112 22.4341C303.017 25.5868 354.592 27.8728 326.461 34.6617C320.06 36.2066 313.346 40.8853 308.081 44.6786C303.55 47.9443 299.635 51.7313 295.769 55.6689C293.027 58.4636 289.965 61.0008 287.078 63.6511C281.274 68.983 275.475 74.3086 269.671 79.6405C263.126 85.6506 256.449 91.8366 252.358 99.7308C246.515 111.016 244.369 124.079 242.706 136.602C241.577 145.068 241.018 153.967 244.238 161.873C246.29 166.91 249.76 171.218 253.318 175.326C274.829 200.101 301.712 220.191 331.556 233.801C342.826 238.938 356.387 243.208 368.793 240.037C371.755 239.277 374.353 237.726 377.246 236.828C379.222 236.212 381.249 236.137 383.276 235.804C389.513 234.787 395.701 232.099 401.593 229.838C413.164 225.404 425.206 219.482 431.89 208.517C436.088 201.633 437.656 193.513 439.156 185.588C440.235 179.873 441.321 174.158 442.4 168.443C443.323 163.563 443.649 158.941 446.103 154.526C448.274 150.613 448.726 146.456 452.673 143.504C459.889 150.55 462.136 161.402 461.533 171.476C461.176 177.486 460.266 184.463 464.596 188.64C467.67 191.61 472.352 191.987 476.619 192.094C478.282 192.131 480.101 192.106 481.394 191.051C482.059 190.511 482.505 189.751 482.869 188.979C484.143 186.266 484.588 183.345 484.456 180.387Z" fill="#1B5EA5"/>
<path d="M280.436 174.755C280.223 180.036 271.732 183.566 268.764 188.835C264.817 195.844 258.404 199.028 252.763 204.039C248.445 207.876 243.187 210.414 238.23 213.29C231.39 217.265 224.437 222.936 223.495 230.799C222.554 238.662 231.923 246.946 238.317 242.279C241.988 239.604 242.948 234.115 246.87 231.829C249.155 230.498 252.003 230.535 254.401 229.418C260.795 226.434 261.077 217.259 265.903 212.109C269.85 207.902 276.401 207.06 281.98 208.53C287.552 209.999 292.397 213.397 297.103 216.725C308.856 225.053 321.821 235.547 322.053 249.96C322.235 261.654 313.851 271.407 308.053 281.562C306.785 283.779 305.599 286.222 305.844 288.765C306.56 296.182 318.156 296.792 323.502 291.61C328.849 286.429 330.694 278.579 335.319 272.751C337.665 269.799 340.79 267.231 341.782 263.588C342.573 260.687 341.845 257.559 342.485 254.62C343.639 249.319 348.917 245.909 354.131 244.446C359.352 242.983 364.9 242.863 370.02 241.08C375.379 239.215 379.972 235.415 383.054 230.674C384.986 227.697 389.561 219.507 385.432 216.863C382.928 215.262 379.445 214.433 376.684 213.328C373.158 211.915 369.631 210.502 366.104 209.088C349.18 202.306 332.256 195.523 315.338 188.741C304.081 184.231 292.83 179.716 281.572 175.207C281.195 175.056 280.819 174.905 280.436 174.755ZM331.836 170.428C331.265 169.957 332.664 169.894 332.834 169.73C332.476 170.051 332.106 171.301 331.836 170.428Z" fill="#1B5EA5"/>
<path d="M349.657 54.9655C298.847 53.2824 256.296 93.1428 254.614 143.994C252.932 194.844 292.76 237.43 343.57 239.114C394.38 240.797 436.932 200.936 438.614 150.085C440.295 99.2346 400.467 56.6486 349.657 54.9655ZM345.208 189.425C321.821 188.652 303.485 169.045 304.263 145.639C305.041 122.233 324.626 103.882 348.013 104.661C371.401 105.433 389.737 125.04 388.958 148.446C388.18 171.853 368.602 190.197 345.208 189.425Z" fill="#FC899F"/>
<path d="M268.366 195.592C274.848 192.207 281.28 188.514 285.999 182.975C287.681 181.009 289.124 178.824 291.007 177.053C295.795 172.55 302.678 171.3 309.098 169.906C309.625 169.793 310.158 169.674 310.685 169.548C306.356 162.64 303.965 154.406 304.253 145.639C304.517 137.67 306.964 130.29 310.993 124.048C307.818 124.236 304.611 125.222 301.863 126.799C295.801 130.278 291.421 136.012 287.041 141.463C282.661 146.914 277.86 152.416 271.416 155.122C268.943 156.159 266.295 156.755 263.867 157.898C260.754 159.368 258.156 161.717 256.211 164.549C258.37 175.734 262.549 186.216 268.366 195.592Z" fill="#FF6677"/>
<path d="M433.966 117.912C429.291 114.948 424.371 112.335 420.154 108.749C416.188 105.377 412.969 101.232 409.436 97.401C399.747 86.9005 387.605 78.6483 379.303 67.0237C377.314 64.2416 375.538 61.2522 373.159 58.8155C365.692 56.5672 357.817 55.242 349.653 54.972C336.902 54.5512 324.671 56.743 313.477 61.0701C314.757 62.5396 316.558 63.7266 318.365 64.3986C322.243 65.843 326.673 66.1884 329.905 68.7759C331.838 70.3271 333.13 72.5251 334.862 74.2962C337.661 77.1599 341.903 79.4773 342.041 83.4778C342.223 88.6464 335.534 91.1083 333.199 95.7242C331.48 99.1281 332.409 103.009 332.955 106.897C337.667 105.289 342.738 104.491 348.009 104.667C369.903 105.389 387.36 122.61 388.872 144.006C391.878 141.281 395.599 139.045 399.126 137.092C400.387 136.395 401.918 135.685 403.205 136.338C404.297 136.891 404.723 138.197 405.338 139.252C407.93 143.692 414.011 144.044 418.999 145.275C423.31 146.343 427.402 148.478 430.495 151.668C433.231 154.494 435.108 158.036 437.593 161.089C438.145 157.49 438.484 153.822 438.609 150.092C438.986 138.838 437.329 127.998 433.966 117.912Z" fill="#FF6677"/>
<path d="M347.89 206.525C352.088 201.438 357.993 198.129 363.195 194.072C367.155 190.982 372.978 185.694 373.16 180.092C365.536 186.234 355.759 189.776 345.211 189.424C337.467 189.167 330.276 186.843 324.151 183.006C321.434 186.02 319.087 189.361 316.828 192.74C312.411 199.334 308.238 206.199 305.79 213.754C304.247 218.514 303.437 223.601 303.72 228.581C313.992 234.007 325.432 237.543 337.599 238.73C338.02 237.198 338.302 235.609 338.553 234.064C340.115 224.386 341.647 214.124 347.872 206.557C347.872 206.544 347.884 206.531 347.89 206.525Z" fill="#FF6677"/>
<path d="M464.021 207.857L457.947 199.046L456.045 152.761C455.939 150.192 454.998 147.737 453.353 145.758C447.907 139.202 435.369 124.261 433.072 122.873L373.872 69.8747L365.589 62.6462C361.278 58.8906 356.428 55.8007 351.194 53.4959L327.769 43.1712C326.068 42.4239 324.261 41.9654 322.41 41.821L280.8 38.593L275.158 32.3567C273.087 30.8055 270.326 30.5229 267.979 31.622L256.772 36.8659C255.636 37.3935 255.442 38.9258 256.402 39.7297L261.736 44.1761L258.937 45.7273L251.513 45.9848C250.566 46.0162 249.813 46.7761 249.782 47.7244C249.75 48.679 250.466 49.4891 251.419 49.5771L259.841 50.3244L271.92 52.1519C273.376 52.3717 274.87 52.2273 276.256 51.7374L282.124 49.6524L315.783 55.9389C317.572 56.2718 319.266 56.9814 320.753 58.0176L351.646 77.6119L339.24 113.327L329.394 126.277L324.989 129.455C324.989 129.455 309.057 130.416 304.319 136.985C304.319 136.985 282.663 152.868 280.536 157.59C280.536 157.59 256.973 168.656 239.616 193.739L225.741 204.277L210.267 213.258C208.372 214.357 206.872 216.021 205.981 218.018C205.09 220.003 204.801 222.201 205.134 224.349L205.548 227.012C206.966 229.737 209.997 231.213 213.015 230.648L213.041 230.642L219.322 226.773C219.322 226.773 234.175 210.959 239.189 209.754C239.189 209.754 247.604 206.689 247.748 202.462C247.748 202.462 259.226 193.821 266.248 189.538C266.248 189.538 277.078 186.856 289.955 172.939L336.341 157.458L321.199 197.846C321.199 197.846 312.52 214.859 311.021 226.088C311.021 226.088 309.119 239.459 305.291 252.867L298.276 260.529C298.276 260.529 292.942 268.53 286.761 276.5L280.379 282.937C279.645 283.678 279.381 284.764 279.701 285.757C280.053 286.849 281.032 287.622 282.18 287.697L293.808 288.476C296.475 288.652 299.098 287.76 301.1 285.989L310.945 269.397L314.265 266.47C315.313 265.547 316.028 264.304 316.298 262.934L316.549 255.021C316.549 255.021 334.929 227.432 340.294 208.334L367.359 182.158C367.359 182.158 373.333 176.72 373.778 163.198L382.093 144.578L403.736 127.182C403.736 127.182 423.553 143.95 440.74 152.384L445.779 196.314L445.754 203.794L439.736 214.891C439.065 216.116 439.981 217.604 441.374 217.566C441.901 217.554 442.391 217.309 442.723 216.901L447.216 210.181L449.607 217.158L459.898 218.998L460.545 219.017C462.421 219.067 464.14 217.962 464.875 216.235C466.036 213.49 465.722 210.319 464.021 207.857Z" fill="#FAE7D0"/>
<g opacity="0.3">
<path d="M206.171 217.604C206.159 217.629 206.146 217.654 206.134 217.686C206.083 217.792 206.033 217.899 205.983 218.006C205.895 218.201 205.814 218.395 205.738 218.596C205.726 218.628 205.713 218.659 205.701 218.69C205.632 218.879 205.563 219.074 205.506 219.268C205.494 219.3 205.487 219.337 205.475 219.369C205.412 219.57 205.362 219.771 205.312 219.972C205.305 219.984 205.305 219.997 205.305 220.016C205.255 220.229 205.211 220.443 205.173 220.662C205.173 220.669 205.173 220.669 205.173 220.675C205.136 220.895 205.104 221.108 205.079 221.328C205.079 221.347 205.073 221.366 205.073 221.385C205.048 221.605 205.029 221.818 205.023 222.038C205.023 222.05 205.023 222.057 205.023 222.069C204.998 222.528 205.004 222.986 205.042 223.438C206.297 222.697 207.426 221.447 208.374 220.305C213.043 214.696 218.765 209.967 225.154 206.444C230.481 203.499 236.323 201.345 240.979 197.419C244.199 194.706 246.702 191.265 249.294 187.943C257.552 177.354 267.599 167.293 280.488 163.538C281.517 163.236 282.571 162.973 283.5 162.445C284.736 161.742 285.671 160.617 286.581 159.512C290.597 154.632 294.613 149.746 298.635 144.867C301.93 140.86 306.103 136.464 311.267 136.929C314.173 137.192 317.304 138.976 319.789 137.437C320.831 136.79 321.471 135.685 322.186 134.693C323.855 132.369 326.121 130.498 328.693 129.254C329.992 128.626 331.473 128.463 332.747 127.885C333.77 127.42 334.579 126.654 335.696 126.215C338.175 125.241 340.786 124.594 343.44 124.305C344.08 124.236 344.795 124.148 345.203 123.646C345.592 123.162 345.548 122.446 345.297 121.881C345.046 121.316 344.62 120.851 344.262 120.343C342.681 118.094 342.543 115.08 343.252 112.429C343.773 110.483 344.94 108.988 345.097 107.035C345.341 104.089 344.626 100.629 345.574 97.8091C346.709 94.443 349.596 92.0125 350.054 88.326C350.173 87.3714 350.129 86.398 350.343 85.4623C350.738 83.7603 352.043 82.2908 353.694 81.713C354.472 81.4367 355.338 81.3362 355.984 80.8338C356.63 80.3313 356.875 79.1758 356.178 78.7362C353.844 77.2666 351.604 74.654 349.414 72.7449C346.86 70.5217 344.3 68.2985 341.746 66.0753C337.516 62.3951 332.879 59.6758 328.072 56.7492C325.989 55.4806 323.792 54.0926 322.738 51.8946C322.142 50.6448 321.559 48.9115 320.178 48.9806C320.084 50.8081 317.812 51.5617 315.992 51.7627C308.682 52.5666 301.227 52.0202 294.111 50.1612C289.687 49.0057 285.42 47.5298 280.845 47.0525C276.754 46.6255 272.418 47.8501 268.207 47.781C264.819 47.7308 261.43 47.6806 258.042 47.6303C257.558 47.624 257.075 47.6178 256.598 47.7057C256.096 47.7999 255.619 48.0071 255.124 48.1516C253.367 48.654 251.384 48.2772 249.922 47.1844C249.865 47.354 249.827 47.5298 249.821 47.7182C249.79 48.6728 250.505 49.483 251.459 49.5709L259.88 50.3183L271.96 52.1458C273.416 52.3656 274.909 52.2212 276.296 51.7313L277.174 51.4173C277.3 51.3482 277.432 51.2791 277.564 51.2163C278.969 50.5129 280.663 50.1801 282.163 49.6463L315.823 55.9327C316.049 55.9767 316.269 56.0207 316.488 56.0772C316.865 56.1714 317.235 56.2782 317.599 56.4038C317.938 56.5168 318.27 56.6487 318.597 56.7931C319.362 57.126 320.103 57.5342 320.793 58.0178L351.685 77.612L343.139 102.218L339.28 113.328L329.434 126.277L325.713 128.959L325.022 129.455C325.022 129.455 322.594 129.6 319.343 130.171C319.193 130.196 319.036 130.228 318.879 130.253C318.641 130.297 318.39 130.341 318.145 130.391C317.869 130.447 317.593 130.504 317.317 130.56C316.614 130.711 315.892 130.881 315.164 131.069C314.725 131.182 314.286 131.308 313.853 131.433C313.558 131.521 313.269 131.609 312.974 131.703C312.83 131.754 312.685 131.798 312.541 131.848C309.203 132.978 306.059 134.611 304.352 136.972C304.352 136.972 301.597 138.995 297.958 141.808C297.901 141.852 297.845 141.896 297.788 141.934C297.525 142.141 297.249 142.348 296.979 142.562C296.922 142.606 296.866 142.65 296.809 142.694C295.529 143.692 294.168 144.766 292.8 145.872C292.749 145.909 292.699 145.953 292.655 145.991C292.348 146.242 292.04 146.493 291.727 146.744C291.683 146.782 291.639 146.82 291.588 146.858C291.275 147.115 290.967 147.366 290.653 147.624C288.52 149.388 286.455 151.166 284.749 152.767C283.581 153.86 282.584 154.871 281.837 155.75C281.711 155.901 281.592 156.045 281.479 156.184C281.423 156.259 281.366 156.328 281.31 156.403C281.046 156.749 280.833 157.069 280.676 157.352C280.632 157.433 280.594 157.509 280.563 157.584C280.563 157.584 271.113 162.024 259.78 171.645C259.102 172.217 258.424 172.807 257.734 173.423C257.703 173.448 257.678 173.473 257.646 173.498C257.094 173.988 256.542 174.49 255.983 175.005C255.688 175.275 255.393 175.552 255.099 175.828C252.501 178.277 249.852 180.99 247.248 183.974C246.96 184.306 246.671 184.639 246.382 184.978C244.079 187.679 241.808 190.599 239.643 193.733L233.424 198.456L225.768 204.271L210.294 213.252C209.936 213.459 209.597 213.685 209.271 213.93C208.725 214.338 208.229 214.797 207.778 215.299C207.596 215.5 207.426 215.707 207.257 215.921C206.968 216.291 206.711 216.687 206.479 217.095C206.353 217.259 206.259 217.428 206.171 217.604Z" fill="#F77F00"/>
</g>
<path d="M455.918 230.152C455.04 230.453 454.08 229.988 453.772 229.109L448.25 213.113L453.094 211.437L457.01 228.173C457.205 229.015 456.734 229.869 455.918 230.152Z" fill="#FAE7D0"/>
<path d="M462.059 231.74C461.18 232.042 460.22 231.577 459.913 230.698L454.391 214.702L459.235 213.025L463.151 229.762C463.345 230.604 462.875 231.458 462.059 231.74Z" fill="#FAE7D0"/>
<path d="M467.826 227.815C467.011 228.267 465.982 227.972 465.53 227.156L457.328 212.353L461.815 209.866L468.561 225.673C468.9 226.471 468.579 227.394 467.826 227.815Z" fill="#FAE7D0"/>
<path d="M471.087 222.923C470.341 223.475 469.28 223.318 468.728 222.571L458.656 208.974L462.773 205.916L471.533 220.7C471.972 221.453 471.778 222.408 471.087 222.923Z" fill="#FAE7D0"/>
<g opacity="0.3">
<path d="M443.1 216.31C443.74 215.349 444.386 214.388 445.026 213.421C445.377 212.893 445.735 212.366 446.087 211.838C446.087 211.838 446.087 211.838 446.087 211.832L446.777 210.802C446.821 210.708 446.846 210.607 446.909 210.519C446.921 210.494 447.084 210.318 447.078 210.318C447.078 210.325 447.084 210.337 447.084 210.344L447.191 210.187L449.582 217.164L449.651 217.176L453.774 229.109C454.025 229.844 454.734 230.277 455.468 230.233C455.48 230.107 455.493 229.982 455.493 229.856C455.487 228.412 454.916 227.036 454.614 225.623C454.025 222.841 454.476 219.864 453.504 217.189C453.485 217.133 453.46 217.07 453.435 217.013C453.102 216.153 452.6 215.424 452.142 214.633C451.979 214.357 451.935 214.036 451.766 213.754C450.598 211.813 449.77 209.716 448.998 207.593C448.584 206.456 448.164 205.263 448.314 204.063C448.49 202.701 449.381 201.507 449.506 200.138C449.632 198.757 448.961 197.444 448.396 196.175C447.254 193.601 446.513 190.894 446.036 188.124C445.446 184.72 445.264 181.216 445.227 177.762C445.158 171.488 445.547 165.189 444.769 158.959C444.336 155.511 443.545 152.057 443.84 148.59C443.896 147.95 443.802 147.071 443.169 147.008C443.012 146.989 442.861 147.039 442.71 147.083C440.991 147.592 439.654 148.314 437.948 147.535C436.423 146.838 435.061 145.808 433.762 144.759C428.93 140.878 424.098 136.997 419.267 133.116C416.537 130.924 413.675 129.844 410.707 128.117C407.821 126.434 405.323 124.085 403.491 121.29C403.321 121.033 403.139 120.75 402.851 120.637C402.135 120.355 401.527 121.215 401.244 121.925C400.278 124.336 399.908 126.088 397.849 127.646C395.534 129.398 393.344 131.395 391.16 133.298C389.642 134.623 388.682 136.47 387.05 137.776C383.661 140.489 378.974 141.67 374.751 140.508C373.728 140.225 372.736 139.829 371.707 139.566C371.337 139.472 370.873 139.421 370.628 139.723C370.27 140.169 370.779 140.772 371.211 141.142C373.213 142.844 374.506 145.331 374.839 147.931C374.964 148.904 375.29 150.418 375.146 151.385C374.945 152.704 373.546 153.495 372.793 154.5C371.626 156.058 371.582 158.149 371.519 160.096C371.393 163.845 370.628 168.028 369.335 171.563C368.08 175.011 364.71 177.586 361.058 177.894C360.456 177.944 359.778 177.969 359.364 178.402C358.994 178.792 358.95 179.382 358.931 179.922C358.768 184.325 358.385 186.868 355.806 190.473C353.403 192.916 350.24 194.31 347.416 196.175C344.624 198.022 343.143 200.521 341.474 203.366C340.451 205.118 338.662 206.839 336.679 206.425C334.904 206.054 333.366 204.045 331.684 204.729C334.954 211.317 331.553 219.117 328.189 225.655C324.543 232.733 320.897 239.817 317.252 246.894C316.392 248.565 315.413 250.348 313.706 251.121C312.175 251.812 309.784 252.182 309.966 253.853C310.035 254.493 310.531 254.983 310.895 255.511C312.376 257.659 311.755 260.585 310.882 263.053C307.331 273.152 300.604 282.108 291.906 288.344L292.371 288.375L293.814 288.469C294.128 288.488 294.441 288.494 294.755 288.488C294.856 288.488 294.956 288.476 295.063 288.469C295.27 288.457 295.483 288.444 295.69 288.419C295.809 288.407 295.929 288.381 296.042 288.363C296.23 288.331 296.418 288.3 296.606 288.262C296.726 288.237 296.851 288.206 296.97 288.174C297.152 288.13 297.334 288.074 297.51 288.017C297.629 287.979 297.748 287.942 297.861 287.898C298.043 287.835 298.219 287.76 298.395 287.684C298.501 287.64 298.614 287.59 298.721 287.54C298.909 287.452 299.098 287.351 299.28 287.251C299.367 287.201 299.462 287.157 299.543 287.107C299.813 286.95 300.07 286.78 300.327 286.598C300.597 286.403 300.855 286.196 301.106 285.976L310.951 269.384L314.271 266.457C314.534 266.225 314.773 265.974 314.992 265.71C315.099 265.578 315.206 265.44 315.306 265.295C315.601 264.868 315.84 264.41 316.022 263.92C316.141 263.593 316.241 263.261 316.304 262.921L316.555 255.008C316.555 255.008 316.568 254.983 316.599 254.946C316.605 254.939 316.611 254.927 316.618 254.914C316.63 254.902 316.643 254.883 316.655 254.864C316.674 254.833 316.699 254.801 316.724 254.763C316.737 254.751 316.743 254.732 316.756 254.72C316.831 254.606 316.925 254.456 317.044 254.28C317.063 254.255 317.082 254.223 317.101 254.198C317.139 254.135 317.183 254.073 317.226 254.004C317.252 253.96 317.283 253.922 317.308 253.878C317.364 253.79 317.427 253.696 317.49 253.602C317.503 253.583 317.515 253.564 317.528 253.545C317.609 253.413 317.703 253.275 317.797 253.131C317.954 252.886 318.124 252.628 318.3 252.339C319.021 251.203 319.944 249.746 320.998 248.031C321.211 247.679 321.437 247.315 321.663 246.945C321.845 246.643 322.033 246.335 322.228 246.015C322.234 246.009 322.24 245.996 322.247 245.99C322.529 245.519 322.824 245.035 323.119 244.533C323.42 244.031 323.721 243.516 324.035 242.988C324.292 242.555 324.55 242.109 324.813 241.657C325.026 241.286 325.246 240.916 325.459 240.539C325.779 239.98 326.106 239.408 326.438 238.824C326.765 238.247 327.097 237.656 327.43 237.06C327.932 236.162 328.434 235.245 328.936 234.315C329.105 234.007 329.275 233.693 329.438 233.379C329.683 232.921 329.927 232.462 330.172 231.998C330.222 231.91 330.266 231.822 330.316 231.728C330.555 231.276 330.793 230.817 331.032 230.359C331.069 230.283 331.113 230.208 331.151 230.126C331.377 229.693 331.603 229.253 331.822 228.814C331.848 228.763 331.873 228.713 331.898 228.663C332.13 228.198 332.368 227.733 332.601 227.269C332.651 227.168 332.701 227.068 332.751 226.974C332.983 226.503 333.216 226.032 333.441 225.567C333.467 225.517 333.492 225.466 333.517 225.416C333.73 224.97 333.943 224.531 334.157 224.085C334.194 224.003 334.232 223.921 334.27 223.846C334.489 223.381 334.709 222.917 334.922 222.446C334.966 222.345 335.01 222.251 335.054 222.15C335.493 221.19 335.92 220.235 336.328 219.28C336.372 219.186 336.41 219.092 336.453 218.991C336.654 218.527 336.849 218.062 337.037 217.604C337.068 217.528 337.1 217.447 337.131 217.371C337.313 216.932 337.489 216.492 337.665 216.059C337.683 216.008 337.709 215.952 337.727 215.902C337.909 215.437 338.085 214.978 338.261 214.526C338.298 214.432 338.336 214.332 338.367 214.237C338.537 213.779 338.706 213.327 338.869 212.875C338.888 212.824 338.907 212.774 338.92 212.724C339.07 212.303 339.215 211.876 339.353 211.461C339.378 211.386 339.403 211.304 339.428 211.229C339.572 210.79 339.71 210.356 339.848 209.923C339.873 209.835 339.905 209.747 339.93 209.659C340.068 209.213 340.2 208.774 340.319 208.334L360.356 188.96L367.384 182.164C367.384 182.164 367.967 181.631 368.783 180.488C368.865 180.374 368.946 180.255 369.034 180.123C369.203 179.872 369.385 179.589 369.567 179.288C369.662 179.137 369.756 178.98 369.85 178.811C369.95 178.635 370.051 178.453 370.151 178.271C370.245 178.095 370.346 177.906 370.44 177.718C370.465 177.661 370.496 177.605 370.521 177.548C370.597 177.391 370.672 177.241 370.753 177.077C370.779 177.021 370.81 176.958 370.835 176.895C370.91 176.732 370.986 176.562 371.061 176.387C371.086 176.324 371.111 176.267 371.136 176.204C371.211 176.022 371.293 175.834 371.368 175.645C371.393 175.589 371.412 175.532 371.437 175.476C371.519 175.269 371.601 175.061 371.676 174.848C371.695 174.798 371.714 174.741 371.732 174.691C371.814 174.465 371.895 174.226 371.977 173.988C371.99 173.944 372.008 173.9 372.021 173.862C372.109 173.604 372.19 173.334 372.272 173.058C372.278 173.033 372.291 173.002 372.297 172.976C372.385 172.675 372.473 172.361 372.561 172.041C372.592 171.921 372.623 171.802 372.655 171.676C372.73 171.381 372.799 171.08 372.868 170.766C372.868 170.759 372.868 170.753 372.874 170.753C372.943 170.452 373.006 170.138 373.069 169.824C373.075 169.805 373.075 169.78 373.081 169.761C373.138 169.459 373.194 169.152 373.251 168.838C373.257 168.794 373.263 168.75 373.27 168.7C373.32 168.404 373.364 168.109 373.408 167.808C373.42 167.72 373.433 167.626 373.445 167.538C373.483 167.274 373.514 167.004 373.546 166.728C373.558 166.589 373.571 166.445 373.59 166.307C373.615 166.074 373.64 165.842 373.659 165.597C373.678 165.377 373.69 165.151 373.709 164.931C373.722 164.762 373.734 164.599 373.747 164.423C373.772 164.021 373.791 163.613 373.803 163.198L382.118 144.577L403.761 127.181C403.761 127.181 403.792 127.206 403.836 127.244C403.867 127.269 403.911 127.307 403.961 127.351C403.974 127.363 403.98 127.37 403.999 127.382C404.062 127.439 404.143 127.501 404.231 127.577C404.256 127.596 404.288 127.621 404.313 127.646C404.394 127.709 404.482 127.784 404.576 127.866C404.608 127.891 404.639 127.922 404.677 127.947C404.802 128.048 404.94 128.167 405.091 128.286C405.129 128.318 405.166 128.349 405.204 128.381C405.329 128.481 405.461 128.594 405.599 128.707C405.649 128.751 405.706 128.795 405.756 128.839C405.938 128.984 406.126 129.141 406.327 129.304C406.371 129.342 406.421 129.379 406.465 129.417C406.641 129.555 406.823 129.706 407.011 129.857C407.074 129.907 407.13 129.957 407.193 130.007C407.432 130.196 407.676 130.39 407.934 130.598C407.971 130.629 408.009 130.66 408.047 130.692C408.279 130.874 408.511 131.062 408.756 131.257C408.825 131.314 408.9 131.37 408.969 131.427C409.258 131.653 409.553 131.885 409.86 132.13C410.205 132.4 410.557 132.67 410.921 132.953C411.247 133.204 411.592 133.468 411.937 133.731C412.038 133.807 412.138 133.882 412.232 133.957C412.496 134.158 412.759 134.359 413.029 134.567C413.142 134.648 413.249 134.736 413.362 134.818C414.096 135.377 414.868 135.948 415.658 136.539C415.778 136.627 415.897 136.715 416.01 136.802C416.311 137.022 416.612 137.242 416.913 137.468C417.033 137.556 417.158 137.644 417.277 137.738C418.037 138.291 418.815 138.85 419.612 139.421C419.856 139.597 420.107 139.773 420.352 139.949C420.553 140.093 420.76 140.231 420.961 140.376C421.626 140.841 422.297 141.312 422.988 141.783C423.571 142.178 424.161 142.58 424.751 142.976C424.933 143.101 425.121 143.221 425.309 143.346C425.73 143.623 426.15 143.905 426.571 144.182C426.784 144.32 426.998 144.464 427.217 144.602C427.638 144.879 428.064 145.149 428.491 145.419C428.686 145.544 428.886 145.67 429.081 145.796C429.696 146.185 430.311 146.568 430.926 146.945C431.296 147.171 431.666 147.397 432.043 147.623C432.601 147.962 433.16 148.289 433.718 148.615C433.844 148.685 433.963 148.76 434.088 148.829C434.76 149.218 435.425 149.595 436.096 149.966C436.266 150.06 436.435 150.154 436.605 150.242C437.126 150.531 437.646 150.807 438.161 151.084C438.356 151.184 438.544 151.285 438.738 151.385C439.41 151.737 440.075 152.076 440.74 152.402C441.117 152.585 441.179 156.215 441.223 156.629C441.437 158.463 441.644 160.303 441.857 162.137L445.779 196.339L445.754 203.818L439.736 214.916C439.485 215.374 439.46 215.87 439.592 216.31C439.705 216.674 439.931 217.001 440.238 217.233C440.364 217.327 440.495 217.403 440.646 217.459C440.866 217.547 441.11 217.591 441.374 217.585C441.506 217.578 441.631 217.566 441.757 217.534C442.133 217.44 442.472 217.227 442.717 216.925C442.836 216.705 442.968 216.511 443.1 216.31Z" fill="#F77F00"/>
</g>
<path opacity="0.3" d="M402.014 90.2982C403.413 85.6571 402.371 86.1407 400.665 81.6818C400.1 80.2122 399.522 78.7049 398.493 77.5117C397.69 76.576 396.648 75.8789 395.557 75.3074C387.775 71.2629 381.5 75.2948 375.3 80.5702C370.13 84.9726 365.75 91.033 362.681 97.847C361.319 100.862 363.12 102.507 365.461 104.969C365.838 105.371 365.806 108.787 367.469 109.999C369.251 111.299 371.391 110.445 372 110.916C377.277 114.992 382.9 110.495 386.533 108.26C395.494 102.746 399.014 100.265 402.014 90.2982Z" fill="#F77F00"/>
<path d="M401.53 95.6992C401.53 95.6992 373.944 107.939 362.756 125.317C362.48 125.75 362.335 126.441 362.298 127.289C362.078 132.621 366.1 137.18 371.397 137.783L388.17 139.679C388.17 139.686 371.02 118.942 401.53 95.6992Z" fill="white"/>
<path d="M374.679 72.8203C374.679 72.8203 372.414 98.7827 359.675 123.181C359.405 123.696 358.577 124.092 357.435 124.381C350.909 126.039 344.37 121.674 343.222 115.03L341.703 106.218C341.709 106.218 355.565 119.84 374.679 72.8203Z" fill="white"/>
<path d="M324.989 129.442C324.989 129.442 341.43 154.613 373.766 163.205C373.766 163.205 374.632 166.213 373.571 166.188C363.299 165.93 337.878 159.876 331.728 169.711L331.547 169.623C328.283 168.059 325.61 165.497 323.903 162.3C323.903 162.3 329.802 157.465 321.77 129.782C321.525 128.94 325.096 130.359 324.989 129.442Z" fill="white"/>
<path d="M355.398 124.707C355.398 124.707 362.791 125.386 362.577 130.058L363.355 124.425C363.355 124.425 359.496 126.635 359.672 123.188L355.398 124.707Z" fill="white"/>
<path d="M353.407 105.879C352.077 106.733 350.84 107.292 349.711 107.625L353.219 124.644C354.524 124.807 355.873 124.745 357.229 124.431L353.407 105.879Z" fill="#3F85D7"/>
<path d="M346.002 108.008C343.241 107.731 341.703 106.218 341.703 106.218L342.343 109.929L343.868 117.334C344.891 119.94 346.799 122.031 349.158 123.319L346.002 108.008Z" fill="#3F85D7"/>
<path d="M366.001 90.9258C364.96 92.7219 363.937 94.3359 362.945 95.7929L365.769 109.515C366.71 107.028 367.558 104.579 368.317 102.199L366.001 90.9258Z" fill="#3F85D7"/>
<path d="M363.258 115.67L359.982 99.7559C358.827 101.156 357.723 102.331 356.656 103.317L360.44 121.674C361.444 119.677 362.385 117.667 363.258 115.67Z" fill="#3F85D7"/>
<path d="M364.531 122.785C363.904 123.62 363.308 124.462 362.756 125.322C362.479 125.756 362.335 126.447 362.297 127.294C362.141 131.144 364.193 134.592 367.336 136.432L364.531 122.785Z" fill="#3F85D7"/>
<path d="M374.109 112.868L379.431 138.693L383.585 139.164L377.592 110.067C376.419 110.965 375.251 111.901 374.109 112.868Z" fill="#3F85D7"/>
<path d="M387.454 139.604L388.17 139.685C388.17 139.685 387.755 139.189 387.172 138.26L387.454 139.604Z" fill="#F77F00"/>
<path d="M367.562 119.137L371.403 137.783L375.557 138.254L370.92 115.727C369.753 116.832 368.629 117.969 367.562 119.137Z" fill="#3F85D7"/>
<path d="M382.858 106.268C382.199 106.714 381.54 107.172 380.875 107.643L383.661 121.165C384.038 118.715 384.797 116.09 386.102 113.327L384.577 105.91L382.858 106.268Z" fill="#3F85D7"/>
<path d="M341.284 163.808L341.999 163.934C341.999 163.934 341.598 163.08 341.039 161.484L341.284 163.808Z" fill="#F77F00"/>
<path d="M330.539 136.376L332.892 158.79L336.325 157.452L334.386 162.621L337.417 163.142L335.101 141.092C333.357 139.409 331.832 137.814 330.539 136.376Z" fill="#3F85D7"/>
<path d="M326.187 131.119C325.39 130.052 324.989 129.442 324.989 129.442C325.077 130.202 322.654 129.367 321.945 129.524L322.09 130.925C327.06 148.503 326.263 156.535 325.146 159.97L325.259 161.044L326.545 161.264L329.243 160.209L326.187 131.119Z" fill="#3F85D7"/>
<path d="M353.117 154.651C352.357 154.211 351.611 153.772 350.883 153.319C350.826 153.458 350.776 153.596 350.72 153.74C350.431 154.494 350.274 155.706 350.218 157.175C350.123 159.637 350.331 161.999 350.789 164.153C351.899 164.19 353.016 164.247 354.133 164.329L353.117 154.651Z" fill="#3F85D7"/>
<path d="M369.612 161.98C368.169 161.515 366.757 161.019 365.383 160.491L365.91 165.509C367.372 165.679 368.753 165.829 370.026 165.949L369.612 161.98Z" fill="#3F85D7"/>
<path d="M361.427 158.864C359.952 158.218 358.527 157.539 357.141 156.836L357.963 164.642C359.362 164.774 360.736 164.925 362.079 165.076L361.427 158.864Z" fill="#3F85D7"/>
<path opacity="0.2" d="M372.272 78.4724C368.808 86.2725 365.539 92.0879 362.52 96.4024C362.514 96.6411 362.508 96.8734 362.508 97.1121C362.527 100.422 362.947 101.772 365.288 104.234C365.57 104.529 365.62 106.52 366.329 108.008C371.098 94.9831 373.257 83.2014 374.136 77.1348C373.489 77.5618 372.868 78.0077 372.272 78.4724Z" fill="#1B5EA5"/>
<path opacity="0.2" d="M401.382 95.7676C399.87 96.4521 386.516 102.632 375.039 112.09C378.685 113.572 381.571 112.341 384.722 111.223C385.851 110.828 386.912 110.419 387.909 110.005C390.683 105.508 394.969 100.723 401.357 95.8304C401.37 95.8053 401.376 95.7864 401.382 95.7676Z" fill="#6B1918"/>
<path d="M403.084 92.8222C404.484 88.1811 403.417 83.9671 401.716 79.5081C401.152 78.0386 400.574 76.5313 399.545 75.3381C398.742 74.4023 397.7 73.7052 396.608 73.1337C388.827 69.0893 378.856 72.4366 372.65 77.7183C367.479 82.1207 363.695 88.6772 363.727 95.6796C363.746 98.9893 363.997 100.515 366.507 102.801C368.734 104.836 367.398 107.022 368.515 107.832C369.374 108.454 370.956 107.135 373.045 108.755C378.323 112.837 381.918 111.217 385.941 109.798C395.391 106.463 400.085 102.789 403.084 92.8222Z" fill="#FAE7D0"/>
<path d="M379.802 113.213L361.281 96.3516L360.601 97.0995L379.122 113.961L379.802 113.213Z" fill="white"/>
<path d="M360.617 97.0996C360.617 97.0996 365.487 107.845 368.041 103.895L360.617 97.0996Z" fill="#003049"/>
<path d="M371.716 107.16C368.446 110.708 379.133 113.955 379.133 113.955L371.716 107.16Z" fill="#003049"/>
<path d="M360.617 97.0994L364.872 88.9414L365.568 90.0656L361.929 98.2989L360.617 97.0994Z" fill="white"/>
<path d="M379.14 113.962L390.347 106.507L389.192 105.785L377.828 112.756L379.14 113.962Z" fill="white"/>
<path d="M371.003 99.0647C358.716 90.8754 362.036 79.9792 372.547 72.5058C375.728 59.4366 362.456 50.1357 359.727 38.6115C367.64 37.2801 373.507 51.6052 379.619 40.8535C381.539 39.453 382.775 34.4289 385.329 35.2265C393.845 46.3989 395.256 35.553 401.826 31.3076C406.859 36.5076 414.358 36.5579 421.443 35.8168C417.088 47.454 425.427 50.4434 435.11 51.9004C436.892 56.8806 435.624 64.6806 442.709 67.0483C460.7 71.4318 424.492 74.7038 439.333 96.2763C453.082 115.067 416.347 90.0401 405.598 96.8918C390.713 107.838 387.915 112.712 371.003 99.0647Z" fill="#002855"/>
<path d="M356.808 156.504L339.087 177.423C335.416 181.757 331.387 185.782 327.051 189.45L301.982 210.671C298.738 213.415 293.987 213.415 290.743 210.664C287.442 207.863 286.702 203.053 289.011 199.385L306.299 171.934C308.878 167.84 311.746 163.927 314.871 160.234L334.255 137.356C339.539 131.126 348.863 130.353 355.095 135.641C361.32 140.929 362.085 150.268 356.808 156.504Z" fill="#FC899F"/>
<path d="M355.091 135.648C351.445 132.558 346.739 131.54 342.403 132.476C344.75 132.96 347.015 134.021 348.973 135.685C355.198 140.973 355.97 150.306 350.686 156.542L332.965 177.461C329.294 181.795 325.265 185.82 320.929 189.488L295.86 210.715C295.095 211.362 294.241 211.858 293.344 212.203C296.211 213.265 299.525 212.756 301.972 210.684L327.041 189.463C331.377 185.795 335.4 181.77 339.077 177.436L356.798 156.517C362.088 150.268 361.322 140.929 355.091 135.648Z" fill="#FF6677"/>
<path d="M294.176 191.195L289.011 199.391C286.702 203.059 287.442 207.863 290.743 210.67C293.981 213.421 298.738 213.421 301.982 210.676L309.261 204.516C302.101 203.159 296.359 197.959 294.176 191.195Z" fill="white"/>
<path d="M290.743 210.665C293.799 213.258 298.204 213.409 301.417 211.111C295.035 210.213 290.097 205.025 289.488 198.632L289.011 199.392C286.702 203.059 287.442 207.864 290.743 210.665Z" fill="#023E7D"/>
<path d="M340.729 175.482C340.635 175.281 340.522 175.105 340.371 174.942C338.621 173.064 333.563 174.955 329.076 179.15C324.59 183.351 322.381 188.275 324.131 190.146C324.458 190.498 324.897 190.712 325.43 190.812L327.049 189.443C331.385 185.775 335.408 181.75 339.085 177.416L340.729 175.482Z" fill="white"/>
<path d="M338.386 178.139C338.323 178.007 338.242 177.881 338.148 177.775C336.962 176.512 333.554 177.781 330.523 180.613C327.499 183.446 326.005 186.774 327.185 188.036C327.405 188.275 327.706 188.419 328.063 188.482L329.155 187.559C332.08 185.085 334.797 182.365 337.275 179.439L338.386 178.139Z" fill="#023E7D"/>
<path d="M306.292 171.935L304.359 175.006C306.731 175.018 310.365 173.178 313.684 170.069C318.171 165.868 320.38 160.944 318.629 159.073C318.14 158.551 317.393 158.319 316.47 158.35L314.877 160.235C311.739 163.934 308.877 167.84 306.292 171.935Z" fill="white"/>
<path d="M307.596 169.975L306.203 172.186C307.91 172.192 310.52 170.873 312.905 168.637C316.13 165.617 317.718 162.075 316.457 160.731C316.105 160.354 315.566 160.191 314.9 160.209L313.752 161.566C311.512 164.223 309.447 167.03 307.596 169.975Z" fill="#023E7D"/>
<g opacity="0.5">
<path d="M393.612 87.8486C398.036 85.3868 402.974 84.1747 407.794 82.7491C410.373 81.9892 412.939 81.1602 415.399 80.0612C417.476 79.1317 420.037 78.0075 421.718 76.4375C423.319 74.9491 424.868 73.1341 426.305 71.4761C429.205 68.1351 431.244 64.0404 432.16 59.707C429.286 65.3278 425.91 70.8795 420.934 74.7607C418.618 76.5631 416.014 77.9573 413.429 79.3389C410.436 80.9341 407.204 81.694 403.966 82.6361C400.54 83.6346 397.114 84.7022 393.932 86.3477C390.43 88.1564 386.603 89.8834 384.438 93.4003C382.11 97.1747 382.329 102.343 382.844 106.582C383.258 106.733 383.666 106.859 384.061 106.966C383.603 103.706 383.622 100.403 384.758 97.2815C386.289 93.0737 389.79 89.9776 393.612 87.8486Z" fill="#023E7D"/>
<path d="M366.992 92.2441C367.124 90.7243 367.475 89.2045 367.688 88.2625C368.542 84.4881 370.362 81.461 372.483 78.2958C375.752 73.4098 377.973 66.9977 378.187 61.1069C378.275 58.645 377.904 56.1706 377.114 53.8407C376.743 52.7542 376.317 51.404 375.614 50.4745C375.118 49.8088 373.97 49.2875 373.662 48.5088C374.158 49.7648 373.982 51.1716 374.139 52.5156C374.29 53.8093 374.61 55.0465 374.867 56.3276C375.124 57.6088 375.382 58.8837 375.639 60.1648C375.921 61.5905 376.21 63.0223 376.248 64.4731C376.354 68.8127 374.164 73.5228 371.861 77.1088C370.016 79.9852 367.701 82.5789 366.345 85.7567C365.649 87.3895 365.291 89.1543 365.392 90.9316C365.461 92.2253 365.731 93.4813 366.088 94.7185C366.64 95.3905 367.268 96.0562 367.983 96.7094C366.979 95.805 366.841 94.0151 366.992 92.2441Z" fill="#023E7D"/>
<path d="M417.491 89.588C420.409 88.803 423.202 87.5846 425.781 86.0083C427.086 85.2107 427.858 84.7774 428.58 83.4271C429.376 81.9387 430.173 80.4503 430.97 78.9619C432.884 75.3822 434.842 71.6455 435.005 67.5947C434.673 68.9073 434.089 70.1382 433.493 71.3566C431.554 75.3131 429.446 79.2508 426.502 82.5353C424.507 84.7711 422.097 86.6928 419.355 87.93C416.625 89.1609 413.601 89.2677 410.639 89.4875C406.893 89.7576 403.178 89.9648 399.538 90.9885C399.074 91.1204 398.609 91.2585 398.158 91.4344C395.271 92.5585 392.604 94.9262 390.734 97.3503C389.385 99.0962 388.337 101.093 387.684 103.197C387.289 104.466 386.919 105.967 386.994 107.386C387.383 107.392 387.779 107.386 388.155 107.317C388.337 105.866 388.5 104.541 389.065 103.153C389.843 101.244 390.722 99.3851 391.707 97.5764C392.548 96.0315 394.393 95.0895 395.842 94.116C397.756 92.8286 399.871 91.9808 402.124 91.5097C404.772 90.9571 407.476 90.8754 410.168 90.6933C412.647 90.5112 415.101 90.2349 417.491 89.588Z" fill="#023E7D"/>
<path d="M380.074 95.5729C381.592 91.4656 384.165 87.7414 387.541 84.9468C389.556 83.2762 391.871 82.0516 394.105 80.7076C396.49 79.2757 398.749 77.6492 400.932 75.9284C403.078 74.239 405.162 72.468 407.233 70.6907C408.714 69.4158 410.358 68.1912 411.381 66.5332C412.416 64.8564 413.47 63.2675 414.236 61.44C415.008 59.6061 415.572 57.6844 415.968 55.7313C416.162 54.7829 416.313 53.8221 416.438 52.8612C416.532 52.0825 416.394 50.8767 416.689 50.167C413.257 58.5825 408.356 66.395 402.263 73.14C400.123 75.5139 397.161 77.4105 394.475 79.0999C389.417 82.284 383.023 84.9468 379.754 90.241C378.329 92.5395 377.702 95.2149 377.419 97.8777C377.275 99.2405 377.225 100.61 377.2 101.972C377.194 102.412 377.03 103.172 377.237 103.574C377.388 103.869 378.474 104.227 378.474 104.441C378.461 101.42 379.02 98.4052 380.074 95.5729Z" fill="#023E7D"/>
<path d="M371.892 99.4479C372.331 99.5798 372.689 99.4542 372.312 98.7508C371.383 97.0174 370.756 95.1208 370.461 93.174C370.172 91.2773 370.681 90.0715 371.233 88.2942C372.4 84.5575 374.709 81.3986 377.226 78.4594C379.955 75.2817 382.861 72.242 385.051 68.6435C387.165 65.1705 388.709 61.3396 389.6 57.3705C390.491 53.4328 390.09 49.7087 389.33 45.7145C389.136 44.6845 388.847 43.5541 387.987 42.9512C387.285 46.9642 387.554 51.0715 387.391 55.141C387.203 59.7507 385.979 64.3039 383.708 68.3295C381.38 72.4556 377.991 75.0744 374.684 78.3276C372.055 80.9087 370.404 84.4131 369.84 88.0556C369.438 90.6682 369.576 93.3435 370.141 95.9184C370.335 96.8102 370.486 98.1604 371.07 98.9015C371.245 99.1464 371.59 99.3537 371.892 99.4479Z" fill="#023E7D"/>
<path d="M378.152 87.9741C378.943 85.7195 379.903 83.5151 381.29 81.5557C382.582 79.7344 384.214 78.1832 385.914 76.7513C387.64 75.2943 389.46 73.9441 391.198 72.5059C392.855 71.1306 394.436 69.661 395.917 68.0972C397.498 66.433 399.368 64.574 400.328 62.4827C401.238 60.4982 401.973 58.275 402.468 56.1397C403.008 53.816 403.271 51.4296 403.24 49.0431C403.221 47.8059 403.133 46.5687 402.958 45.3503C402.845 44.5465 402.173 42.989 402.336 42.2354C401.533 45.9658 400.724 49.7025 399.914 53.433C399.4 55.8132 398.873 58.2122 397.818 60.404C397.109 61.8735 396.181 63.2175 395.214 64.5301C391.035 70.1634 385.563 74.4654 381.158 79.8286C378.284 83.3267 376.169 87.5031 374.801 91.805C374.211 93.6639 373.759 95.5731 373.465 97.5011C373.339 98.2987 373 99.4417 373.145 100.239C373.214 100.61 374.312 101.696 374.318 101.646C375.347 97.0239 376.583 92.433 378.152 87.9741Z" fill="#023E7D"/>
</g>
<path d="M6 217.883V189.685L104.461 32H126.379V73.5078H112.472L42.0468 186.526V188.331H177V217.883H6ZM114.029 263V209.311L114.252 196.452V32H146.85V263H114.029Z" fill="white"/>
<path d="M513 217.883V189.685L611.461 32H633.379V73.5078H619.472L549.047 186.526V188.331H684V217.883H513ZM621.029 263V209.311L621.252 196.452V32H653.85V263H621.029Z" fill="white"/>
</g>
<defs>
<clipPath id="clip0_212_6127">
<rect width="725" height="295" fill="white"/>
</clipPath>
</defs>
</svg>
