<svg width="32" height="32" viewBox="0 0 32 32" fill="none" xmlns="http://www.w3.org/2000/svg">
<g clip-path="url(#clip0_1086_24269)">
<path d="M22.5154 20.0139H3.65313C3.44835 20.0139 3.28259 20.1797 3.28259 20.3845V21.7563H3.06285C2.65593 21.7563 2.32617 22.0861 2.32617 22.493V32.0003H5.41371V26.3994H8.81428V32.0003H11.3714V26.3994H14.772V32.0003H17.3291V26.2955H20.7296V32.0003H23.2867V26.3994H26.6873V32.0003H29.7748V22.4927C29.7748 22.0861 29.4451 21.7563 29.0382 21.7563H28.8184V20.3842C28.8184 20.1797 28.6527 20.0137 28.4479 20.0137H27.3562V15.7822H22.5151V20.0139H22.5154ZM8.81428 24.7811H5.41371V23.32H8.81428V24.7811ZM14.7722 24.7811H11.3714V23.32H14.7722V24.7811ZM20.7296 24.7318H17.3291V23.32H20.7296V24.7318ZM26.6876 24.7318V24.7811H23.287V23.32H26.6876V24.7318Z" fill="#3F85D7"/>
<path d="M20.7814 9.3075C20.895 9.65046 21.2159 9.88223 21.5774 9.88223H22.5147V12.0949H27.3558V9.88223H28.3445C28.7059 9.88223 29.0266 9.65046 29.1404 9.3075L30.1649 6.21732C30.2438 5.97968 30.0666 5.73441 29.8161 5.73441H28.2999V4.35465C28.2999 4.15896 28.1412 4.00054 27.9455 4.00054H25.6659V1.2011H27.0032C27.4993 1.2011 27.9015 0.799168 27.9015 0.302769V0H22.0207V0.302769C22.0207 0.798875 22.4229 1.2011 22.919 1.2011H24.2562V4.00054H21.9764C21.781 4.00054 21.6223 4.15896 21.6223 4.35465V5.73441H20.1061C19.8555 5.73441 19.6783 5.97939 19.7572 6.21732L20.7814 9.3075ZM28.3002 6.91439C28.4701 6.91439 28.5901 7.08074 28.5367 7.2421L28.1092 8.53121C28.0755 8.63331 27.9801 8.70196 27.8727 8.70196H25.8408C25.7032 8.70196 25.5917 8.59047 25.5917 8.45288V7.16347C25.5917 7.02588 25.7032 6.91439 25.8408 6.91439H28.3002ZM21.6217 6.91439H24.0811C24.2184 6.91439 24.3302 7.02588 24.3302 7.16347V8.45288C24.3302 8.59047 24.2184 8.70196 24.0811 8.70196H22.0491C21.9418 8.70196 21.8464 8.63331 21.8127 8.53121L21.3852 7.2421C21.3318 7.08074 21.4518 6.91439 21.6217 6.91439Z" fill="#3F85D7"/>
<path d="M27.3567 14.5221V13.1465H22.5156V14.7304H27.3567V14.5221Z" fill="#3F85D7"/>
<path d="M0.175474 3.45963C0.246179 3.57434 0.340941 3.67291 0.450078 3.75154L4.76189 6.86695L5.99731 14.1988C6.04631 14.4907 6.19564 14.7565 6.4189 14.951L7.18639 15.6191C7.39351 15.7992 7.71652 15.654 7.71858 15.3794L7.76963 9.04002L12.0685 12.146C13.0496 12.8548 14.366 12.8859 15.3796 12.2244L17.0355 11.1433C17.2238 11.0206 17.2584 10.7592 17.1091 10.5914L16.9266 10.3866C16.5922 10.0111 16.0846 9.8386 15.5903 9.93307L13.6971 10.2942L4.92354 2.84147C4.06863 2.11536 2.98547 1.68966 1.86388 1.70551C1.50713 1.71049 1.13365 1.75773 0.762528 1.87097C0.0947944 2.07458 -0.197999 2.83326 0.159631 3.43293C0.164912 3.44173 0.170193 3.45083 0.175474 3.45963Z" fill="#3F85D7"/>
<path d="M9.97903 6.03475C10.2428 6.26974 10.5884 6.39208 10.9413 6.37536L15.5421 6.15914C15.7654 6.10897 15.827 5.82028 15.6436 5.68328L14.9639 5.17543C14.7661 5.02757 14.5232 4.95305 14.2765 4.96449L8.72952 4.35602C8.50421 4.33138 8.38011 4.61038 8.54939 4.76118L9.97903 6.03475Z" fill="#3F85D7"/>
</g>
<defs>
<clipPath id="clip0_1086_24269">
<rect width="32" height="32" fill="white"/>
</clipPath>
</defs>
</svg>
