<svg width="29" height="29" viewBox="0 0 29 29" fill="none" xmlns="http://www.w3.org/2000/svg">
<g clip-path="url(#clip0_1765_4145)">
<path d="M11.58 0.000976562H4.99414V4.01702L11.58 2.91938V0.000976562Z" fill="#3F85D7"/>
<path d="M26.078 27.2996V8.28607H15.3496V27.2996H13.6504V6.58686V4.29688L2.92198 6.08491V27.2996H0V28.9988H29V27.2996H26.078ZM21.8827 10.7294H23.6875V12.4286H21.8827V10.7294ZM21.8827 14.872H23.6875V16.5712H21.8827V14.872ZM21.8827 19.0145H23.6875V20.7137H21.8827V19.0145ZM21.8827 23.1571H23.6875V24.8563H21.8827V23.1571ZM17.7401 10.7294H19.545V12.4286H17.7401V10.7294ZM17.7401 14.872H19.545V16.5712H17.7401V14.872ZM17.7401 19.0145H19.545V20.7137H17.7401V19.0145ZM17.7401 23.1571H19.545V24.8563H17.7401V23.1571ZM9.45502 6.58686H11.2599V8.28607H9.45502V6.58686ZM9.45502 10.7294H11.2599V12.4286H9.45502V10.7294ZM9.45502 14.872H11.2599V16.5712H9.45502V14.872ZM9.45502 19.0145H11.2599V20.7137H9.45502V19.0145ZM5.31249 10.7294H7.11735V12.4286H5.31249V10.7294ZM5.31249 14.872H7.11735V16.5712H5.31249V14.872ZM5.31249 19.0145H7.11735V20.7137H5.31249V19.0145ZM5.36528 23.1571H11.2071V27.2996H9.50787V24.8563H7.0645V27.2996H5.36528V23.1571Z" fill="#3F85D7"/>
</g>
<defs>
<clipPath id="clip0_1765_4145">
<rect width="29" height="29" fill="white"/>
</clipPath>
</defs>
</svg>
