<svg width="24" height="24" viewBox="0 0 24 24" fill="none" xmlns="http://www.w3.org/2000/svg">
<path d="M5 21.0659V23.272C5 23.6741 5.32593 24 5.72803 24H18.454C18.8561 24 19.1823 23.6741 19.1823 23.272V21.0659H5Z" fill="#3F85D7"/>
<path d="M5 16.6439V19.6099H19.1823V16.6439H5Z" fill="#3F85D7"/>
<path d="M5 12.2056H19.1823V15.1876H5V12.2056Z" fill="#3F85D7"/>
<path d="M14.9648 10.7494V6.45996H16.9164C17.2086 6.45996 17.4723 6.28546 17.5865 6.01666C17.7008 5.74786 17.6433 5.43677 17.4404 5.22656L12.6141 0.222656C12.4768 0.0803833 12.2876 0 12.0901 0C11.8923 0 11.7032 0.0803833 11.566 0.222656L6.73917 5.22638C6.53647 5.43677 6.47897 5.74786 6.59305 6.01666C6.70731 6.28546 6.97116 6.45996 7.26322 6.45996H9.21494V10.7494H14.9648Z" fill="#3F85D7"/>
</svg>
