<svg width="15" height="15" viewBox="0 0 15 15" fill="none" xmlns="http://www.w3.org/2000/svg">
<g opacity="0.6" clip-path="url(#clip0_1745_10387)">
<path d="M11.4551 7.17773C11.4551 6.69311 11.0608 6.29883 10.5762 6.29883H9.69727C9.21264 6.29883 8.81836 6.69311 8.81836 7.17773V10.2539H11.4551V7.17773Z" fill="#040F1C"/>
<path d="M1.78711 2.19727C1.78711 1.47041 2.37861 0.878906 3.10547 0.878906H3.98438C4.57834 0.878906 5.08172 1.27395 5.24602 1.815C4.27271 2.04064 3.54492 2.91416 3.54492 3.95508V4.39453H7.93945V3.95508C7.93945 2.88082 7.16435 1.98478 6.14414 1.79531C5.95468 0.775019 5.05852 0 3.98438 0H3.10547C1.89404 0 0.908203 0.985547 0.908203 2.19727V6.29883H1.78711V2.19727Z" fill="#040F1C"/>
<path d="M12.334 11.1328H7.93945V9.81445H0.908203V11.1328C0.908203 12.2827 1.54248 13.2871 2.47945 13.8149L1.91584 14.3785L2.53729 15L3.38675 14.1505C3.58014 14.1887 3.77994 14.209 3.98438 14.209H11.0156C11.2201 14.209 11.4199 14.1887 11.6133 14.1505L12.4627 15L13.0842 14.3785L12.5206 13.8149C13.4575 13.2871 14.0918 12.2827 14.0918 11.1328V9.81445H12.334V11.1328Z" fill="#040F1C"/>
<path d="M14.1211 7.17773H12.334V8.93555H14.1211C14.6057 8.93555 15 8.54121 15 8.05664C15 7.57207 14.6057 7.17773 14.1211 7.17773Z" fill="#040F1C"/>
<path d="M7.93945 7.17773H0.878906C0.394336 7.17773 0 7.57207 0 8.05664C0 8.54121 0.394336 8.93555 0.878906 8.93555H7.93945V7.17773Z" fill="#040F1C"/>
</g>
<defs>
<clipPath id="clip0_1745_10387">
<rect width="15" height="15" fill="white"/>
</clipPath>
</defs>
</svg>
