<svg width="24" height="24" viewBox="0 0 24 24" fill="none" xmlns="http://www.w3.org/2000/svg">
<path d="M6.54688 19.9355L7.76453 20.7473H23.9998V19.9355H6.54688Z" fill="#3F85D7"/>
<path d="M15.0703 23.1816H19.9408V23.9935H15.0703V23.1816Z" fill="#3F85D7"/>
<path d="M13.4473 21.5586H21.5648V22.3705H13.4473V21.5586Z" fill="#3F85D7"/>
<path d="M20.0739 12.5054C21.5004 13.932 21.5004 16.245 20.0739 17.6716C18.6472 19.0979 16.3344 19.0979 14.9077 17.6716C13.4813 16.245 13.4813 13.932 14.9077 12.5054C16.3344 11.0789 18.6472 11.0789 20.0739 12.5054Z" fill="#3F85D7"/>
<path d="M3.95499 19.4136C6.34897 15.438 7.78487 10.9595 8.14897 6.33289L12.5296 10.7278C13.2211 9.35949 12.9596 7.70209 11.8803 6.6132L11.4943 6.22405C11.2372 5.96562 10.941 5.74907 10.6169 5.58289L14.6918 5.60111C14.2134 4.1443 12.8562 3.1571 11.3229 3.15076L10.7745 3.14831C10.3829 3.14726 9.99387 3.21111 9.62294 3.3376L12.5455 0.425294C11.1772 -0.266056 9.5202 -0.00461381 8.43132 1.07443L8.04216 1.46065C7.78365 1.71738 7.56719 2.0138 7.40109 2.33804C7.23726 2.0125 7.02348 1.7142 6.76741 1.45488L6.38126 1.06564C5.30263 -0.0232418 3.64808 -0.299652 2.27375 0.379334L5.16898 3.31727C4.79894 3.18777 4.41036 3.12041 4.01876 3.11781L3.47082 3.11553C1.93788 3.10854 0.572343 4.08313 0.0807755 5.53522L4.15599 5.55352C3.83004 5.71703 3.53208 5.93088 3.27275 6.18704L2.88335 6.57326C1.79455 7.65206 1.51822 9.30669 2.19745 10.6811L6.51776 6.42448C6.22004 10.8719 4.6077 15.1304 1.88533 18.6595C1.27411 18.4857 0.652468 18.3515 0.0239968 18.2579L0 23.5342L9.33522 23.5746L9.31741 23.5524C7.8759 21.775 6.03962 20.358 3.95499 19.4136ZM2.84341 23.1418L2.03159 23.1381L2.03517 22.3263L2.84683 22.3299L2.84341 23.1418ZM5.28173 22.3408L4.46998 22.3372L4.47397 21.5254L5.28579 21.529L5.28173 22.3408Z" fill="#3F85D7"/>
</svg>
