<svg width="32" height="32" viewBox="0 0 32 32" fill="none" xmlns="http://www.w3.org/2000/svg">
<path d="M5.86677 26.3224H8.44233L6.31895 20.8018C6.03402 20.8939 5.75233 20.9964 5.47602 21.1087C4.70608 21.4216 4.32239 22.3073 4.62077 23.0829L5.86677 26.3224Z" fill="#3F85D7"/>
<path d="M10.4515 26.3227H16.2661L18.8372 19.6379C19.1355 18.8622 18.7519 17.9765 17.9819 17.6636C15.0007 16.452 11.7171 16.452 8.73581 17.6636C7.96587 17.9765 7.58219 18.8622 7.8805 19.6379L10.4515 26.3227Z" fill="#3F85D7"/>
<path d="M3.85715 26.3226L3.0589 24.2471C2.7739 24.3393 2.49221 24.4417 2.21596 24.5539C1.5134 24.8395 1.13277 25.6019 1.29815 26.3225H3.85715V26.3226Z" fill="#3F85D7"/>
<path d="M20.8511 26.3224L22.097 23.0829C22.3953 22.3073 22.0116 21.4216 21.2417 21.1086C20.9654 20.9963 20.6837 20.8939 20.3988 20.8018L18.2754 26.3224H20.8511Z" fill="#3F85D7"/>
<path d="M24.5006 24.554C24.2243 24.4417 23.9426 24.3393 23.6576 24.2471L22.8594 26.3225H25.4184C25.5838 25.6019 25.2031 24.8396 24.5006 24.554Z" fill="#3F85D7"/>
<path d="M0 28.522C0 29.6342 0.904875 30.5391 2.01712 30.5391H26.2329C27.3451 30.5391 28.25 29.6342 28.25 28.522V28.1973H0V28.522Z" fill="#3F85D7"/>
<path d="M16.7246 7.41259H18.5996C18.5996 6.90152 18.713 6.6874 18.8847 6.36334C19.1088 5.94015 19.3878 5.41346 19.3878 4.43646C19.3878 3.45946 19.1089 2.93271 18.8847 2.50946C18.713 2.18527 18.5997 1.97115 18.5997 1.45996H16.7247C16.7247 2.43702 17.0036 2.96377 17.2277 3.38696C17.3994 3.71115 17.5128 3.92521 17.5128 4.43646C17.5128 4.94752 17.3994 5.16165 17.2277 5.48571C17.0035 5.90896 16.7246 6.43565 16.7246 7.41259Z" fill="#3F85D7"/>
<path d="M21.2793 7.41252H23.1543C23.1543 6.90146 23.2677 6.68734 23.4394 6.36327C23.6635 5.94009 23.9424 5.4134 23.9424 4.43646C23.9424 3.45946 23.6635 2.93271 23.4394 2.50946C23.2677 2.18534 23.1543 1.97121 23.1543 1.45996H21.2793C21.2793 2.43702 21.5582 2.96371 21.7824 3.38696C21.954 3.71109 22.0674 3.92521 22.0674 4.43646C22.0674 4.94752 21.954 5.16165 21.7824 5.48571C21.5582 5.9089 21.2793 6.43559 21.2793 7.41252Z" fill="#3F85D7"/>
<path d="M28.7866 13.1842C28.3094 13.1842 27.8567 13.2896 27.4492 13.477V9.91797H14.2949V14.9118C15.7855 15.0118 17.2657 15.3498 18.6864 15.9272C19.5193 16.2656 20.1747 16.9063 20.5321 17.7312C20.7041 18.1283 20.7969 18.5466 20.8117 18.9673C21.1955 19.0865 21.5749 19.2217 21.9459 19.3724C22.7787 19.7109 23.4341 20.3516 23.7915 21.1765C23.9635 21.5736 24.0563 21.9919 24.0712 22.4125C24.455 22.5317 24.8345 22.6669 25.2053 22.8176C26.0035 23.142 26.6379 23.7445 27.004 24.5202C27.2945 23.8687 27.4492 23.155 27.4492 22.4152V21.5226C27.8567 21.71 28.3095 21.8154 28.7866 21.8154C30.5579 21.8154 31.999 20.3743 31.999 18.603V16.3967C31.999 14.6253 30.5579 13.1842 28.7866 13.1842ZM30.124 18.6028C30.124 19.3403 29.524 19.9403 28.7866 19.9403C28.0492 19.9403 27.4492 19.3403 27.4492 18.6028V16.3966C27.4492 15.6592 28.0492 15.0592 28.7866 15.0592C29.524 15.0592 30.124 15.6592 30.124 16.3966V18.6028Z" fill="#3F85D7"/>
</svg>
