<svg width="20" height="20" viewBox="0 0 20 20" fill="none" xmlns="http://www.w3.org/2000/svg">
<g clip-path="url(#clip0_2620_26880)">
<g clip-path="url(#clip1_2620_26880)">
<path d="M1.66602 9.16634H18.3327V16.6663C18.3327 16.8874 18.2449 17.0993 18.0886 17.2556C17.9323 17.4119 17.7204 17.4997 17.4993 17.4997H2.49935C2.27834 17.4997 2.06637 17.4119 1.91009 17.2556C1.75381 17.0993 1.66602 16.8874 1.66602 16.6663V9.16634ZM14.166 2.49967H17.4993C17.7204 2.49967 17.9323 2.58747 18.0886 2.74375C18.2449 2.90003 18.3327 3.11199 18.3327 3.33301V7.49967H1.66602V3.33301C1.66602 3.11199 1.75381 2.90003 1.91009 2.74375C2.06637 2.58747 2.27834 2.49967 2.49935 2.49967H5.83268V0.833008H7.49935V2.49967H12.4993V0.833008H14.166V2.49967Z" fill="#3F85D7"/>
</g>
</g>
<defs>
<clipPath id="clip0_2620_26880">
<rect width="20" height="20" fill="white"/>
</clipPath>
<clipPath id="clip1_2620_26880">
<rect width="20" height="20" fill="white"/>
</clipPath>
</defs>
</svg>
