<svg width="20" height="20" viewBox="0 0 20 20" fill="none" xmlns="http://www.w3.org/2000/svg">
<g clip-path="url(#clip0_1086_24225)">
<path d="M4.18281 11.4832C3.99531 11.7498 4.06129 12.1168 4.32773 12.302L4.73043 12.5816C4.07316 13.2158 3.19172 13.5746 2.27109 13.5746H1.17187V12.3051C1.17187 11.9815 0.909531 11.7191 0.585937 11.7191C0.262344 11.7191 0 11.9815 0 12.3051V18.2816C0 18.6052 0.262344 18.8676 0.585937 18.8676C0.909531 18.8676 1.17187 18.6052 1.17187 18.2816V17.0902H1.96609C4.06891 17.0902 6.12531 16.206 7.58609 14.5648L8.17227 14.9719C8.4384 15.1577 8.80762 15.0895 8.99062 14.8203L9.39219 14.2309L4.63867 10.8359L4.18281 11.4832Z" fill="#3F85D7"/>
<path d="M19.7453 11.5354L19.5293 11.3877L15.0352 14.9787L16.3211 15.9045C16.5722 16.0852 16.9234 16.0396 17.1191 15.7967L19.8707 12.3873C20.0864 12.1199 20.0264 11.727 19.7453 11.5354Z" fill="#3F85D7"/>
<path d="M18.8349 9.49142L7.56819 1.35493C7.06213 0.989384 6.35947 1.08438 5.96854 1.57102L2.26576 6.17981C1.84467 6.70407 1.95096 7.47653 2.4983 7.86743L12.4659 14.9856C12.6789 15.1377 12.9674 15.1302 13.1722 14.9665L18.8576 10.4242C19.1597 10.1829 19.1493 9.71841 18.8349 9.49142ZM14.6878 10.5276C14.3642 10.5276 14.1018 10.2652 14.1018 9.94165C14.1018 9.61806 14.3642 9.35571 14.6878 9.35571C15.0113 9.35571 15.2737 9.61806 15.2737 9.94165C15.2737 10.2652 15.0113 10.5276 14.6878 10.5276Z" fill="#3F85D7"/>
</g>
<defs>
<clipPath id="clip0_1086_24225">
<rect width="20" height="20" fill="white"/>
</clipPath>
</defs>
</svg>
