<svg width="20" height="20" viewBox="0 0 20 20" fill="none" xmlns="http://www.w3.org/2000/svg">
<g clip-path="url(#clip0_1532_36446)">
<path d="M18.3346 10V17.5C18.3346 17.721 18.2468 17.933 18.0906 18.0893C17.9343 18.2455 17.7223 18.3333 17.5013 18.3333H16.668C16.447 18.3333 16.235 18.2455 16.0787 18.0893C15.9224 17.933 15.8346 17.721 15.8346 17.5V16.6667H4.16797V17.5C4.16797 17.721 4.08017 17.933 3.92389 18.0893C3.76761 18.2455 3.55565 18.3333 3.33464 18.3333H2.5013C2.28029 18.3333 2.06833 18.2455 1.91205 18.0893C1.75577 17.933 1.66797 17.721 1.66797 17.5V10L3.73464 5.17667C3.86324 4.87667 4.0771 4.62103 4.34968 4.44148C4.62226 4.26193 4.94157 4.16638 5.26797 4.16667H7.5013V2.5H12.5013V4.16667H14.7355C15.0616 4.1667 15.3805 4.26241 15.6528 4.44194C15.925 4.62147 16.1386 4.87693 16.2671 5.17667L18.3346 10ZM3.4813 10H16.5213L14.7355 5.83333H5.26797L3.48214 10H3.4813ZM5.41797 14.1667C5.74949 14.1667 6.06743 14.035 6.30185 13.8005C6.53627 13.5661 6.66797 13.2482 6.66797 12.9167C6.66797 12.5851 6.53627 12.2672 6.30185 12.0328C6.06743 11.7984 5.74949 11.6667 5.41797 11.6667C5.08645 11.6667 4.76851 11.7984 4.53409 12.0328C4.29966 12.2672 4.16797 12.5851 4.16797 12.9167C4.16797 13.2482 4.29966 13.5661 4.53409 13.8005C4.76851 14.035 5.08645 14.1667 5.41797 14.1667ZM14.5846 14.1667C14.9162 14.1667 15.2341 14.035 15.4685 13.8005C15.7029 13.5661 15.8346 13.2482 15.8346 12.9167C15.8346 12.5851 15.7029 12.2672 15.4685 12.0328C15.2341 11.7984 14.9162 11.6667 14.5846 11.6667C14.2531 11.6667 13.9352 11.7984 13.7008 12.0328C13.4663 12.2672 13.3346 12.5851 13.3346 12.9167C13.3346 13.2482 13.4663 13.5661 13.7008 13.8005C13.9352 14.035 14.2531 14.1667 14.5846 14.1667Z" fill="#3F85D7"/>
</g>
<defs>
<clipPath id="clip0_1532_36446">
<rect width="20" height="20" fill="white"/>
</clipPath>
</defs>
</svg>
