<svg width="31" height="31" viewBox="0 0 31 31" fill="none" xmlns="http://www.w3.org/2000/svg">
<g clip-path="url(#clip0_2256_14085)">
<path d="M30.6016 10.3506V8.76855C30.6016 6.95637 29.1325 5.4873 27.3203 5.4873H3.88281C2.07063 5.4873 0.601562 6.95637 0.601562 8.76855V10.3506C0.601562 10.5124 0.732754 10.6436 0.894531 10.6436H30.3086C30.4704 10.6436 30.6016 10.5124 30.6016 10.3506Z" fill="white"/>
<path d="M0.601562 12.8115V22.8311C0.601562 24.6432 2.07063 26.1123 3.88281 26.1123H27.3203C29.1325 26.1123 30.6016 24.6432 30.6016 22.8311V12.8115C30.6016 12.6497 30.4704 12.5186 30.3086 12.5186H0.894531C0.732754 12.5186 0.601562 12.6497 0.601562 12.8115ZM8.10156 20.4873C8.10156 21.005 7.6818 21.4248 7.16406 21.4248H6.22656C5.70883 21.4248 5.28906 21.005 5.28906 20.4873V19.5498C5.28906 19.0321 5.70883 18.6123 6.22656 18.6123H7.16406C7.6818 18.6123 8.10156 19.0321 8.10156 19.5498V20.4873Z" fill="white"/>
</g>
<defs>
<clipPath id="clip0_2256_14085">
<rect width="30" height="30" fill="white" transform="translate(0.601562 0.799805)"/>
</clipPath>
</defs>
</svg>
