<svg width="252" height="252" viewBox="0 0 252 252" fill="none" xmlns="http://www.w3.org/2000/svg">
<path d="M235.356 140.874L240.986 141.835C241.431 141.911 241.894 141.95 242.374 141.952C242.859 141.963 243.322 141.896 243.761 141.753C244.199 141.617 244.574 141.379 244.887 141.04C245.198 140.708 245.406 140.238 245.51 139.63C245.578 139.234 245.575 138.848 245.501 138.472C245.434 138.097 245.279 137.75 245.035 137.432C244.79 137.122 244.444 136.848 243.997 136.612C243.549 136.382 242.985 136.21 242.307 136.094L243.062 134.805C244.101 134.982 244.983 135.333 245.708 135.857C246.441 136.382 246.967 137.046 247.288 137.85C247.608 138.654 247.681 139.572 247.504 140.603C247.369 141.395 247.128 142.037 246.781 142.531C246.435 143.024 246.025 143.402 245.551 143.662C245.083 143.932 244.59 144.113 244.072 144.206C243.554 144.299 243.057 144.338 242.579 144.322C242.102 144.306 241.686 144.268 241.333 144.207L234.972 143.121L235.356 140.874ZM236.733 132.829L252 135.437L251.661 137.419L243.423 136.012L243.378 136.277L236.348 135.076L236.733 132.829Z" fill="white"/>
<path d="M233.898 150.168C234.231 149.056 234.771 148.166 235.518 147.499C236.264 146.832 237.144 146.407 238.157 146.224C239.175 146.05 240.261 146.135 241.415 146.481C242.576 146.828 243.528 147.36 244.272 148.077C245.022 148.795 245.518 149.636 245.761 150.599C246.01 151.564 245.971 152.593 245.644 153.685C245.31 154.797 244.77 155.687 244.023 156.354C243.277 157.021 242.397 157.446 241.384 157.629C240.371 157.812 239.291 157.732 238.144 157.389C236.983 157.041 236.027 156.508 235.277 155.789C234.532 155.08 234.031 154.241 233.774 153.274C233.525 152.309 233.566 151.274 233.898 150.168ZM235.927 150.776C235.608 151.84 235.728 152.74 236.285 153.476C236.848 154.221 237.696 154.763 238.829 155.102C239.99 155.449 240.998 155.459 241.852 155.131C242.712 154.812 243.299 154.128 243.614 153.077C243.83 152.356 243.843 151.713 243.654 151.147C243.471 150.583 243.125 150.102 242.616 149.703C242.114 149.305 241.485 148.994 240.729 148.767C239.562 148.418 238.547 148.406 237.686 148.732C236.825 149.057 236.238 149.739 235.927 150.776Z" fill="white"/>
<path d="M226.027 170.892L232.486 174.159C233.235 174.536 233.915 174.638 234.525 174.463C235.141 174.292 235.608 173.893 235.925 173.266C236.118 172.882 236.206 172.485 236.189 172.074C236.174 171.674 236.041 171.285 235.789 170.91C235.54 170.543 235.153 170.228 234.628 169.963L235.607 169.241C236.344 169.596 236.906 170.072 237.296 170.669C237.681 171.273 237.884 171.929 237.904 172.638C237.931 173.35 237.769 174.051 237.42 174.742C236.855 175.862 236.081 176.56 235.099 176.836C234.116 177.111 233.068 176.968 231.954 176.407L225.014 172.898L226.027 170.892ZM232.302 158.46L242.676 163.687L241.774 165.472L238.778 163.962L238.661 164.193L231.285 160.476L232.302 158.46ZM229.162 164.681L235.583 167.928C236.339 168.309 237.028 168.415 237.651 168.247C238.27 168.086 238.742 167.685 239.065 167.045C239.385 166.412 239.425 165.79 239.187 165.18C238.945 164.577 238.472 164.098 237.768 163.743L238.867 163.092C239.546 163.434 240.069 163.902 240.436 164.497C240.802 165.091 240.999 165.744 241.025 166.455C241.051 167.167 240.887 167.875 240.531 168.579C240.16 169.315 239.686 169.863 239.111 170.223C238.542 170.587 237.911 170.763 237.218 170.751C236.522 170.745 235.806 170.557 235.07 170.186L228.149 166.687L229.162 164.681Z" fill="white"/>
<path d="M221.172 180.119C221.81 179.156 222.58 178.449 223.481 177.997C224.385 177.555 225.349 177.38 226.371 177.473C227.396 177.575 228.408 177.956 229.406 178.617C230.465 179.317 231.252 180.122 231.768 181.031C232.28 181.945 232.512 182.899 232.465 183.891C232.418 184.883 232.082 185.851 231.456 186.795C230.803 187.781 230.016 188.468 229.096 188.857C228.182 189.249 227.19 189.337 226.122 189.119C225.049 188.908 223.956 188.383 222.844 187.543L224.086 185.67L224.767 186.121C225.899 186.853 226.873 187.188 227.688 187.126C228.5 187.07 229.187 186.617 229.749 185.769C230.371 184.831 230.543 183.93 230.264 183.066C229.985 182.202 229.286 181.4 228.168 180.66C227.104 179.956 226.122 179.646 225.223 179.73C224.33 179.818 223.589 180.308 222.998 181.198C222.61 181.784 222.407 182.376 222.389 182.974C222.373 183.582 222.534 184.17 222.871 184.738L221.07 186.189C220.453 185.239 220.158 184.223 220.187 183.142C220.222 182.064 220.55 181.057 221.172 180.119ZM228.043 179.701L229.505 180.668L224.924 187.579L223.462 186.611L228.043 179.701Z" fill="white"/>
<path d="M214.856 190.998C215.757 189.91 216.731 189.222 217.778 188.934C218.826 188.647 219.851 188.786 220.852 189.353L219.658 191.352C219.103 191.079 218.525 191.029 217.925 191.203C217.326 191.387 216.78 191.778 216.286 192.374C215.838 192.915 215.599 193.429 215.569 193.916C215.534 194.408 215.71 194.814 216.097 195.133C216.323 195.32 216.551 195.416 216.781 195.42C217.012 195.433 217.332 195.321 217.743 195.084C218.153 194.847 218.743 194.455 219.511 193.909C220.345 193.305 221.063 192.871 221.665 192.605C222.267 192.349 222.8 192.25 223.264 192.308C223.729 192.376 224.18 192.59 224.617 192.951C225.159 193.399 225.512 193.933 225.678 194.553C225.844 195.174 225.823 195.835 225.614 196.537C225.401 197.244 225.004 197.949 224.424 198.65C223.857 199.335 223.244 199.856 222.585 200.214C221.926 200.572 221.261 200.752 220.588 200.755C219.922 200.762 219.295 200.579 218.71 200.207L219.854 198.167C220.335 198.463 220.842 198.542 221.374 198.405C221.906 198.268 222.41 197.935 222.884 197.406C223.341 196.9 223.604 196.402 223.675 195.911C223.751 195.426 223.618 195.041 223.275 194.758C223.076 194.594 222.857 194.515 222.619 194.523C222.375 194.536 222.041 194.669 221.617 194.923C221.193 195.177 220.602 195.582 219.845 196.137C219.03 196.728 218.32 197.147 217.717 197.392C217.119 197.642 216.579 197.727 216.098 197.645C215.617 197.574 215.148 197.348 214.689 196.969C213.804 196.239 213.378 195.342 213.41 194.281C213.437 193.224 213.919 192.13 214.856 190.998Z" fill="white"/>
<path d="M208.466 205.94C208.764 205.649 209.11 205.501 209.506 205.495C209.896 205.494 210.235 205.64 210.521 205.932C210.812 206.229 210.95 206.57 210.935 206.955C210.921 207.35 210.765 207.693 210.468 207.984C210.201 208.244 209.873 208.375 209.482 208.376C209.096 208.382 208.758 208.236 208.467 207.939C208.181 207.647 208.043 207.306 208.052 206.916C208.062 206.526 208.2 206.2 208.466 205.94Z" fill="white"/>
<path d="M192.765 214.181L201.882 227.095L200.045 228.39L190.928 215.475L192.765 214.181Z" fill="white"/>
<path d="M185.071 218.836C185.778 218.457 186.433 218.251 187.036 218.221C187.638 218.191 188.189 218.277 188.689 218.481C189.187 218.694 189.631 218.976 190.024 219.327C190.416 219.677 190.752 220.046 191.033 220.432C191.314 220.818 191.54 221.169 191.709 221.485L194.765 227.168L192.756 228.246L190.052 223.217C189.838 222.819 189.586 222.426 189.295 222.037C189.001 221.657 188.666 221.337 188.289 221.075C187.906 220.817 187.488 220.667 187.034 220.626C186.574 220.588 186.073 220.715 185.529 221.007C185.176 221.197 184.871 221.433 184.617 221.716C184.365 222.006 184.192 222.343 184.098 222.727C183.997 223.115 183.994 223.556 184.089 224.05C184.177 224.548 184.385 225.1 184.71 225.706L183.229 225.903C182.73 224.975 182.462 224.061 182.426 223.161C182.393 222.267 182.595 221.447 183.032 220.7C183.469 219.952 184.148 219.331 185.071 218.836ZM181.835 220.927L183.424 223.882L183.661 223.755L187.573 231.029L185.573 232.102L180.073 221.873L181.835 220.927Z" fill="white"/>
<path d="M178.623 223.033L176.803 230.105L182.9 233.831L180.428 234.833L176.246 232.222L175.095 236.993L172.622 237.995L174.401 231.079L168.156 227.273L170.638 226.268L174.928 228.974L176.14 224.039L178.623 223.033Z" fill="white"/>
<path d="M161.865 229.447C162.641 229.237 163.325 229.185 163.919 229.292C164.512 229.399 165.029 229.608 165.471 229.919C165.907 230.239 166.276 230.614 166.578 231.045C166.881 231.476 167.125 231.911 167.311 232.35C167.498 232.79 167.638 233.183 167.731 233.529L169.42 239.756L167.219 240.352L165.725 234.841C165.606 234.405 165.45 233.965 165.255 233.52C165.055 233.084 164.801 232.696 164.493 232.356C164.179 232.018 163.805 231.777 163.373 231.634C162.933 231.493 162.416 231.504 161.821 231.665C161.433 231.77 161.083 231.931 160.771 232.149C160.461 232.375 160.216 232.664 160.037 233.017C159.851 233.372 159.748 233.8 159.728 234.303C159.702 234.808 159.778 235.393 159.959 236.057L158.471 235.914C158.195 234.897 158.141 233.946 158.31 233.061C158.481 232.183 158.863 231.429 159.458 230.8C160.052 230.172 160.855 229.72 161.865 229.447ZM158.241 230.751L159.119 233.989L159.379 233.919L161.541 241.89L159.35 242.483L156.31 231.274L158.241 230.751Z" fill="white"/>
<path d="M154.115 232.684L156.249 244.1L154.282 244.467L153.765 241.697L154.107 242.005C154.034 242.398 153.913 242.767 153.745 243.112C153.577 243.464 153.364 243.767 153.104 244.019C152.855 244.285 152.564 244.507 152.233 244.685C151.896 244.872 151.543 245.011 151.173 245.102C150.805 245.199 150.442 245.249 150.085 245.25L149.697 243.178C150.089 243.207 150.511 243.158 150.961 243.03C151.404 242.904 151.793 242.681 152.127 242.364C152.443 242.064 152.676 241.729 152.826 241.358C152.968 240.989 153.047 240.591 153.062 240.166C153.079 239.747 153.045 239.312 152.961 238.861L151.884 233.1L154.115 232.684Z" fill="white"/>
<path d="M143.831 230.247L142.062 236.521L141.89 234.722L147.902 246.758L145.565 246.938L141.048 237.634L141.734 237.581L138.873 247.455L136.6 247.631L141.697 230.412L143.831 230.247Z" fill="white"/>
<path d="M118.632 235.802L118.082 241.486C118.038 241.935 118.033 242.399 118.066 242.878C118.091 243.363 118.191 243.819 118.365 244.246C118.533 244.673 118.798 245.03 119.159 245.317C119.513 245.603 119.997 245.776 120.611 245.835C121.01 245.874 121.395 245.843 121.765 245.742C122.134 245.648 122.469 245.467 122.768 245.201C123.061 244.934 123.309 244.569 123.512 244.106C123.708 243.643 123.839 243.068 123.906 242.383L125.247 243.042C125.145 244.091 124.859 244.996 124.389 245.757C123.919 246.526 123.294 247.099 122.516 247.478C121.737 247.856 120.827 247.995 119.785 247.895C118.985 247.817 118.327 247.624 117.809 247.315C117.292 247.006 116.885 246.624 116.591 246.171C116.288 245.724 116.072 245.246 115.941 244.736C115.81 244.226 115.735 243.733 115.717 243.256C115.698 242.779 115.706 242.362 115.74 242.005L116.362 235.583L118.632 235.802ZM126.757 236.587L125.266 252L123.264 251.807L124.069 243.49L123.801 243.464L124.488 236.368L126.757 236.587Z" fill="white"/>
<path d="M109.255 233.907C110.39 234.155 111.318 234.626 112.04 235.319C112.761 236.012 113.252 236.857 113.511 237.853C113.762 238.854 113.759 239.943 113.501 241.12C113.242 242.303 112.783 243.293 112.125 244.088C111.465 244.89 110.664 245.449 109.721 245.764C108.777 246.087 107.749 246.126 106.635 245.883C105.5 245.635 104.572 245.164 103.85 244.471C103.128 243.778 102.637 242.933 102.378 241.937C102.119 240.942 102.117 239.859 102.373 238.689C102.632 237.506 103.092 236.513 103.752 235.71C104.403 234.913 105.202 234.35 106.147 234.021C107.091 233.699 108.127 233.661 109.255 233.907ZM108.802 235.977C107.716 235.74 106.827 235.927 106.136 236.539C105.435 237.157 104.959 238.043 104.706 239.199C104.447 240.382 104.513 241.387 104.905 242.214C105.288 243.046 106.016 243.579 107.087 243.813C107.823 243.974 108.466 243.938 109.016 243.706C109.564 243.481 110.018 243.1 110.378 242.562C110.736 242.031 111 241.38 111.168 240.61C111.429 239.42 111.364 238.407 110.974 237.574C110.584 236.74 109.86 236.208 108.802 235.977Z" fill="white"/>
<path d="M88.3318 229.41L85.5504 236.092C85.2292 236.866 85.1781 237.551 85.3972 238.146C85.6135 238.748 86.0463 239.183 86.6956 239.452C87.0931 239.616 87.496 239.674 87.9041 239.626C88.3029 239.581 88.6805 239.42 89.0368 239.14C89.3839 238.865 89.6699 238.456 89.895 237.913L90.6888 238.835C90.389 239.595 89.9555 240.192 89.3881 240.624C88.8141 241.054 88.1744 241.305 87.4689 241.378C86.7608 241.457 86.0489 241.349 85.3334 241.053C84.1739 240.573 83.4203 239.854 83.0725 238.895C82.7248 237.936 82.7897 236.881 83.2674 235.729L86.2548 228.551L88.3318 229.41ZM101.202 234.736L96.7541 245.464L94.9056 244.699L96.1904 241.6L95.9519 241.501L99.1146 233.872L101.202 234.736ZM94.7618 232.071L91.9968 238.713C91.6729 239.494 91.6177 240.189 91.8312 240.797C92.0382 241.403 92.4729 241.842 93.1355 242.117C93.7914 242.388 94.4148 242.382 95.0056 242.099C95.5898 241.813 96.0329 241.306 96.3349 240.578L97.0652 241.625C96.7741 242.327 96.3458 242.882 95.78 243.292C95.2142 243.702 94.5773 243.947 93.8691 244.026C93.1609 244.106 92.4424 243.994 91.7136 243.693C90.9517 243.378 90.3697 242.947 89.9675 242.4C89.5627 241.86 89.3405 241.244 89.3011 240.553C89.2551 239.859 89.3899 239.131 89.7056 238.37L92.6847 231.211L94.7618 232.071Z" fill="white"/>
<path d="M77.8853 225.285C78.8921 225.85 79.6541 226.565 80.1713 227.43C80.6787 228.298 80.9238 229.246 80.9066 230.272C80.8797 231.3 80.573 232.337 79.9866 233.38C79.3651 234.487 78.6197 235.33 77.7504 235.912C76.8749 236.489 75.9404 236.791 74.9469 236.818C73.9534 236.844 72.9626 236.58 71.9745 236.026C70.9426 235.447 70.1991 234.714 69.744 233.826C69.2855 232.944 69.1255 231.963 69.2642 230.881C69.3966 229.797 69.8409 228.669 70.5972 227.498L72.5577 228.598L72.1574 229.311C71.5098 230.493 71.2468 231.488 71.3686 232.296C71.484 233.1 71.9858 233.751 72.8738 234.249C73.8557 234.8 74.7675 234.905 75.6092 234.563C76.4508 234.221 77.2 233.466 77.8567 232.297C78.4817 231.184 78.7193 230.183 78.5693 229.294C78.4159 228.41 77.8733 227.707 76.9414 227.185C76.3286 226.841 75.7229 226.682 75.1243 226.708C74.516 226.737 73.9411 226.941 73.3995 227.319L71.8188 225.631C72.722 224.946 73.7142 224.578 74.7956 224.527C75.8735 224.482 76.9034 224.735 77.8853 225.285ZM78.8053 232.102L77.9468 233.63L70.7142 229.574L71.5728 228.046L78.8053 232.102Z" fill="white"/>
<path d="M67.1087 218.757C68.2603 219.575 69.0178 220.496 69.3811 221.519C69.7444 222.542 69.6796 223.573 69.1866 224.612L67.1044 223.569C67.3366 222.995 67.344 222.416 67.1268 221.83C66.8995 221.247 66.4702 220.731 65.8389 220.283C65.266 219.876 64.7357 219.675 64.2479 219.68C63.7543 219.682 63.362 219.887 63.0711 220.296C62.9007 220.535 62.822 220.769 62.835 220.998C62.838 221.229 62.973 221.54 63.2398 221.932C63.5067 222.324 63.9407 222.883 64.5418 223.609C65.2047 224.396 65.6907 225.08 65.9996 225.66C66.2986 226.241 66.4361 226.765 66.4121 227.232C66.3781 227.7 66.197 228.165 65.8686 228.627C65.4613 229.199 64.954 229.591 64.3466 229.801C63.7393 230.012 63.0777 230.039 62.3619 229.882C61.6403 229.722 60.9083 229.378 60.1659 228.85C59.441 228.336 58.8761 227.763 58.4712 227.132C58.0662 226.502 57.838 225.852 57.7865 225.182C57.7308 224.518 57.8674 223.881 58.1962 223.27L60.3158 224.261C60.056 224.763 60.0137 225.273 60.1892 225.794C60.3646 226.314 60.7333 226.791 61.2955 227.226C61.8342 227.643 62.3508 227.869 62.8453 227.904C63.3357 227.945 63.7097 227.784 63.9674 227.422C64.117 227.211 64.1795 226.987 64.1548 226.75C64.1242 226.508 63.9667 226.186 63.6824 225.781C63.398 225.377 62.9511 224.818 62.3416 224.104C61.6921 223.335 61.2228 222.659 60.9338 222.075C60.6407 221.498 60.5174 220.966 60.5639 220.48C60.6003 219.996 60.791 219.512 61.136 219.027C61.8009 218.092 62.6645 217.602 63.7267 217.556C64.783 217.506 65.9103 217.906 67.1087 218.757Z" fill="white"/>
<path d="M47.3678 209.794C47.6641 210.086 47.8188 210.43 47.8318 210.825C47.8397 211.215 47.7002 211.555 47.4132 211.846C47.1211 212.142 46.7824 212.287 46.3968 212.279C46.0011 212.272 45.6551 212.123 45.3588 211.831C45.0932 211.569 44.9564 211.243 44.9485 210.853C44.9356 210.468 45.0751 210.128 45.3671 209.832C45.6541 209.541 45.9929 209.396 46.3835 209.399C46.7741 209.401 47.1022 209.533 47.3678 209.794Z" fill="white"/>
<path d="M40.6533 193.969L27.8984 203.31L26.5689 201.498L39.3238 192.157L40.6533 193.969Z" fill="white"/>
<path d="M34.3632 186.21C34.7591 186.909 34.979 187.558 35.0229 188.16C35.0669 188.761 34.9927 189.313 34.8004 189.817C34.5983 190.319 34.3261 190.769 33.9839 191.169C33.6416 191.568 33.2804 191.913 32.9004 192.202C32.5203 192.491 32.1742 192.724 31.8622 192.9L26.2454 196.077L25.1214 194.094L30.0923 191.282C30.4854 191.06 30.8734 190.799 31.2562 190.5C31.6292 190.199 31.9423 189.857 32.1956 189.475C32.4453 189.086 32.5857 188.665 32.6168 188.211C32.6443 187.751 32.5061 187.252 32.2022 186.716C32.0042 186.367 31.7607 186.068 31.4717 185.819C31.1764 185.575 30.8354 185.409 30.4487 185.323C30.0586 185.231 29.6173 185.237 29.1249 185.343C28.629 185.442 28.0815 185.661 27.4824 186L27.2519 184.525C28.1693 184.006 29.0778 183.718 29.9774 183.662C30.8708 183.61 31.6961 183.794 32.4533 184.214C33.2105 184.634 33.8472 185.299 34.3632 186.21ZM32.199 183.023L29.2783 184.676L29.4108 184.909L22.2214 188.976L21.1027 187.002L31.2129 181.283L32.199 183.023Z" fill="white"/>
<path d="M30.3258 181.212L23.2103 179.55L19.6218 185.724L18.5638 183.276L21.0801 179.04L16.2814 177.995L15.2234 175.547L22.1821 177.171L25.8464 170.847L26.9086 173.305L24.2995 177.651L29.2635 178.754L30.3258 181.212Z" fill="white"/>
<path d="M23.8378 164.457C24.0655 165.227 24.1329 165.91 24.0399 166.506C23.9469 167.101 23.7497 167.623 23.4485 168.071C23.1383 168.514 22.7714 168.891 22.3478 169.203C21.9241 169.515 21.4945 169.769 21.0589 169.965C20.6234 170.161 20.2337 170.309 19.8898 170.411L13.7007 172.238L13.054 170.052L18.5314 168.435C18.9646 168.307 19.4015 168.141 19.8419 167.936C20.2734 167.726 20.6556 167.464 20.9886 167.149C21.3196 166.827 21.5515 166.448 21.6844 166.013C21.8153 165.57 21.7933 165.054 21.6184 164.462C21.5045 164.077 21.3349 163.731 21.1094 163.424C20.8771 163.119 20.5823 162.881 20.2251 162.71C19.8659 162.532 19.4345 162.439 18.9311 162.43C18.4256 162.415 17.8428 162.505 17.1826 162.7L17.2915 161.21C18.3024 160.912 19.2523 160.837 20.1412 160.985C21.0233 161.136 21.7857 161.502 22.4284 162.082C23.0711 162.662 23.5409 163.454 23.8378 164.457ZM22.4496 160.864L19.2313 161.815L19.3075 162.073L11.3855 164.412L10.7418 162.236L21.8823 158.947L22.4496 160.864Z" fill="white"/>
<path d="M19.224 155.218L7.84775 157.566L7.44269 155.607L10.2025 155.038L9.90096 155.385C9.50676 155.32 9.13545 155.207 8.78703 155.044C8.43159 154.884 8.12506 154.676 7.86746 154.422C7.59727 154.177 7.36969 153.891 7.18474 153.563C6.99132 153.23 6.8456 152.88 6.74759 152.512C6.64255 152.146 6.58606 151.784 6.57812 151.427L8.64269 151.001C8.62133 151.393 8.67889 151.813 8.8154 152.261C8.95045 152.701 9.18007 153.086 9.50425 153.414C9.81003 153.724 10.1497 153.951 10.5233 154.093C10.8955 154.229 11.2946 154.3 11.7208 154.307C12.14 154.316 12.5743 154.274 13.0237 154.181L18.7644 152.996L19.224 155.218Z" fill="white"/>
<path d="M23.1817 146.254L16.8673 144.63L18.6619 144.417L6.76588 150.703L6.53106 148.37L15.73 143.641L15.799 144.326L5.85893 141.694L5.63058 139.426L22.9674 144.125L23.1817 146.254Z" fill="white"/>
<path d="M16.0718 121.239L10.3775 120.799C9.92709 120.764 9.46293 120.768 8.985 120.81C8.50047 120.845 8.04617 120.953 7.62207 121.136C7.19853 121.312 6.84672 121.583 6.56664 121.95C6.28711 122.31 6.12356 122.797 6.07601 123.411C6.04504 123.812 6.08365 124.196 6.19183 124.564C6.29287 124.931 6.47944 125.262 6.75154 125.556C7.0242 125.843 7.39394 126.084 7.86077 126.278C8.32815 126.465 8.905 126.585 9.59132 126.638L8.95802 127.991C7.9071 127.91 6.99648 127.642 6.22619 127.187C5.44875 126.731 4.86331 126.118 4.46987 125.347C4.07643 124.576 3.92007 123.669 4.00081 122.626C4.06275 121.825 4.24341 121.163 4.54281 120.64C4.84221 120.116 5.2158 119.703 5.6636 119.4C6.10479 119.089 6.57895 118.863 7.08607 118.722C7.59319 118.582 8.08516 118.497 8.56198 118.47C9.0388 118.442 9.45594 118.442 9.8134 118.469L16.2477 118.966L16.0718 121.239ZM15.4422 129.376L0 128.184L0.155114 126.179L8.48748 126.822L8.50822 126.554L15.6181 127.103L15.4422 129.376Z" fill="white"/>
<path d="M16.5479 111.857C16.3214 112.996 15.8682 113.933 15.1884 114.668C14.5086 115.403 13.6731 115.909 12.682 116.188C11.6852 116.458 10.5961 116.475 9.41449 116.241C8.22587 116.005 7.22758 115.565 6.41961 114.923C5.6046 114.279 5.03061 113.489 4.69763 112.553C4.35762 111.616 4.29876 110.588 4.52107 109.47C4.74757 108.331 5.20072 107.394 5.88052 106.659C6.56032 105.924 7.39579 105.418 8.38692 105.139C9.37805 104.861 10.4609 104.838 11.6354 105.072C12.824 105.308 13.8259 105.748 14.6409 106.392C15.4502 107.027 16.0284 107.815 16.3755 108.753C16.7155 109.69 16.773 110.725 16.5479 111.857ZM14.4695 111.445C14.6862 110.355 14.482 109.47 13.8568 108.791C13.226 108.103 12.3303 107.643 11.1698 107.413C9.98124 107.177 8.97723 107.263 8.15782 107.67C7.33277 108.069 6.8133 108.807 6.59938 109.882C6.45258 110.621 6.50043 111.262 6.74295 111.808C6.97844 112.351 7.36851 112.798 7.91316 113.147C8.45078 113.495 9.10641 113.746 9.88007 113.899C11.0757 114.137 12.0868 114.052 12.9132 113.646C13.7396 113.24 14.2584 112.506 14.4695 111.445Z" fill="white"/>
<path d="M22.4926 90.7905L15.7477 88.1635C14.9656 87.8602 14.2793 87.8248 13.689 88.0573C13.092 88.2871 12.6664 88.7295 12.412 89.3844C12.2562 89.7853 12.207 90.1892 12.2644 90.5959C12.3177 90.9933 12.488 91.3669 12.7752 91.7166C13.0583 92.0571 13.474 92.3336 14.0222 92.5462L13.1175 93.3603C12.3502 93.0781 11.7439 92.6585 11.2988 92.1014C10.8562 91.5377 10.5908 90.9042 10.5024 90.201C10.4074 89.4952 10.5 88.7814 10.7804 88.0597C11.2347 86.8903 11.9374 86.1209 12.8886 85.7515C13.8397 85.3822 14.8969 85.4231 16.0602 85.8741L23.3064 88.6955L22.4926 90.7905ZM17.4501 103.771L6.61994 99.5718L7.34419 97.7073L10.4729 98.9205L10.5663 98.68L18.2678 101.666L17.4501 103.771ZM19.9733 97.2759L13.2685 94.6645C12.4797 94.3586 11.7834 94.3193 11.1797 94.5465C10.5787 94.7671 10.1483 95.2115 9.88873 95.8798C9.63174 96.5414 9.65136 97.1641 9.94761 97.748C10.2465 98.3253 10.7636 98.7564 11.4989 99.0416L10.4678 99.7951C9.75913 99.5203 9.19357 99.105 8.77109 98.549C8.3486 97.993 8.08984 97.3621 7.99479 96.6563C7.89974 95.9505 7.99499 95.2301 8.28054 94.495C8.57907 93.7265 8.99726 93.1351 9.5351 92.7208C10.0663 92.304 10.6772 92.068 11.3678 92.0129C12.0611 91.951 12.7921 92.0692 13.5609 92.3673L20.7871 95.1809L19.9733 97.2759Z" fill="white"/>
<path d="M25.3098 80.5157C24.7631 81.5323 24.0615 82.3071 23.2051 82.84C22.3457 83.3633 21.4025 83.6259 20.3757 83.628C19.3458 83.6204 18.3034 83.3334 17.2484 82.7671C16.1302 82.1669 15.2725 81.438 14.6753 80.5804C14.0816 79.7165 13.7624 78.7885 13.7179 77.7963C13.6735 76.8042 13.9195 75.8093 14.4559 74.8116C15.0162 73.7698 15.7365 73.0132 16.6168 72.5419C17.4908 72.0672 18.4699 71.889 19.5542 72.0072C20.6419 72.1191 21.7782 72.5419 22.963 73.2756L21.8986 75.255L21.1784 74.8684C19.9839 74.2435 18.9835 73.9995 18.1773 74.1363C17.3744 74.2668 16.7319 74.7803 16.2498 75.6769C15.7167 76.6682 15.6288 77.5812 15.9859 78.4157C16.3431 79.2502 17.1124 79.9846 18.2938 80.6187C19.4183 81.2223 20.4242 81.4409 21.3116 81.2744C22.1926 81.1045 22.8861 80.5492 23.392 79.6084C23.7248 78.9896 23.8727 78.3814 23.8358 77.7839C23.796 77.1767 23.5818 76.6061 23.1933 76.0721L24.8533 74.4611C25.5554 75.3506 25.9419 76.3351 26.0127 77.4146C26.0772 78.4907 25.8429 79.5244 25.3098 80.5157ZM18.5066 81.5629L16.9619 80.7337L20.8887 73.4314L22.4334 74.2606L18.5066 81.5629Z" fill="white"/>
<path d="M31.896 69.7662C31.0985 70.9319 30.1911 71.7056 29.174 72.0875C28.1569 72.4694 27.1239 72.4237 26.0751 71.9504L27.0816 69.8509C27.6599 70.0723 28.2398 70.069 28.8215 69.8412C29.4012 69.6033 29.9097 69.1649 30.3469 68.5259C30.7437 67.946 30.935 67.4125 30.9208 66.9253C30.9107 66.4322 30.6984 66.0442 30.2839 65.7611C30.0412 65.5953 29.8053 65.521 29.5763 65.5382C29.3455 65.5455 29.0364 65.6861 28.6493 65.9599C28.2621 66.2337 27.7108 66.6776 26.9953 67.2916C26.2194 67.9685 25.5441 68.4666 24.9694 68.786C24.3928 69.0954 23.8708 69.2424 23.4035 69.2271C22.9343 69.2018 22.4658 69.0295 21.998 68.71C21.4178 68.3137 21.0169 67.8141 20.7952 67.2112C20.5735 66.6083 20.5345 65.9479 20.6782 65.23C20.826 64.5061 21.157 63.7685 21.6711 63.0171C22.1731 62.2834 22.7359 61.7084 23.3595 61.2922C23.9832 60.8759 24.6296 60.6359 25.2988 60.5721C25.9621 60.5042 26.6022 60.6288 27.2192 60.946L26.266 63.0819C25.7596 62.8316 25.2477 62.7988 24.7303 62.9837C24.2128 63.1686 23.7419 63.5458 23.3174 64.1154C22.9091 64.6613 22.6921 65.1816 22.6664 65.6763C22.6347 66.1669 22.8025 66.5376 23.1696 66.7883C23.3827 66.9339 23.6078 66.9922 23.8449 66.9631C24.086 66.9281 24.4063 66.7648 24.8056 66.4732C25.2049 66.1816 25.7564 65.7248 26.46 65.1028C27.2178 64.4396 27.886 63.9583 28.4645 63.6589C29.037 63.3554 29.5668 63.2223 30.0537 63.2597C30.5388 63.2872 31.0271 63.4687 31.5185 63.8044C32.4659 64.4514 32.9721 65.305 33.0372 66.3653C33.1063 67.4196 32.726 68.5533 31.896 69.7662Z" fill="white"/>
<path d="M39.3922 50.1256C39.1067 50.4279 38.7664 50.5899 38.3712 50.6115C37.981 50.6279 37.6372 50.496 37.3398 50.2157C37.0372 49.9304 36.8854 49.5952 36.8844 49.2099C36.883 48.8145 37.0251 48.4657 37.3106 48.1633C37.5666 47.8923 37.8897 47.7485 38.2799 47.7321C38.6649 47.7108 39.0087 47.8428 39.3113 48.128C39.6087 48.4083 39.7605 48.7436 39.7668 49.1337C39.7731 49.5239 39.6482 49.8545 39.3922 50.1256Z" fill="white"/>
<path d="M55.3811 41.8624L45.7527 29.3243L47.5367 27.9568L57.165 40.495L55.3811 41.8624Z" fill="white"/>
<path d="M63.0797 35.6016C62.3881 36.0098 61.742 36.2413 61.1413 36.2961C60.5407 36.3509 59.9864 36.2868 59.4783 36.1038C58.9728 35.911 58.517 35.6472 58.1109 35.3125C57.7047 34.9778 57.3535 34.6232 57.0571 34.2487C56.7607 33.8742 56.5212 33.5327 56.3388 33.2241L53.0548 27.67L55.0184 26.5111L57.9247 31.4265C58.1546 31.8153 58.4226 32.1982 58.7289 32.5752C59.0376 32.9424 59.3855 33.249 59.7726 33.4951C60.1658 33.7375 60.5899 33.8702 61.0449 33.893C61.506 33.9122 62.0021 33.7651 62.5331 33.4517C62.8789 33.2476 63.1734 32.9989 63.4164 32.7056C63.6558 32.4061 63.815 32.0624 63.8938 31.6746C63.9789 31.2831 63.964 30.8423 63.8492 30.3523C63.7405 29.8587 63.5111 29.3156 63.1608 28.7232L64.6331 28.4661C65.1694 29.3733 65.474 30.2758 65.5467 31.1735C65.6158 32.0652 65.4472 32.8931 65.0411 33.6572C64.635 34.4214 63.9812 35.0695 63.0797 35.6016ZM66.2275 33.3816L64.5198 30.4934L64.2883 30.6301L60.0848 23.5209L62.0391 22.3674L67.9503 32.3648L66.2275 33.3816Z" fill="white"/>
<path d="M69.6853 30.1599L71.2128 23.0194L64.968 19.5468L67.397 18.4448L71.6825 20.8815L72.6371 16.0675L75.0661 14.9655L73.5733 21.9485L79.9695 25.4942L77.5306 26.6006L73.133 24.0731L72.1241 29.0535L69.6853 30.1599Z" fill="white"/>
<path d="M84.9043 23.6196C84.1385 23.8615 83.4569 23.9415 82.8594 23.8596C82.2619 23.7778 81.7363 23.5904 81.2827 23.2977C80.8337 22.996 80.4491 22.6363 80.1289 22.2187C79.8087 21.8011 79.5465 21.3765 79.3422 20.9448C79.1378 20.5132 78.9816 20.1265 78.8735 19.7847L76.9266 13.6334L79.1008 12.9465L80.8238 18.3904C80.9601 18.821 81.1349 19.2545 81.3482 19.6908C81.5662 20.1182 81.836 20.4953 82.1575 20.8222C82.486 21.147 82.8692 21.3718 83.3073 21.4965C83.7522 21.6191 84.2687 21.5875 84.8567 21.4017C85.2396 21.2807 85.5825 21.1047 85.8854 20.8737C86.1861 20.6358 86.4187 20.3368 86.583 19.9767C86.7541 19.6144 86.839 19.1816 86.8376 18.6783C86.8431 18.1728 86.742 17.592 86.5343 16.9359L88.0266 17.017C88.3446 18.0217 88.4378 18.9697 88.3062 19.8608C88.1724 20.7451 87.8215 21.5138 87.2536 22.1669C86.6856 22.82 85.9025 23.3042 84.9043 23.6196ZM88.4715 22.1655L87.4592 18.9668L87.2028 19.0478L84.7107 11.1742L86.8747 10.4905L90.3791 21.5628L88.4715 22.1655Z" fill="white"/>
<path d="M94.2617 20.6317L91.65 9.31557L93.5995 8.86644L94.233 11.6117L93.8783 11.3182C93.9342 10.9228 94.0393 10.5491 94.1936 10.1972C94.3463 9.83836 94.5467 9.52733 94.7951 9.26413C95.0332 8.98857 95.314 8.75466 95.6376 8.56241C95.9666 8.36156 96.3138 8.208 96.6793 8.10173C97.0432 7.98847 97.4035 7.92384 97.7604 7.90783L98.2344 9.96149C97.8415 9.94902 97.4228 10.0161 96.9783 10.1626C96.5408 10.3075 96.1616 10.5457 95.8407 10.8771C95.5375 11.1897 95.319 11.5343 95.1852 11.9109C95.0583 12.2859 94.9962 12.6865 94.9989 13.1125C95 13.5316 95.0521 13.9647 95.1553 14.4118L96.4732 20.1222L94.2617 20.6317Z" fill="white"/>
<path d="M104.787 23.0813L106.289 16.7387L106.537 18.5285L100.02 6.75773L102.348 6.47851L107.255 15.5831L106.572 15.6651L109.012 5.67927L111.276 5.40773L106.912 22.8264L104.787 23.0813Z" fill="white"/>
<path d="M128.279 15.9024L128.587 10.2008C128.612 9.74981 128.597 9.28597 128.544 8.80927C128.499 8.32579 128.379 7.87424 128.187 7.45461C128.001 7.03536 127.722 6.69003 127.349 6.4186C126.983 6.14755 126.492 5.9954 125.876 5.96213C125.475 5.94047 125.092 5.98797 124.727 6.10464C124.362 6.21415 124.035 6.4083 123.747 6.68709C123.466 6.96627 123.234 7.34141 123.051 7.81251C122.875 8.284 122.768 8.86334 122.731 9.55054L121.363 8.94897C121.42 7.8967 121.667 6.98033 122.104 6.19987C122.542 5.41225 123.141 4.81288 123.903 4.40175C124.665 3.99061 125.569 3.81328 126.614 3.86976C127.416 3.91308 128.082 4.0783 128.612 4.36539C129.143 4.65249 129.565 5.0163 129.878 5.45683C130.199 5.89058 130.436 6.35925 130.588 6.86285C130.741 7.36644 130.836 7.8562 130.875 8.33214C130.914 8.80807 130.924 9.22499 130.904 9.58291L130.556 16.0254L128.279 15.9024ZM120.127 15.462L120.964 0L122.972 0.108503L122.521 8.45155L122.789 8.46605L122.404 15.585L120.127 15.462Z" fill="white"/>
<path d="M137.575 16.5244C136.432 16.3201 135.486 15.8853 134.738 15.22C133.991 14.5548 133.468 13.7295 133.171 12.7443C132.882 11.7532 132.844 10.665 133.056 9.47943C133.27 8.28686 133.69 7.28057 134.318 6.46057C134.947 5.63352 135.726 5.04454 136.656 4.69363C137.587 4.33566 138.613 4.25696 139.736 4.45753C140.879 4.66189 141.825 5.09669 142.572 5.76194C143.32 6.42719 143.843 7.25244 144.14 8.23768C144.437 9.22293 144.48 10.3048 144.269 11.4832C144.055 12.6758 143.634 13.6856 143.005 14.5127C142.385 15.334 141.608 15.9271 140.676 16.2921C139.745 16.6501 138.712 16.7275 137.575 16.5244ZM137.948 14.4392C139.043 14.6347 139.924 14.4135 140.591 13.7754C141.268 13.1316 141.71 12.2275 141.918 11.0632C142.132 9.87061 142.027 8.86876 141.604 8.05765C141.189 7.24074 140.442 6.73578 139.362 6.54278C138.621 6.41033 137.98 6.47057 137.44 6.72351C136.9 6.9694 136.461 7.3679 136.122 7.91903C135.784 8.46311 135.546 9.12326 135.407 9.8995C135.192 11.0991 135.295 12.108 135.717 12.9262C136.139 13.7444 136.883 14.2487 137.948 14.4392Z" fill="white"/>
<path d="M160.226 20.8464L162.729 14.0562C163.018 13.2687 163.041 12.5823 162.798 11.9969C162.557 11.4047 162.107 10.9877 161.447 10.746C161.043 10.598 160.638 10.5566 160.232 10.6217C159.836 10.6825 159.465 10.8598 159.12 11.1535C158.785 11.4429 158.516 11.8636 158.314 12.4154L157.482 11.5269C157.751 10.7548 158.159 10.1409 158.708 9.68549C159.264 9.2325 159.893 8.95514 160.595 8.85342C161.299 8.74496 162.015 8.82393 162.742 9.09031C163.92 9.52196 164.703 10.2095 165.09 11.1529C165.477 12.0964 165.455 13.1536 165.025 14.3247L162.337 21.6197L160.226 20.8464ZM147.148 16.0552L151.149 5.1525L153.027 5.84067L151.872 8.99034L152.114 9.07913L149.268 16.8322L147.148 16.0552ZM153.692 18.4527L156.181 11.7028C156.472 10.9086 156.499 10.2121 156.26 9.61318C156.028 9.01674 155.576 8.59519 154.903 8.34854C154.236 8.10435 153.613 8.13585 153.035 8.44304C152.463 8.75269 152.041 9.27767 151.769 10.018L150.997 9.00191C151.258 8.28852 151.663 7.71543 152.212 7.28263C152.76 6.84982 153.387 6.5792 154.091 6.47074C154.795 6.36229 155.518 6.44372 156.258 6.71504C157.032 6.99869 157.632 7.4053 158.056 7.93486C158.483 8.45769 158.73 9.06366 158.798 9.75277C158.873 10.4443 158.768 11.1771 158.484 11.9511L155.803 19.2259L153.692 18.4527Z" fill="white"/>
<path d="M168.986 25.4274C167.957 24.9041 167.166 24.2207 166.614 23.377C166.072 22.5302 165.789 21.5938 165.764 20.5679C165.749 19.5389 166.013 18.491 166.557 17.4242C167.133 16.2935 167.843 15.4202 168.688 14.8043C169.539 14.1916 170.461 13.8519 171.452 13.7851C172.444 13.7183 173.445 13.9417 174.455 14.4552C175.509 14.9915 176.282 15.6941 176.773 16.563C177.267 17.4255 177.466 18.3997 177.372 19.4857C177.284 20.5749 176.886 21.7196 176.178 22.9199L174.174 21.901L174.545 21.1727C175.144 19.9653 175.366 18.9604 175.212 18.1579C175.064 17.3588 174.536 16.7284 173.628 16.2669C172.625 15.7566 171.71 15.6893 170.882 16.065C170.055 16.4406 169.338 17.2257 168.729 18.4203C168.15 19.5573 167.953 20.5672 168.139 21.45C168.328 22.3264 168.899 23.0067 169.851 23.491C170.478 23.8095 171.089 23.9436 171.686 23.8933C172.293 23.8399 172.859 23.613 173.385 23.2128L175.033 24.8351C174.158 25.5566 173.182 25.9648 172.103 26.0599C171.028 26.1485 169.989 25.9377 168.986 25.4274ZM167.789 18.6541L168.585 17.0922L175.976 20.851L175.181 22.4129L167.789 18.6541Z" fill="white"/>
<path d="M181.245 30.5409C180.062 29.7701 179.268 28.8809 178.863 27.8733C178.459 26.8657 178.482 25.8328 178.933 24.7746L181.056 25.7334C180.847 26.316 180.863 26.8953 181.103 27.4712C181.354 28.0451 181.804 28.5433 182.453 28.9659C183.041 29.3493 183.579 29.5286 184.066 29.5036C184.56 29.4825 184.943 29.2619 185.218 28.8416C185.378 28.5954 185.447 28.3581 185.425 28.1297C185.413 27.8993 185.265 27.5937 184.983 27.213C184.701 26.8323 184.244 26.2914 183.615 25.5903C182.921 24.8303 182.407 24.1667 182.075 23.5997C181.753 23.0306 181.595 22.5124 181.6 22.0452C181.615 21.576 181.777 21.1041 182.087 20.6298C182.471 20.0414 182.962 19.6297 183.56 19.3949C184.159 19.16 184.819 19.1064 185.54 19.234C186.268 19.3656 187.013 19.6798 187.776 20.1767C188.521 20.6619 189.108 21.2114 189.538 21.8251C189.968 22.4388 190.223 23.0792 190.301 23.7463C190.383 24.4074 190.273 25.0496 189.969 25.673L187.811 24.7682C188.05 24.2569 188.072 23.7448 187.876 23.232C187.679 22.7192 187.292 22.2571 186.713 21.8457C186.158 21.45 185.632 21.2447 185.137 21.23C184.645 21.2093 184.278 21.3851 184.035 21.7574C183.894 21.9736 183.841 22.1997 183.875 22.4359C183.915 22.676 184.085 22.9923 184.386 23.3847C184.686 23.7772 185.155 24.3179 185.793 25.007C186.473 25.7493 186.969 26.4061 187.281 26.9773C187.597 27.5425 187.742 28.0687 187.715 28.556C187.698 29.0412 187.527 29.533 187.202 30.0314C186.575 30.9921 185.732 31.5167 184.673 31.6053C183.619 31.6979 182.477 31.343 181.245 30.5409Z" fill="white"/>
<path d="M200.663 38.0425C200.356 37.7628 200.187 37.4258 200.159 37.0314C200.135 36.6419 200.261 36.2961 200.536 35.9939C200.816 35.6864 201.149 35.5287 201.534 35.5206C201.93 35.512 202.282 35.6476 202.589 35.9273C202.865 36.1781 203.015 36.4982 203.039 36.8877C203.067 37.2719 202.941 37.6178 202.661 37.9253C202.386 38.2274 202.053 38.3852 201.663 38.3986C201.272 38.412 200.939 38.2933 200.663 38.0425Z" fill="white"/>
<path d="M208.998 54.216L221.332 44.326L222.74 46.0783L210.406 55.9683L208.998 54.216Z" fill="white"/>
<path d="M215.302 61.9119C214.878 61.2299 214.632 60.5895 214.564 59.9906C214.496 59.3918 214.547 58.8366 214.719 58.3251C214.901 57.8159 215.154 57.3548 215.48 56.9418C215.806 56.5287 216.153 56.1701 216.521 55.8658C216.889 55.5616 217.225 55.3149 217.53 55.126L223.014 51.7243L224.217 53.6606L219.364 56.6711C218.98 56.9093 218.603 57.1854 218.233 57.4995C217.872 57.8159 217.573 58.1702 217.336 58.5622C217.102 58.9603 216.979 59.3869 216.966 59.8419C216.957 60.303 217.115 60.7954 217.441 61.3191C217.653 61.6601 217.908 61.9488 218.207 62.1852C218.512 62.4179 218.859 62.5693 219.249 62.6397C219.643 62.7161 220.083 62.6916 220.571 62.5663C221.063 62.447 221.601 62.2059 222.186 61.8431L222.476 63.3083C221.58 63.8639 220.684 64.1878 219.787 64.28C218.897 64.3684 218.065 64.2181 217.291 63.829C216.518 63.44 215.854 62.8009 215.302 61.9119ZM217.593 65.0082L220.445 63.2393L220.303 63.011L227.322 58.6568L228.52 60.584L218.649 66.7071L217.593 65.0082Z" fill="white"/>
<path d="M220.588 67.0729L227.766 68.4421L231.099 62.1264L232.256 64.5291L229.915 68.8644L234.753 69.7123L235.91 72.115L228.891 70.777L225.489 77.2455L224.327 74.8331L226.756 70.3838L221.75 69.4852L220.588 67.0729Z" fill="white"/>
<path d="M227.204 82.2863C226.944 81.5265 226.848 80.8471 226.917 80.2482C226.985 79.6493 227.16 79.12 227.443 78.6601C227.734 78.2047 228.085 77.8124 228.495 77.4831C228.906 77.1538 229.324 76.8823 229.751 76.6685C230.178 76.4547 230.562 76.29 230.901 76.1743L237.009 74.0916L237.746 76.2489L232.34 78.0921C231.913 78.2379 231.483 78.4222 231.052 78.6451C230.629 78.8725 230.258 79.1505 229.939 79.4791C229.621 79.8145 229.405 80.2025 229.291 80.6431C229.178 81.0904 229.222 81.6058 229.421 82.1892C229.551 82.5692 229.735 82.9079 229.973 83.2054C230.217 83.5007 230.522 83.7264 230.886 83.8825C231.252 84.0454 231.687 84.1206 232.19 84.108C232.696 84.1022 233.275 83.9882 233.926 83.7661L233.879 85.259C232.882 85.5992 231.936 85.7135 231.041 85.6019C230.154 85.4879 229.377 85.1545 228.711 84.6015C228.044 84.0485 227.542 83.2768 227.204 82.2863ZM228.74 85.8185L231.916 84.7355L231.829 84.4811L239.647 81.8153L240.381 83.9624L229.386 87.7113L228.74 85.8185Z" fill="white"/>
<path d="M231.567 91.6032L242.835 88.7807L243.322 90.7207L240.588 91.4054L240.875 91.0454C241.272 91.0938 241.647 91.1919 242.002 91.3395C242.364 91.4853 242.679 91.6799 242.947 91.9231C243.227 92.1559 243.467 92.4322 243.665 92.752C243.873 93.077 244.033 93.4212 244.146 93.7845C244.267 94.146 244.338 94.505 244.361 94.8614L242.316 95.3736C242.321 94.9807 242.246 94.5635 242.091 94.122C241.937 93.6874 241.692 93.3129 241.354 92.9984C241.036 92.7013 240.687 92.4893 240.307 92.3626C239.93 92.2429 239.528 92.1883 239.102 92.199C238.683 92.2079 238.251 92.2681 237.806 92.3796L232.12 93.8039L231.567 91.6032Z" fill="white"/>
<path d="M229.116 102.238L235.488 103.619L233.703 103.9L245.349 97.1624L245.673 99.4841L236.663 104.562L236.568 103.881L246.601 106.13L246.917 108.387L229.412 104.357L229.116 102.238Z" fill="white"/>
</svg>
