<svg width="32" height="32" viewBox="0 0 32 32" fill="none" xmlns="http://www.w3.org/2000/svg">
<path d="M28.25 22.6249V12.503C28.25 10.7436 26.6606 9.39613 24.9744 9.72425C24.815 9.7555 24.6569 9.78925 24.5 9.82675V17.9374C24.5 23.3958 20.3051 27.7487 15.125 28.2086V29.1874C15.125 30.738 16.3869 31.9999 17.9375 31.9999H24.0613C23.1681 31.0043 22.625 29.6893 22.625 28.2499C22.625 25.148 25.1481 22.6249 28.25 22.6249Z" fill="#3F85D7"/>
<path d="M28.25 24.5C26.1825 24.5 24.5 26.1825 24.5 28.25C24.5 30.3175 26.1825 32 28.25 32C30.3175 32 32 30.3175 32 28.25C32 26.1825 30.3175 24.5 28.25 24.5ZM28.25 29.1875C27.7325 29.1875 27.3125 28.7675 27.3125 28.25C27.3125 27.7325 27.7325 27.3125 28.25 27.3125C28.7675 27.3125 29.1875 27.7325 29.1875 28.25C29.1875 28.7675 28.7675 29.1875 28.25 29.1875Z" fill="#3F85D7"/>
<path d="M13.5938 22.625H15.125V26.3237C19.2763 25.8717 22.625 22.3497 22.625 17.9375V10.4338C18.4469 12.1744 15.5144 16.1525 15.1613 20.75H13.5938C12.8184 20.75 12.1875 20.1191 12.1875 19.3438V3.28125C12.1875 1.472 10.7155 0 8.90625 0C7.097 0 5.625 1.472 5.625 3.28125V26.375H4.6875C2.1025 26.375 0 28.4775 0 31.0625C0 31.58 0.42 32 0.9375 32H12.1875C12.705 32 13.125 31.58 13.125 31.0625C13.125 28.4775 11.0225 26.375 8.4375 26.375H7.5V3.28125C7.5 2.50588 8.13087 1.875 8.90625 1.875C9.68163 1.875 10.3125 2.50588 10.3125 3.28125V19.3438C10.3125 21.153 11.7845 22.625 13.5938 22.625Z" fill="#3F85D7"/>
</svg>
