<svg width="20" height="20" viewBox="0 0 20 20" fill="none" xmlns="http://www.w3.org/2000/svg">
<path d="M17.0711 2.92895C15.1823 1.0402 12.6711 0 10 0C7.32891 0 4.81766 1.0402 2.92891 2.92895C1.04016 4.8177 0 7.32891 0 10C0 12.6711 1.04016 15.1823 2.92891 17.0711C4.81766 18.9598 7.32891 20 10 20C12.6711 20 15.1823 18.9598 17.0711 17.0711C18.9598 15.1823 20 12.6711 20 10C20 7.32891 18.9598 4.81766 17.0711 2.92895ZM10 18.0372C5.56824 18.0372 1.96281 14.4317 1.96281 10C1.96281 9.99273 1.96305 9.98555 1.96309 9.97836C1.96309 9.97652 1.96281 9.97477 1.96281 9.97293C1.96281 9.96984 1.9632 9.96688 1.96328 9.96383C1.98277 5.5852 5.52133 2.02281 9.89078 1.96422C9.89992 1.96379 9.90898 1.96285 9.91824 1.96285C9.92379 1.96285 9.92918 1.96352 9.93469 1.96367C9.95648 1.96352 9.9782 1.96285 10 1.96285C14.4318 1.96285 18.0372 5.56832 18.0372 10C18.0372 14.4318 14.4318 18.0372 10 18.0372Z" fill="#3F85D7"/>
<path d="M16.1053 10.4827C15.7785 10.4827 15.5136 10.2177 15.5136 9.89094C15.5136 9.56414 15.7785 9.29922 16.1053 9.29922H16.8185C16.4835 6.015 13.82 3.40965 10.5102 3.16504V3.78594C10.5102 4.11273 10.2453 4.37766 9.91852 4.37766C9.59172 4.37766 9.3268 4.11273 9.3268 3.78594V3.17918C6.06602 3.49871 3.46863 6.11285 3.17477 9.38098H3.81352C4.14031 9.38098 4.40523 9.6459 4.40523 9.9727C4.40523 10.2995 4.14031 10.5644 3.81352 10.5644H3.16992C3.44199 13.8852 6.09145 16.5427 9.40859 16.8278V16.0777C9.40859 15.7509 9.67351 15.4859 10.0003 15.4859C10.3271 15.4859 10.592 15.7509 10.592 16.0777V16.8278C13.9363 16.5404 16.6019 13.8414 16.8368 10.4827H16.1053ZM12.3956 8.44133L10.4187 10.4182C10.3078 10.5292 10.1573 10.5916 10.0004 10.5916C9.84344 10.5916 9.69289 10.5292 9.58195 10.4182L6.14082 6.97711C5.90973 6.74605 5.90973 6.37141 6.14082 6.14031C6.37188 5.90922 6.74652 5.90922 6.97762 6.14031L10.0004 9.16305L11.5589 7.60453C11.79 7.37344 12.1646 7.37344 12.3957 7.60453C12.6267 7.83559 12.6267 8.21027 12.3956 8.44133Z" fill="#3F85D7"/>
</svg>
