<svg width="20" height="20" viewBox="0 0 20 20" fill="none" xmlns="http://www.w3.org/2000/svg">
<path d="M5.85938 15.3125C6.1824 15.3125 6.44531 15.5754 6.44531 15.8984C6.44531 16.2221 6.70761 16.4844 7.03125 16.4844C7.35489 16.4844 7.61719 16.2221 7.61719 15.8984C7.61719 14.9292 6.82861 14.1406 5.85938 14.1406C4.89014 14.1406 4.10156 14.9292 4.10156 15.8984V18.2422C4.10156 19.2114 4.89014 20 5.85938 20C6.82861 20 7.61719 19.2114 7.61719 18.2422C7.61719 17.9185 7.35489 17.6562 7.03125 17.6562C6.70761 17.6562 6.44531 17.9185 6.44531 18.2422C6.44531 18.5652 6.1824 18.8281 5.85938 18.8281C5.53635 18.8281 5.27344 18.5652 5.27344 18.2422V15.8984C5.27344 15.5754 5.53635 15.3125 5.85938 15.3125Z" fill="#3F85D7"/>
<path d="M10.1562 14.1406C9.18701 14.1406 8.39844 14.9292 8.39844 15.8984V18.2422C8.39844 19.2114 9.18701 20 10.1562 20C11.1255 20 11.9141 19.2114 11.9141 18.2422V15.8984C11.9141 14.9292 11.1255 14.1406 10.1562 14.1406ZM10.7422 18.2422C10.7422 18.5652 10.4793 18.8281 10.1562 18.8281C9.83322 18.8281 9.57031 18.5652 9.57031 18.2422V15.8984C9.57031 15.5754 9.83322 15.3125 10.1562 15.3125C10.4793 15.3125 10.7422 15.5754 10.7422 15.8984V18.2422Z" fill="#3F85D7"/>
<path d="M15.8205 17.2656C15.8205 16.4041 15.1195 15.7031 14.2578 15.7031C13.3963 15.7031 12.6953 16.4041 12.6953 17.2656V17.4609C12.6953 17.7846 12.9576 18.0469 13.2812 18.0469C13.6049 18.0469 13.8672 17.7846 13.8672 17.4609V17.2656C13.8672 17.0502 14.0424 16.875 14.2578 16.875C14.4733 16.875 14.6486 17.0502 14.6486 17.2656C14.6486 17.4225 14.565 17.5699 14.4305 17.6506L13.3148 18.32C12.9326 18.5492 12.6953 18.9685 12.6953 19.4141C12.6953 19.7377 12.9576 20 13.2812 20H15.2344C15.558 20 15.8203 19.7377 15.8203 19.4141C15.8203 19.0904 15.558 18.8281 15.2344 18.8281H14.7456L15.0334 18.6554C15.5188 18.3643 15.8205 17.8317 15.8205 17.2656Z" fill="#3F85D7"/>
<path d="M16.6824 5.4985C16.7586 5.16983 16.7969 4.83353 16.7969 4.49219C16.7969 2.01523 14.7816 0 12.3047 0C11.4375 0 10.596 0.248413 9.87091 0.718231C9.35425 1.05301 8.91418 1.48788 8.57468 1.99539C8.04276 1.71066 7.45193 1.5625 6.83594 1.5625C4.78973 1.5625 3.125 3.22723 3.125 5.27344C3.125 5.35309 3.12775 5.4332 3.13339 5.51361C1.36047 5.79193 0 7.32986 0 9.17969C0 11.2259 1.66473 12.8906 3.71094 12.8906H16.2109C18.2571 12.8906 19.9219 11.2259 19.9219 9.17969C19.9219 7.29324 18.5068 5.73105 16.6824 5.4985Z" fill="#3F85D7"/>
</svg>
