<svg width="20" height="20" viewBox="0 0 20 20" fill="none" xmlns="http://www.w3.org/2000/svg">
<g clip-path="url(#clip0_1086_24233)">
<path d="M15.2837 11.2672C15.2083 11.1336 15.0814 11.1191 15.0303 11.1191C14.9792 11.1191 14.8523 11.1336 14.777 11.2672L10.0991 19.5661C10.0251 19.6974 10.076 19.8124 10.1013 19.8557C10.1267 19.899 10.2018 19.9998 10.3524 19.9998H19.7082C19.8589 19.9998 19.934 19.899 19.9594 19.8557C19.9847 19.8124 20.0356 19.6974 19.9616 19.5662L15.2837 11.2672ZM14.9473 18.9848C14.6189 18.9848 14.3756 18.7163 14.3614 18.3988C14.3472 18.0824 14.6408 17.8129 14.9473 17.8129C15.2758 17.8129 15.5191 18.0814 15.5333 18.3988C15.5474 18.7152 15.2538 18.9848 14.9473 18.9848ZM15.5333 16.9547H14.3614V14.0657H15.5333V16.9547Z" fill="#3F85D7"/>
<path d="M10.8386 3.72375L13.3409 2.91133C13.9577 2.71102 14.3722 2.1407 14.3722 1.49211C14.3722 0.669375 13.7028 0 12.8801 0H11.0821C9.03797 0 7.375 1.66297 7.375 3.70707V11.9785H10.8386V3.72375H10.8386Z" fill="#3F85D7"/>
<path d="M2.55469 14.5756C2.55469 15.3223 3.13406 15.9359 3.86684 15.9914H10.7798L12.3784 13.1553H3.97508C3.19187 13.1552 2.55469 13.7924 2.55469 14.5756Z" fill="#3F85D7"/>
<path d="M9.07785 18.9908L10.1077 17.1637L1.42031 17.1592C0.637187 17.1592 0 17.7964 0 18.5796C0 19.3627 0.637187 19.9999 1.42031 19.9999H8.91695C8.84699 19.661 8.90047 19.3055 9.07785 18.9908Z" fill="#3F85D7"/>
<path d="M15.4746 2.10305H18.2408L19.172 3.03422L20.0006 2.20559L19.3121 1.51711L20.0006 0.828633L19.172 0L18.2408 0.931172H15.4831C15.5227 1.11359 15.5441 1.30277 15.5441 1.49688C15.5441 1.70449 15.52 1.90746 15.4746 2.10305Z" fill="#3F85D7"/>
</g>
<defs>
<clipPath id="clip0_1086_24233">
<rect width="20" height="20" fill="white"/>
</clipPath>
</defs>
</svg>
