<svg width="50" height="50" viewBox="0 0 50 50" fill="none" xmlns="http://www.w3.org/2000/svg">
<path d="M18.2279 19.7916C18.2279 18.9302 18.9289 18.2291 19.7904 18.2291C20.6518 18.2291 21.3529 18.9302 21.3529 19.7916C21.3529 20.6531 20.6518 21.3541 19.7904 21.3541C18.9289 21.3541 18.2279 20.6531 18.2279 19.7916ZM30.207 28.6458C29.3456 28.6458 28.6445 29.3468 28.6445 30.2083C28.6445 31.0697 29.3456 31.7708 30.207 31.7708C31.0685 31.7708 31.7695 31.0697 31.7695 30.2083C31.7695 29.3468 31.0685 28.6458 30.207 28.6458ZM44.2987 29.4052C44.219 29.7567 44.6742 30.6734 44.9753 31.2802C45.556 32.4499 46.2143 33.7755 45.6492 34.9458C45.0763 36.1328 43.6148 36.4458 42.3247 36.7213C41.6721 36.8614 40.6862 37.0723 40.4732 37.3385C40.257 37.6098 40.2695 38.6229 40.2779 39.2932C40.2945 40.6067 40.3128 42.0963 39.2888 42.9145C38.2685 43.7291 36.8237 43.3817 35.5497 43.076C34.894 42.9187 33.9055 42.6796 33.5872 42.8343C33.2862 42.9791 32.8638 43.8869 32.5841 44.4874C32.0253 45.689 31.3919 47.05 30.0971 47.3442C29.9341 47.3812 29.7737 47.3984 29.6159 47.3984C28.5591 47.3984 27.6148 46.626 26.6977 45.876C26.1372 45.4171 25.369 44.789 24.9982 44.789C24.6279 44.789 23.8596 45.4171 23.2992 45.876C22.2945 46.6973 21.1549 47.6312 19.9003 47.3437C18.6055 47.0494 17.9716 45.688 17.4122 44.4874C17.1331 43.8869 16.7102 42.9791 16.4096 42.8338C16.0909 42.6781 15.1013 42.9182 14.4466 43.0755C13.1721 43.3822 11.7284 43.7281 10.7076 42.914C9.68307 42.0958 9.7013 40.6057 9.71849 39.2916C9.72682 38.6213 9.73932 37.6088 9.5237 37.338C9.31068 37.0713 8.32474 36.8604 7.67214 36.7208C6.38151 36.4447 4.92005 36.1317 4.34714 34.9442C3.78255 33.775 4.44141 32.4489 5.02161 31.2791C5.32318 30.6729 5.77839 29.7557 5.6987 29.4041C5.62682 29.089 4.84245 28.4802 4.3237 28.077C3.27318 27.2624 2.08203 26.3374 2.08203 24.9999C2.08203 23.6624 3.27318 22.738 4.32422 21.9223C4.84297 21.5197 5.62734 20.9109 5.69922 20.5953C5.77891 20.2437 5.3237 19.3265 5.02266 18.7197C4.44193 17.5499 3.78359 16.2244 4.3487 15.0541C4.92161 13.8671 6.38307 13.5541 7.67318 13.2781C8.32578 13.1385 9.31172 12.9276 9.52422 12.6614C9.74089 12.3901 9.72839 11.377 9.72005 10.7067C9.70339 9.39266 9.68516 7.90307 10.7091 7.08484C11.7294 6.27026 13.1742 6.61713 14.4482 6.92338C15.1039 7.08068 16.0924 7.3187 16.4107 7.16557C16.7117 7.02026 17.1341 6.11297 17.4138 5.51193C17.9727 4.31088 18.606 2.94995 19.9008 2.65568C21.1539 2.3713 22.2956 3.30151 23.2997 4.12338C23.8607 4.58224 24.6289 5.21036 24.9992 5.21036C25.3695 5.21036 26.1378 4.58224 26.6982 4.12391C27.7034 3.30151 28.8425 2.36922 30.0977 2.65568C31.3919 2.94995 32.0258 4.3114 32.5852 5.51245C32.8648 6.11297 33.2872 7.02078 33.5883 7.16609C33.9076 7.31974 34.8956 7.0812 35.5503 6.92391C36.8247 6.61766 38.269 6.27078 39.2898 7.08536C40.3143 7.90359 40.2961 9.39318 40.2789 10.7078C40.2706 11.3781 40.2581 12.3911 40.4737 12.6614C40.6867 12.9276 41.6727 13.139 42.3253 13.2786C43.6159 13.5546 45.0773 13.8671 45.6503 15.0546C46.2148 16.2244 45.556 17.5505 44.9758 18.7203C44.6742 19.327 44.219 20.2437 44.2987 20.5953C44.3706 20.9109 45.1549 21.5197 45.6737 21.9223C46.7242 22.738 47.9154 23.6624 47.9154 24.9999C47.9154 26.3374 46.7242 27.2619 45.6732 28.0776C45.1544 28.4807 44.3701 29.089 44.2987 29.4052ZM19.7904 23.4374C21.8003 23.4374 23.4362 21.802 23.4362 19.7916C23.4362 17.7812 21.8003 16.1458 19.7904 16.1458C17.7805 16.1458 16.1445 17.7812 16.1445 19.7916C16.1445 21.802 17.7805 23.4374 19.7904 23.4374ZM33.0268 18.4447C33.4336 18.038 33.4336 17.3786 33.0268 16.9718C32.6201 16.5651 31.9607 16.5651 31.5539 16.9718L16.9706 31.5552C16.5638 31.9619 16.5638 32.6213 16.9706 33.0281C17.1742 33.2317 17.4404 33.3333 17.707 33.3333C17.9737 33.3333 18.2398 33.2317 18.4435 33.0281L33.0268 18.4447ZM33.8529 30.2083C33.8529 28.1984 32.2169 26.5624 30.207 26.5624C28.1971 26.5624 26.5612 28.1984 26.5612 30.2083C26.5612 32.2182 28.1971 33.8541 30.207 33.8541C32.2169 33.8541 33.8529 32.2182 33.8529 30.2083Z" fill="#3F85D7"/>
</svg>
