<svg width="56" height="25" viewBox="0 0 56 25" fill="none" xmlns="http://www.w3.org/2000/svg">
<g clip-path="url(#clip0_1034_19431)">
<path d="M7.06831 13.8208C6.58339 14.2369 5.95348 14.4185 4.95629 14.4185H4.5421V9.4462H4.95629C5.95348 9.4462 6.5586 9.61578 7.06831 10.0543C7.60205 10.506 7.92315 11.2059 7.92315 11.9262C7.92315 12.648 7.60205 13.3693 7.06831 13.8208V13.8208ZM5.26544 8.17222H3V15.6914H5.25349C6.4518 15.6914 7.31704 15.4227 8.07659 14.8234C8.97912 14.1135 9.51286 13.0436 9.51286 11.937C9.51286 9.71803 7.76832 8.17222 5.26544 8.17222" fill="#040F1C"/>
<path d="M10.2227 15.6914H11.766V8.17222H10.2227V15.6914Z" fill="#040F1C"/>
<path d="M15.5401 11.0583C14.614 10.7327 14.342 10.5178 14.342 10.1116C14.342 9.63805 14.8265 9.27817 15.4917 9.27817C15.9542 9.27817 16.3342 9.45868 16.7363 9.88714L17.5438 8.88224C16.8802 8.33062 16.0863 8.0486 15.2188 8.0486C13.8189 8.0486 12.7511 8.9725 12.7511 10.2031C12.7511 11.2391 13.2483 11.7694 14.6978 12.2652C15.3019 12.4677 15.6094 12.6026 15.7646 12.6934C16.073 12.8848 16.2274 13.1556 16.2274 13.4714C16.2274 14.0807 15.7177 14.5321 15.0291 14.5321C14.293 14.5321 13.7 14.1822 13.3447 13.5292L12.3477 14.4415C13.0587 15.4334 13.9127 15.873 15.087 15.873C16.6908 15.873 17.8159 14.8596 17.8159 13.404C17.8159 12.2093 17.2957 11.6685 15.5401 11.0583" fill="#040F1C"/>
<path d="M18.3008 11.9374C18.3008 14.1475 20.1269 15.8613 22.477 15.8613C23.1414 15.8613 23.7103 15.7372 24.412 15.4231V13.6966C23.795 14.2835 23.2485 14.5201 22.5487 14.5201C20.9945 14.5201 19.8913 13.4492 19.8913 11.9266C19.8913 10.4829 21.0293 9.34409 22.477 9.34409C23.2131 9.34409 23.7703 9.59372 24.412 10.1901V8.46448C23.7346 8.13786 23.1775 8.0026 22.5134 8.0026C20.1753 8.0026 18.3008 9.75107 18.3008 11.9374Z" fill="#040F1C"/>
<path d="M36.6514 13.2233L34.5415 8.17266H32.8555L36.213 15.8848H37.0435L40.4617 8.17266H38.7887L36.6514 13.2233Z" fill="#040F1C"/>
<path d="M41.1562 15.6914H45.533V14.4185H42.6983V12.3888H45.4285V11.1152H42.6983V9.4462H45.533V8.17222H41.1562V15.6914" fill="#040F1C"/>
<path d="M48.5509 11.634H48.1001V9.35659H48.5753C49.5364 9.35659 50.0589 9.73927 50.0589 10.4711C50.0589 11.227 49.5364 11.634 48.5509 11.634V11.634ZM51.6472 10.3921C51.6472 8.9844 50.6268 8.17222 48.847 8.17222H46.5586V15.6914H48.1001V12.6708H48.3013L50.4375 15.6914H52.3355L49.8447 12.5237C51.0071 12.2991 51.6472 11.5434 51.6472 10.3921Z" fill="#040F1C"/>
<path d="M52.3386 8.5452H52.3106V8.37248H52.3403C52.4225 8.37248 52.465 8.40057 52.465 8.45747C52.465 8.51596 52.4219 8.5452 52.3386 8.5452ZM52.6311 8.45504C52.6311 8.32325 52.5356 8.25119 52.3678 8.25119H52.1445V8.91211H52.3106V8.65577L52.5052 8.91211H52.7079L52.4792 8.63956C52.5769 8.61452 52.6311 8.54679 52.6311 8.45504" fill="#040F1C"/>
<path d="M52.4004 9.05327C52.1346 9.05327 51.9173 8.84309 51.9173 8.58086C51.9173 8.31768 52.1318 8.10761 52.4004 8.10761C52.6648 8.10761 52.8804 8.3225 52.8804 8.58086C52.8804 8.84088 52.6648 9.05327 52.4004 9.05327ZM52.4027 8.00388C52.0649 8.00388 51.7969 8.26003 51.7969 8.58002C51.7969 8.89981 52.0681 9.15625 52.4027 9.15625C52.7317 9.15625 53.0012 8.89706 53.0012 8.58002C53.0012 8.26455 52.7317 8.00388 52.4027 8.00388Z" fill="#040F1C"/>
<ellipse cx="28.8184" cy="11.9332" rx="4.13869" ry="3.93318" fill="url(#paint0_linear_1034_19431)"/>
</g>
<defs>
<linearGradient id="paint0_linear_1034_19431" x1="28.8184" y1="8" x2="28.8184" y2="15.8664" gradientUnits="userSpaceOnUse">
<stop stop-color="#CB3521"/>
<stop offset="1" stop-color="#F59014"/>
</linearGradient>
<clipPath id="clip0_1034_19431">
<rect width="50" height="8" fill="white" transform="translate(3 8)"/>
</clipPath>
</defs>
</svg>
