<svg width="20" height="20" viewBox="0 0 20 20" fill="none" xmlns="http://www.w3.org/2000/svg">
<path d="M14.0142 3.22559H2.52949C2.11255 3.22559 1.77344 3.5647 1.77344 3.98163V19.2437C1.77344 19.6607 2.11255 19.9998 2.52949 19.9998H14.0142C14.4307 19.9998 14.7698 19.6607 14.7698 19.2437V3.98163C14.7698 3.5647 14.4307 3.22559 14.0142 3.22559ZM11.4509 13.8707H5.32182C4.96537 13.8707 4.67666 13.582 4.67666 13.2256C4.67666 12.8691 4.96537 12.5804 5.32182 12.5804H11.4509C11.8073 12.5804 12.096 12.8691 12.096 13.2256C12.096 13.582 11.8073 13.8707 11.4509 13.8707ZM11.4509 11.2901H5.32182C4.96537 11.2901 4.67666 11.0014 4.67666 10.6449C4.67666 10.2885 4.96537 9.99978 5.32182 9.99978H11.4509C11.8073 9.99978 12.096 10.2885 12.096 10.6449C12.096 11.0014 11.8073 11.2901 11.4509 11.2901ZM11.4509 8.70946H5.32182C4.96537 8.70946 4.67666 8.42075 4.67666 8.0643C4.67666 7.70784 4.96537 7.41913 5.32182 7.41913H11.4509C11.8073 7.41913 12.096 7.70784 12.096 8.0643C12.096 8.42075 11.8073 8.70946 11.4509 8.70946Z" fill="#3F85D7"/>
<path d="M18.2242 1.93548V16.129C18.2242 17.1032 17.4403 18.0645 16.0593 18.0645V3.98185C16.0593 2.85323 15.1415 1.93548 14.0133 1.93548H3.9375C3.9375 0.868145 4.85726 0 5.9875 0H16.1742C17.3044 0 18.2242 0.868145 18.2242 1.93548Z" fill="#3F85D7"/>
</svg>
