<svg width="19" height="19" viewBox="0 0 19 19" fill="none" xmlns="http://www.w3.org/2000/svg">
<g clip-path="url(#clip0_2620_36054)">
<path d="M15.8333 1.58301C16.2703 1.58301 16.625 1.93767 16.625 2.37467V5.34897L9.50079 12.474L9.49604 15.8291L12.8575 15.8338L16.625 12.0663V16.6247C16.625 17.0617 16.2703 17.4163 15.8333 17.4163H3.16667C2.72967 17.4163 2.375 17.0617 2.375 16.6247V2.37467C2.375 1.93767 2.72967 1.58301 3.16667 1.58301H15.8333ZM17.2409 6.97267L18.3603 8.09209L12.2027 14.2497L11.0817 14.2481L11.0833 13.1303L17.2409 6.97267ZM9.5 9.49967H5.54167V11.083H9.5V9.49967ZM11.875 6.33301H5.54167V7.91634H11.875V6.33301Z" fill="#676D75"/>
</g>
<defs>
<clipPath id="clip0_2620_36054">
<rect width="19" height="19" fill="white"/>
</clipPath>
</defs>
</svg>
