<svg width="20" height="20" viewBox="0 0 20 20" fill="none" xmlns="http://www.w3.org/2000/svg">
<g clip-path="url(#clip0_1076_26706)">
<path d="M10.0013 18.3337C5.3988 18.3337 1.66797 14.6028 1.66797 10.0003C1.66797 5.39783 5.3988 1.66699 10.0013 1.66699C14.6038 1.66699 18.3346 5.39783 18.3346 10.0003C18.3346 14.6028 14.6038 18.3337 10.0013 18.3337ZM10.0013 16.667C11.7694 16.667 13.4651 15.9646 14.7153 14.7144C15.9656 13.4641 16.668 11.7684 16.668 10.0003C16.668 8.23222 15.9656 6.53652 14.7153 5.28628C13.4651 4.03604 11.7694 3.33366 10.0013 3.33366C8.23319 3.33366 6.5375 4.03604 5.28726 5.28628C4.03701 6.53652 3.33464 8.23222 3.33464 10.0003C3.33464 11.7684 4.03701 13.4641 5.28726 14.7144C6.5375 15.9646 8.23319 16.667 10.0013 16.667ZM5.83464 10.8337H7.5013C7.5013 11.4967 7.76469 12.1326 8.23353 12.6014C8.70238 13.0703 9.33826 13.3337 10.0013 13.3337C10.6643 13.3337 11.3002 13.0703 11.7691 12.6014C12.2379 12.1326 12.5013 11.4967 12.5013 10.8337H14.168C14.168 11.9387 13.729 12.9985 12.9476 13.7799C12.1662 14.5613 11.1064 15.0003 10.0013 15.0003C8.89623 15.0003 7.83643 14.5613 7.05502 13.7799C6.27362 12.9985 5.83464 11.9387 5.83464 10.8337ZM6.66797 9.16699C6.33645 9.16699 6.01851 9.0353 5.78408 8.80088C5.54966 8.56646 5.41797 8.24851 5.41797 7.91699C5.41797 7.58547 5.54966 7.26753 5.78408 7.03311C6.01851 6.79869 6.33645 6.66699 6.66797 6.66699C6.99949 6.66699 7.31743 6.79869 7.55185 7.03311C7.78627 7.26753 7.91797 7.58547 7.91797 7.91699C7.91797 8.24851 7.78627 8.56646 7.55185 8.80088C7.31743 9.0353 6.99949 9.16699 6.66797 9.16699ZM13.3346 9.16699C13.0031 9.16699 12.6852 9.0353 12.4508 8.80088C12.2163 8.56646 12.0846 8.24851 12.0846 7.91699C12.0846 7.58547 12.2163 7.26753 12.4508 7.03311C12.6852 6.79869 13.0031 6.66699 13.3346 6.66699C13.6662 6.66699 13.9841 6.79869 14.2185 7.03311C14.4529 7.26753 14.5846 7.58547 14.5846 7.91699C14.5846 8.24851 14.4529 8.56646 14.2185 8.80088C13.9841 9.0353 13.6662 9.16699 13.3346 9.16699Z" fill="#B3BBC2"/>
</g>
<defs>
<clipPath id="clip0_1076_26706">
<rect width="20" height="20" fill="white"/>
</clipPath>
</defs>
</svg>
