<svg width="16" height="17" viewBox="0 0 16 17" fill="none" xmlns="http://www.w3.org/2000/svg">
<path d="M4.1135 12.5003C4.25123 12.11 4.50666 11.772 4.84456 11.5329C5.18247 11.2938 5.58622 11.1654 6.00016 11.1654C6.4141 11.1654 6.81786 11.2938 7.15576 11.5329C7.49367 11.772 7.74909 12.11 7.88683 12.5003H14.6668V13.8337H7.88683C7.74909 14.224 7.49367 14.562 7.15576 14.8011C6.81786 15.0402 6.4141 15.1686 6.00016 15.1686C5.58622 15.1686 5.18247 15.0402 4.84456 14.8011C4.50666 14.562 4.25123 14.224 4.1135 13.8337H1.3335V12.5003H4.1135ZM8.1135 7.83367C8.25123 7.44331 8.50666 7.10529 8.84456 6.86619C9.18247 6.62709 9.58622 6.4987 10.0002 6.4987C10.4141 6.4987 10.8179 6.62709 11.1558 6.86619C11.4937 7.10529 11.7491 7.44331 11.8868 7.83367H14.6668V9.167H11.8868C11.7491 9.55735 11.4937 9.89538 11.1558 10.1345C10.8179 10.3736 10.4141 10.502 10.0002 10.502C9.58622 10.502 9.18247 10.3736 8.84456 10.1345C8.50666 9.89538 8.25123 9.55735 8.1135 9.167H1.3335V7.83367H8.1135ZM4.1135 3.167C4.25123 2.77664 4.50666 2.43862 4.84456 2.19952C5.18247 1.96043 5.58622 1.83203 6.00016 1.83203C6.4141 1.83203 6.81786 1.96043 7.15576 2.19952C7.49367 2.43862 7.74909 2.77664 7.88683 3.167H14.6668V4.50033H7.88683C7.74909 4.89069 7.49367 5.22871 7.15576 5.46781C6.81786 5.7069 6.4141 5.8353 6.00016 5.8353C5.58622 5.8353 5.18247 5.7069 4.84456 5.46781C4.50666 5.22871 4.25123 4.89069 4.1135 4.50033H1.3335V3.167H4.1135ZM6.00016 4.50033C6.17697 4.50033 6.34654 4.43009 6.47157 4.30507C6.59659 4.18005 6.66683 4.01048 6.66683 3.83366C6.66683 3.65685 6.59659 3.48728 6.47157 3.36226C6.34654 3.23724 6.17697 3.167 6.00016 3.167C5.82335 3.167 5.65378 3.23724 5.52876 3.36226C5.40373 3.48728 5.3335 3.65685 5.3335 3.83366C5.3335 4.01048 5.40373 4.18005 5.52876 4.30507C5.65378 4.43009 5.82335 4.50033 6.00016 4.50033ZM10.0002 9.167C10.177 9.167 10.3465 9.09676 10.4716 8.97174C10.5966 8.84671 10.6668 8.67714 10.6668 8.50033C10.6668 8.32352 10.5966 8.15395 10.4716 8.02893C10.3465 7.9039 10.177 7.83367 10.0002 7.83367C9.82335 7.83367 9.65378 7.9039 9.52876 8.02893C9.40373 8.15395 9.3335 8.32352 9.3335 8.50033C9.3335 8.67714 9.40373 8.84671 9.52876 8.97174C9.65378 9.09676 9.82335 9.167 10.0002 9.167ZM6.00016 13.8337C6.17697 13.8337 6.34654 13.7634 6.47157 13.6384C6.59659 13.5134 6.66683 13.3438 6.66683 13.167C6.66683 12.9902 6.59659 12.8206 6.47157 12.6956C6.34654 12.5706 6.17697 12.5003 6.00016 12.5003C5.82335 12.5003 5.65378 12.5706 5.52876 12.6956C5.40373 12.8206 5.3335 12.9902 5.3335 13.167C5.3335 13.3438 5.40373 13.5134 5.52876 13.6384C5.65378 13.7634 5.82335 13.8337 6.00016 13.8337Z" fill="#040F1C"/>
</svg>
