<svg width="50" height="50" viewBox="0 0 50 50" fill="none" xmlns="http://www.w3.org/2000/svg">
<path d="M31.2402 18.2266C32.0323 18.2266 32.6758 17.5831 32.6758 16.791V11.0488C32.6758 10.2568 32.0323 9.61328 31.2402 9.61328C30.4482 9.61328 29.8047 10.2568 29.8047 11.0488V16.791C29.8047 17.5831 30.4482 18.2266 31.2402 18.2266Z" fill="#3F85D7"/>
<path d="M11.1465 9.61328H9.71094V12.4844H11.1465C11.9385 12.4844 12.582 11.8409 12.582 11.0488C12.582 10.2568 11.9385 9.61328 11.1465 9.61328Z" fill="#3F85D7"/>
<path d="M21.1934 9.61328C20.4013 9.61328 19.7578 10.2568 19.7578 11.0488V16.791C19.7578 17.5831 20.4013 18.2266 21.1934 18.2266C21.9854 18.2266 22.6289 17.5831 22.6289 16.791V11.0488C22.6289 10.2568 21.9854 9.61328 21.1934 9.61328Z" fill="#3F85D7"/>
<path d="M11.1465 15.3555H9.71094V18.2266H11.1465C11.9385 18.2266 12.582 17.5831 12.582 16.791C12.582 15.999 11.9385 15.3555 11.1465 15.3555Z" fill="#3F85D7"/>
<path d="M30.6103 30.4469L33.4155 27.6417L29.207 26.2384L30.6103 30.4469Z" fill="#3F85D7"/>
<path d="M45.6934 1H5.30664C2.93186 1 1 2.93186 1 5.30664V37.0801C1 39.4549 2.93186 41.3867 5.30664 41.3867H45.6934C48.0681 41.3867 50 39.4549 50 37.0801V5.30664C50 2.93186 48.0681 1 45.6934 1ZM26.9355 11.0488C26.9355 8.67405 28.8674 6.74219 31.2422 6.74219C33.617 6.74219 35.5488 8.67405 35.5488 11.0488V16.791C35.5488 19.1658 33.617 21.0977 31.2422 21.0977C28.8674 21.0977 26.9355 19.1658 26.9355 16.791V11.0488ZM15.4512 16.791C15.4512 19.1658 13.5193 21.0977 11.1445 21.0977H6.83789C6.83789 19.9956 6.83789 6.02365 6.83789 6.74219H11.1445C13.5193 6.74219 15.4512 8.67405 15.4512 11.0488C15.4512 12.1558 15.0197 13.1562 14.3311 13.9199C15.0197 14.6836 15.4512 15.684 15.4512 16.791ZM21.1934 21.0977C18.8186 21.0977 16.8867 19.1658 16.8867 16.791V11.0488C16.8867 8.67405 18.8186 6.74219 21.1934 6.74219C23.5681 6.74219 25.5 8.67405 25.5 11.0488V16.791C25.5 19.1658 23.5681 21.0977 21.1934 21.0977ZM37.0867 36.1498L33.0261 32.0893L29.3524 35.7629L24.6659 21.6991L38.7297 26.3856L35.0561 30.0593L39.1166 34.1199L37.0867 36.1498ZM46.0883 20.3042L43.52 21.5883L40.4037 15.3555H39.8555V21.0977H36.9844C36.9844 19.9956 36.9844 6.02365 36.9844 6.74219H39.8555V12.4844H40.4037L43.52 6.25152L46.0883 7.53566L42.8961 13.9199L46.0883 20.3042Z" fill="#3F85D7"/>
<path d="M30.0691 44.2578H20.927C20.3324 45.9252 18.7538 47.1289 16.8848 47.1289H12.5781V50C13.0599 50 39.4965 50 38.418 50V47.1289H34.1113C32.2422 47.1289 30.6637 45.9252 30.0691 44.2578Z" fill="#3F85D7"/>
</svg>
