<svg width="20" height="20" viewBox="0 0 20 20" fill="none" xmlns="http://www.w3.org/2000/svg">
<path d="M10.75 10.6252C11.0888 12.7283 13.7238 13.6502 13.75 15.6252C13.7663 16.857 13.125 18.1345 11.875 18.7502C11.6669 17.6477 11.1981 15.5389 10 15.0002C8.90625 15.5133 7.9425 17.5702 7.5 18.7502C6.74625 18.0852 6.25 16.8214 6.25 15.6252C6.25 13.4752 8.17188 10.5995 10.75 10.6252Z" fill="#3F85D7"/>
<path d="M16.5592 13.4379C17.4461 14.7922 16.3211 16.9085 14.9705 16.8754C17.1717 14.3885 12.9317 13.1904 15.6061 10.626C15.1692 12.4354 16.2898 13.0266 16.5592 13.4379Z" fill="#3F85D7"/>
<path d="M5.02962 16.875C3.67899 16.9081 2.55399 14.7919 3.44087 13.4375C3.71024 13.0262 4.83087 12.435 4.39399 10.625C7.06837 13.19 2.82837 14.3881 5.02962 16.875Z" fill="#3F85D7"/>
<path d="M14.375 5.625H16.875L16.25 8.75H3.75L3.125 5.625H5.625V7.1875C5.625 7.36 5.765 7.5 5.9375 7.5H6.5625C6.735 7.5 6.875 7.36 6.875 7.1875V5.625H9.375V7.1875C9.375 7.36 9.515 7.5 9.6875 7.5H10.3125C10.485 7.5 10.625 7.36 10.625 7.1875V5.625H13.125V7.1875C13.125 7.36 13.265 7.5 13.4375 7.5H14.0625C14.235 7.5 14.375 7.36 14.375 7.1875V5.625Z" fill="#3F85D7"/>
<path d="M1.25 1.25V4.375C1.25 4.72 1.53 5 1.875 5H18.125C18.47 5 18.75 4.72 18.75 4.375V1.25H1.25ZM10 4.0625C9.4825 4.0625 9.0625 3.6425 9.0625 3.125C9.0625 2.6075 9.4825 2.1875 10 2.1875C10.5175 2.1875 10.9375 2.6075 10.9375 3.125C10.9375 3.6425 10.5175 4.0625 10 4.0625Z" fill="#3F85D7"/>
</svg>
