<svg width="51" height="51" viewBox="0 0 51 51" fill="none" xmlns="http://www.w3.org/2000/svg">
<g clip-path="url(#clip0_3781_179)">
<path d="M38.3159 35.3111L47.4172 44.4104L44.4104 47.4172L35.3111 38.3159C31.9254 41.03 27.7142 42.5062 23.375 42.5C12.818 42.5 4.25 33.932 4.25 23.375C4.25 12.818 12.818 4.25 23.375 4.25C33.932 4.25 42.5 12.818 42.5 23.375C42.5062 27.7143 41.03 31.9254 38.3159 35.3111ZM34.0531 33.7344C36.75 30.961 38.2561 27.2434 38.25 23.375C38.25 15.1555 31.5924 8.5 23.375 8.5C15.1555 8.5 8.5 15.1555 8.5 23.375C8.5 31.5924 15.1555 38.25 23.375 38.25C27.2434 38.2561 30.961 36.75 33.7344 34.0531L34.0531 33.7344Z" fill="white"/>
<rect x="22.1406" y="18" width="1.71429" height="12" fill="white"/>
<rect x="17" y="24.8572" width="1.71429" height="12" transform="rotate(-90 17 24.8572)" fill="white"/>
</g>
<defs>
<clipPath id="clip0_3781_179">
<rect width="51" height="51" fill="white"/>
</clipPath>
</defs>
</svg>
