<svg width="42" height="16" viewBox="0 0 42 16" fill="none" xmlns="http://www.w3.org/2000/svg">
<g clip-path="url(#clip0_1417_37857)">
<path d="M19.8635 7.817V12.5071H18.3125V0.924606H22.4261C22.9171 0.914767 23.4053 0.998308 23.8625 1.17041C24.3197 1.34251 24.7368 1.59976 25.0898 1.92732C25.4464 2.23499 25.7301 2.61232 25.9221 3.03394C26.114 3.45556 26.2096 3.91171 26.2025 4.37173C26.2127 4.8342 26.1186 5.29333 25.9265 5.71764C25.7344 6.14195 25.449 6.5214 25.0898 6.83C24.3705 7.488 23.4826 7.81669 22.4261 7.81608H19.8635V7.817ZM19.8635 2.35059V6.39379H22.4646C22.7498 6.4019 23.0336 6.35283 23.2978 6.24971C23.5621 6.14659 23.801 5.99169 23.9993 5.79494C24.1965 5.61097 24.3533 5.39093 24.4604 5.14783C24.5674 4.90472 24.6226 4.64349 24.6226 4.37958C24.6226 4.11567 24.5674 3.85444 24.4604 3.61134C24.3533 3.36824 24.1965 3.1482 23.9993 2.96423C23.8035 2.76332 23.5654 2.60464 23.3008 2.49868C23.0362 2.39273 22.7512 2.34194 22.4646 2.34966H19.8635V2.35059Z" fill="#5F6368"/>
<path d="M29.7801 4.32324C30.9265 4.32324 31.8314 4.61713 32.4949 5.20489C33.1583 5.79266 33.4897 6.59853 33.4891 7.6225V12.5067H32.0055V11.4069H31.9381C31.2958 12.3126 30.4416 12.7655 29.3755 12.7655C28.4654 12.7655 27.7041 12.5067 27.0914 11.9892C26.7973 11.7516 26.5622 11.4541 26.4032 11.1184C26.2442 10.7827 26.1653 10.4171 26.1723 10.0484C26.1723 9.22838 26.4953 8.57623 27.1414 8.09197C27.7875 7.60771 28.6501 7.36496 29.7291 7.36373C30.65 7.36373 31.4085 7.52546 32.0045 7.84892V7.50883C32.0063 7.25747 31.9497 7.00889 31.8389 6.78111C31.7281 6.55333 31.5658 6.35206 31.3639 6.1919C30.9537 5.83691 30.4192 5.64321 29.8668 5.64941C29.0004 5.64941 28.3148 5.99998 27.81 6.70111L26.444 5.87583C27.1954 4.84077 28.3074 4.32324 29.7801 4.32324ZM27.7734 10.0808C27.7724 10.2701 27.8185 10.457 27.908 10.6258C27.9975 10.7946 28.1277 10.9404 28.2879 11.0511C28.6309 11.31 29.0567 11.4471 29.493 11.4393C30.1475 11.4382 30.7749 11.1883 31.2377 10.7443C31.7515 10.2804 32.0084 9.73605 32.0084 9.11132C31.5248 8.74166 30.8504 8.55682 29.9853 8.55682C29.3553 8.55682 28.8299 8.70253 28.4092 8.99395C27.9844 9.28968 27.7734 9.64918 27.7734 10.0808Z" fill="#5F6368"/>
<path d="M42.006 4.58203L36.8269 16H35.2258L37.1477 12.0049L33.7422 4.58203H35.4281L37.8895 10.2749H37.9232L40.3172 4.58203H42.006Z" fill="#5F6368"/>
<path d="M13.5982 6.80512C13.5988 6.35168 13.5589 5.89903 13.4788 5.45215H6.9375V8.01485H10.684C10.6074 8.42415 10.4451 8.81432 10.207 9.16184C9.96894 9.50936 9.65996 9.80703 9.29872 10.0369V11.7004H11.5347C12.8439 10.5424 13.5982 8.82996 13.5982 6.80512Z" fill="#4285F4"/>
<path d="M6.93954 13.3082C8.81137 13.3082 10.3874 12.7186 11.5367 11.702L9.30076 10.0385C8.67842 10.4433 7.8769 10.6743 6.93954 10.6743C5.13033 10.6743 3.59472 9.50435 3.0456 7.92773H0.742188V9.64205C1.3195 10.7441 2.20475 11.6705 3.2991 12.3179C4.39346 12.9653 5.65384 13.3081 6.93954 13.3082Z" fill="#34A853"/>
<path d="M3.042 7.92732C2.7517 7.10116 2.7517 6.20649 3.042 5.38033V3.66602H0.738588C0.25293 4.59309 0 5.61627 0 6.65383C0 7.69139 0.25293 8.71457 0.738588 9.64164L3.042 7.92732Z" fill="#FBBC04"/>
<path d="M6.93954 2.6343C7.92872 2.61879 8.88452 2.97732 9.60037 3.63239L11.5801 1.73324C10.3247 0.602136 8.66168 -0.0188591 6.93954 0.000436562C5.65384 0.000492774 4.39346 0.343351 3.2991 0.990733C2.20475 1.63812 1.3195 2.56454 0.742188 3.66658L3.0456 5.3809C3.59472 3.80428 5.13033 2.6343 6.93954 2.6343Z" fill="#EA4335"/>
</g>
<defs>
<clipPath id="clip0_1417_37857">
<rect width="42" height="16" fill="white"/>
</clipPath>
</defs>
</svg>
