<svg width="29" height="29" viewBox="0 0 29 29" fill="none" xmlns="http://www.w3.org/2000/svg">
<g clip-path="url(#clip0_1765_34)">
<path d="M25.2102 7.48302C27.2722 7.48302 28.9438 5.80789 28.9438 3.74151C28.9438 1.67513 27.2722 0 25.2102 0C23.1482 0 21.4766 1.67513 21.4766 3.74151C21.4766 5.80789 23.1482 7.48302 25.2102 7.48302Z" fill="#3F85D7"/>
<path d="M20.3555 20.9775H22.7573V23.3844H20.3555V20.9775Z" fill="#3F85D7"/>
<path d="M15.9834 7.88705C16.4493 7.47289 17.0488 7.24486 17.6715 7.24486C18.2942 7.24486 18.8938 7.47295 19.3596 7.88705L20.0291 8.48211V6.35599C20.0291 2.85611 17.1877 0.00878906 13.6951 0.00878906C10.6359 0.00878906 8.07627 2.19359 7.48828 5.08792C8.44998 6.55169 10.1354 9.41289 10.8562 12.4449L15.9834 7.88705Z" fill="#3F85D7"/>
<path d="M28.152 27.2899H26.9809V19.2047L27.5328 19.6953C27.6942 19.8388 27.8951 19.9094 28.0952 19.9093C28.3293 19.9093 28.5623 19.8127 28.7298 19.6235C29.0406 19.2724 29.0086 18.7353 28.6582 18.4239L26.1724 16.2142V11.8104C26.1724 11.3411 25.7927 10.9607 25.3244 10.9607C24.8561 10.9607 24.4765 11.3411 24.4765 11.8104V14.7066L18.2351 9.15831C17.914 8.87289 17.4308 8.87289 17.1097 9.15831L6.68671 18.4239C6.33639 18.7353 6.30433 19.2723 6.61506 19.6234C6.92585 19.9745 7.46184 20.0066 7.8121 19.6952L8.36401 19.2045V27.2898H5.62736V23.5826C5.98958 23.4717 6.33814 23.2895 6.66819 23.0398V21.5412C6.16131 21.4218 5.69788 21.1482 5.34648 20.7513C4.4157 19.6998 4.51205 18.0854 5.56126 17.1526L9.38858 13.7503C8.74435 9.63176 5.60952 5.33761 5.46146 5.13676C5.30156 4.91994 5.04849 4.79199 4.77945 4.79199C4.51041 4.79199 4.25734 4.91994 4.09744 5.13676C3.93233 5.36066 0.0545449 10.6719 0.0545449 15.1556C0.0545449 17.344 0.490055 19.4148 1.28087 20.9865C1.97846 22.3728 2.8996 23.2671 3.93148 23.5827V27.2899H0.847967C0.379662 27.2899 0 27.6703 0 28.1396C0 28.6089 0.379662 28.9893 0.847967 29.0002H26.9809H28.1521C28.6204 28.9893 29.0001 28.6089 29.0001 28.1396C29.0001 27.6703 28.6203 27.2899 28.152 27.2899ZM18.6605 20.128C18.6605 19.6587 19.0401 19.2783 19.5084 19.2783H23.6062C24.0745 19.2783 24.4542 19.6587 24.4542 20.128V24.2344C24.4542 24.7037 24.0745 25.0841 23.6062 25.0841H19.5084C19.0401 25.0841 18.6605 24.7037 18.6605 24.2344V20.128ZM14.0171 27.2899V20.9777H12.3212V27.2899H10.6253V20.128C10.6253 19.6587 11.005 19.2783 11.4733 19.2783H14.8651C15.3334 19.2783 15.7131 19.6587 15.7131 20.128V27.2899H14.0171Z" fill="#3F85D7"/>
</g>
<defs>
<clipPath id="clip0_1765_34">
<rect width="29" height="29" fill="white"/>
</clipPath>
</defs>
</svg>
