<svg width="14" height="14" viewBox="0 0 14 14" fill="none" xmlns="http://www.w3.org/2000/svg">
<g clip-path="url(#clip0_2140_1348)">
<path d="M4.52724 7.04958C6.47266 7.04958 8.05057 5.47167 8.05057 3.52625C8.05057 1.58083 6.47266 0 4.52724 0C2.58182 0 1.00391 1.57792 1.00391 3.52333C1.00391 5.46875 2.58182 7.04958 4.52724 7.04958ZM3.29641 4.9175C3.32849 4.80083 3.36057 4.68708 3.39557 4.57042C3.43641 4.43625 3.47432 4.42167 3.59682 4.48583C3.80682 4.59375 4.02849 4.655 4.26182 4.68417C4.41057 4.70167 4.55932 4.68708 4.69641 4.62583C4.95599 4.51208 4.99682 4.21167 4.77807 4.03083C4.70224 3.96958 4.61766 3.92292 4.53016 3.885C4.30266 3.78583 4.06641 3.71 3.85057 3.58167C3.50349 3.37458 3.28182 3.08583 3.30807 2.66292C3.33724 2.18458 3.60849 1.88417 4.04599 1.72667C4.22682 1.65958 4.22682 1.6625 4.22974 1.47292C4.22974 1.40875 4.22974 1.34458 4.22974 1.28042C4.23266 1.1375 4.25891 1.11417 4.39891 1.10833C4.44266 1.10833 4.48641 1.10833 4.53016 1.10833C4.83349 1.10833 4.83349 1.10833 4.83349 1.41167C4.83349 1.62458 4.83349 1.6275 5.04641 1.65958C5.20974 1.68583 5.36432 1.7325 5.51599 1.79958C5.60057 1.8375 5.62974 1.89583 5.60641 1.98333C5.56849 2.11458 5.53349 2.24583 5.48974 2.37417C5.44891 2.49667 5.41099 2.51417 5.29432 2.45875C5.05807 2.345 4.81016 2.29542 4.54766 2.31C4.47766 2.31292 4.41349 2.32167 4.34932 2.35083C4.12474 2.45 4.08682 2.69792 4.27932 2.8525C4.37557 2.93125 4.48641 2.98667 4.60307 3.03333C4.80141 3.115 5.00266 3.19667 5.19516 3.30167C5.79891 3.63708 5.96224 4.39542 5.53641 4.91167C5.38182 5.09833 5.18349 5.22375 4.94724 5.28792C4.84516 5.31708 4.79849 5.36958 4.80432 5.47458C4.81016 5.57958 4.80432 5.68167 4.80432 5.78667C4.80432 5.88 4.75766 5.92958 4.66432 5.9325C4.55349 5.93542 4.43974 5.93542 4.32891 5.9325C4.22974 5.92958 4.18307 5.87417 4.18307 5.77792C4.18307 5.70208 4.18307 5.62625 4.18016 5.55042C4.17724 5.38417 4.17432 5.37542 4.01099 5.34917C3.80391 5.31708 3.60266 5.27042 3.41307 5.17708C3.27016 5.11 3.25557 5.07208 3.29641 4.9175Z" fill="white"/>
<path d="M12.431 7.34395H12.0197C11.7485 6.5127 11.2177 5.77478 10.5089 5.20311C10.5089 5.17686 10.5031 5.1477 10.4972 5.12145C10.3485 4.59936 10.5322 4.12395 10.7452 3.7827C10.8939 3.54353 10.7014 3.23728 10.4214 3.27228C9.79432 3.35103 9.36266 3.58145 9.06516 3.84103C8.86099 4.01895 8.71516 4.25811 8.65099 4.52353C8.20182 6.38436 6.52474 7.76978 4.52682 7.76978C3.55557 7.76978 2.66307 7.44311 1.94849 6.89478C1.70057 7.43145 1.56641 8.0177 1.56641 8.63311C1.56641 8.96561 1.60724 9.28936 1.68307 9.60145C1.68307 9.60145 1.68307 9.60728 1.68599 9.61603C1.76474 9.93978 1.88432 10.2519 2.03599 10.5464C2.23724 10.981 2.52891 11.4885 2.93141 11.8998C3.51182 12.4977 3.61099 13.2385 3.62557 13.5594V13.6964C3.62557 13.7023 3.62557 13.7081 3.62557 13.7139C3.62557 13.7169 3.62557 13.7169 3.62557 13.7169C3.63724 13.8744 3.76849 13.9998 3.92891 13.9998H5.77224C5.93849 13.9998 6.07557 13.8656 6.07557 13.6964V13.2414C6.34391 13.2764 6.61807 13.2969 6.89516 13.2969C7.11391 13.2969 7.32682 13.2852 7.53974 13.2619V13.6964C7.53974 13.8627 7.67391 13.9998 7.84307 13.9998H9.69224C9.85849 13.9998 9.99557 13.8656 9.99557 13.6964V13.2414C9.99849 13.0898 10.051 12.486 10.6227 11.9698C10.6431 11.9523 10.6635 11.9348 10.6839 11.9173C10.6897 11.9114 10.6956 11.9085 10.7014 11.9027C11.3372 11.3369 11.8068 10.631 12.0489 9.84353H12.4368C12.746 9.84353 12.9968 9.5927 12.9968 9.28353V7.90395C12.991 7.59478 12.7402 7.34395 12.431 7.34395ZM10.1239 7.44311C9.87016 7.44311 9.66599 7.23895 9.66599 6.9852C9.66599 6.73145 9.87016 6.52728 10.1239 6.52728C10.3777 6.52728 10.5818 6.73145 10.5818 6.9852C10.5818 7.23895 10.3777 7.44311 10.1239 7.44311Z" fill="white"/>
</g>
<defs>
<clipPath id="clip0_2140_1348">
<rect width="14" height="14" fill="white"/>
</clipPath>
</defs>
</svg>
