<svg width="29" height="29" viewBox="0 0 29 29" fill="none" xmlns="http://www.w3.org/2000/svg">
<path d="M26.8248 11.1467L15.0436 2.99043C14.7717 2.80918 14.3186 2.80918 14.0467 2.99043L7.2498 7.6123V5.79981C7.2498 5.25606 6.8873 4.89355 6.34355 4.89355C5.7998 4.89355 5.4373 5.25606 5.4373 5.79981V8.79043L2.1748 11.0561C1.72168 11.3279 1.63105 11.8717 1.90293 12.3248C2.1748 12.7779 2.71855 12.8686 3.17168 12.5967L14.4998 4.80293L25.7373 12.5967C26.2811 12.9592 26.7342 12.6873 27.0061 12.3248C27.2779 11.9623 27.1873 11.4186 26.8248 11.1467Z" fill="#3F85D7"/>
<path d="M23.3809 13.4123L15.0434 7.52168C14.7715 7.34043 14.3184 7.34043 13.9559 7.52168L5.61836 13.4123C5.34648 13.5936 5.25586 13.8654 5.25586 14.1373V25.2842C5.25586 25.8279 5.61836 26.1904 6.16211 26.1904H11.7809C12.5965 26.1904 12.7777 25.8279 12.7777 25.2842V19.8467C12.7777 18.9404 13.5027 18.2154 14.409 18.2154C15.3152 18.2154 16.0402 18.9404 16.0402 19.8467V25.2842C16.0402 25.7373 16.4027 26.1904 16.9465 26.1904H22.9277C23.4715 26.1904 23.834 25.8279 23.834 25.2842V14.1373C23.7434 13.8654 23.6527 13.5936 23.3809 13.4123Z" fill="#3F85D7"/>
</svg>
