<svg width="30" height="30" viewBox="0 0 30 30" fill="none" xmlns="http://www.w3.org/2000/svg">
<g clip-path="url(#clip0_2256_14128)">
<path d="M25.3164 8.49609C25.2048 8.49609 25.0936 8.50008 24.9828 8.50799C24.6488 7.44293 24.0211 6.48205 23.165 5.74295C22.0143 4.74937 20.5242 4.22514 18.9998 4.2815C17.5058 1.66172 14.7127 0 11.7227 0C7.96668 0 4.64307 2.58146 3.64533 6.20291C1.48363 7.16385 0.0625 9.3225 0.0625 11.7187C0.0625 14.0551 1.39697 16.0855 3.34375 17.088V14.8828C3.34375 13.4289 4.52658 12.2461 5.98047 12.2461H24.0273C25.4813 12.2461 26.6641 13.4289 26.6641 14.8828V17.5529C28.5611 16.9744 29.9453 15.2088 29.9453 13.125C29.9453 10.5726 27.8687 8.49609 25.3164 8.49609Z" fill="white"/>
<path d="M24.0273 14.0039H5.98047C5.49508 14.0039 5.10156 14.3974 5.10156 14.8828V21.0905H24.9062V14.8828C24.9062 14.3974 24.5127 14.0039 24.0273 14.0039ZM12.6376 18.5156H7.97266C7.48727 18.5156 7.09375 18.1221 7.09375 17.6367C7.09375 17.1513 7.48727 16.7578 7.97266 16.7578H12.6376C13.1229 16.7578 13.5165 17.1513 13.5165 17.6367C13.5165 18.1221 13.1229 18.5156 12.6376 18.5156ZM18.2852 18.5072C17.7998 18.5072 17.4062 18.1137 17.4062 17.6283C17.4062 17.1429 17.7998 16.7494 18.2852 16.7494C18.7705 16.7494 19.1641 17.1429 19.1641 17.6283C19.1641 18.1137 18.7705 18.5072 18.2852 18.5072ZM22.0352 18.5072C21.5498 18.5072 21.1562 18.1137 21.1562 17.6283C21.1562 17.1429 21.5498 16.7494 22.0352 16.7494C22.5205 16.7494 22.9141 17.1429 22.9141 17.6283C22.9141 18.1137 22.5205 18.5072 22.0352 18.5072Z" fill="white"/>
<path d="M5.10156 29.1214C5.10156 29.6068 5.49508 30.0004 5.98047 30.0004H24.0273C24.5127 30.0004 24.9062 29.6068 24.9062 29.1214V22.8486H5.10156V29.1214ZM22.0352 25.3129C22.5205 25.3129 22.9141 25.7064 22.9141 26.1918C22.9141 26.6771 22.5205 27.0707 22.0352 27.0707C21.5498 27.0707 21.1562 26.6771 21.1562 26.1918C21.1562 25.7064 21.5498 25.3129 22.0352 25.3129ZM18.2852 25.3129C18.7705 25.3129 19.1641 25.7064 19.1641 26.1918C19.1641 26.6771 18.7705 27.0707 18.2852 27.0707C17.7998 27.0707 17.4062 26.6771 17.4062 26.1918C17.4062 25.7064 17.7998 25.3129 18.2852 25.3129ZM7.97266 25.3129H12.6376C13.1229 25.3129 13.5165 25.7064 13.5165 26.1918C13.5165 26.6771 13.1229 27.0707 12.6376 27.0707H7.97266C7.48727 27.0707 7.09375 26.6771 7.09375 26.1918C7.09375 25.7064 7.48727 25.3129 7.97266 25.3129Z" fill="white"/>
</g>
<defs>
<clipPath id="clip0_2256_14128">
<rect width="30" height="30" fill="white"/>
</clipPath>
</defs>
</svg>
