<svg width="29" height="29" viewBox="0 0 29 29" fill="none" xmlns="http://www.w3.org/2000/svg">
<g clip-path="url(#clip0_1765_4158)">
<path d="M8.25 29H11.1387C11.2951 29 11.4219 28.8732 11.4219 28.7168V22.9052C11.4219 22.7729 11.3295 22.6613 11.2011 22.6292C10.7938 22.5273 10.496 22.1501 10.5166 21.7066C10.5393 21.2191 10.9591 20.8438 11.4472 20.8438H19.5526C20.0408 20.8438 20.4606 21.2191 20.4833 21.7066C20.504 22.1501 20.206 22.5274 19.7987 22.6292C19.6704 22.6612 19.578 22.7729 19.578 22.9052V28.7168C19.578 28.8732 19.7048 29 19.8612 29H22.4667C22.6231 29 22.7499 28.8736 22.7499 28.7172C22.7499 25.9808 22.7499 4.79871 22.7499 5.4375C22.7499 4.93697 22.3442 4.53125 21.8436 4.53125H9.15625C8.65572 4.53125 8.25 4.93697 8.25 5.4375V29ZM18.6719 8.15625C18.6719 7.65555 19.0774 7.25 19.5781 7.25C20.0788 7.25 20.4844 7.65555 20.4844 8.15625V9.0625C20.4844 9.5632 20.0788 9.96875 19.5781 9.96875C19.0774 9.96875 18.6719 9.5632 18.6719 9.0625V8.15625ZM18.6719 12.6875C18.6719 12.1868 19.0774 11.7812 19.5781 11.7812C20.0788 11.7812 20.4844 12.1868 20.4844 12.6875V13.5938C20.4844 14.0945 20.0788 14.5 19.5781 14.5C19.0774 14.5 18.6719 14.0945 18.6719 13.5938V12.6875ZM18.6719 17.2188C18.6719 16.718 19.0774 16.3125 19.5781 16.3125C20.0788 16.3125 20.4844 16.718 20.4844 17.2188V18.125C20.4844 18.6257 20.0788 19.0312 19.5781 19.0312C19.0774 19.0312 18.6719 18.6257 18.6719 18.125V17.2188ZM14.5938 8.15625C14.5938 7.65555 14.9993 7.25 15.5 7.25C16.0007 7.25 16.4062 7.65555 16.4062 8.15625V9.0625C16.4062 9.5632 16.0007 9.96875 15.5 9.96875C14.9993 9.96875 14.5938 9.5632 14.5938 9.0625V8.15625ZM14.5938 12.6875C14.5938 12.1868 14.9993 11.7812 15.5 11.7812C16.0007 11.7812 16.4062 12.1868 16.4062 12.6875V13.5938C16.4062 14.0945 16.0007 14.5 15.5 14.5C14.9993 14.5 14.5938 14.0945 14.5938 13.5938V12.6875ZM14.5938 17.2188C14.5938 16.718 14.9993 16.3125 15.5 16.3125C16.0007 16.3125 16.4062 16.718 16.4062 17.2188V18.125C16.4062 18.6257 16.0007 19.0312 15.5 19.0312C14.9993 19.0312 14.5938 18.6257 14.5938 18.125V17.2188ZM10.5156 8.15625C10.5156 7.65555 10.9212 7.25 11.4219 7.25C11.9226 7.25 12.3281 7.65555 12.3281 8.15625V9.0625C12.3281 9.5632 11.9226 9.96875 11.4219 9.96875C10.9212 9.96875 10.5156 9.5632 10.5156 9.0625V8.15625ZM10.5156 12.6875C10.5156 12.1868 10.9212 11.7812 11.4219 11.7812C11.9226 11.7812 12.3281 12.1868 12.3281 12.6875V13.5938C12.3281 14.0945 11.9226 14.5 11.4219 14.5C10.9212 14.5 10.5156 14.0945 10.5156 13.5938V12.6875ZM10.5156 17.2188C10.5156 16.718 10.9212 16.3125 11.4219 16.3125C11.9226 16.3125 12.3281 16.718 12.3281 17.2188V18.125C12.3281 18.6257 11.9226 19.0312 11.4219 19.0312C10.9212 19.0312 10.5156 18.6257 10.5156 18.125V17.2188Z" fill="#3F85D7"/>
<path d="M13.5176 29H17.4824C17.6388 29 17.7656 28.8732 17.7656 28.7168V22.9395C17.7656 22.7831 17.6388 22.6562 17.4824 22.6562H13.5176C13.3612 22.6562 13.2344 22.7831 13.2344 22.9395V28.7168C13.2344 28.8732 13.3612 29 13.5176 29Z" fill="#3F85D7"/>
<path d="M20.4844 0.90625C20.4844 0.405717 20.0787 0 19.5781 0H11.4219C10.9213 0 10.5156 0.405717 10.5156 0.90625V2.43555C10.5156 2.59193 10.6424 2.71875 10.7988 2.71875H20.2012C20.3576 2.71875 20.4844 2.59193 20.4844 2.43555V0.90625Z" fill="#3F85D7"/>
<path d="M29.0938 10.4219H24.8457C24.6893 10.4219 24.5625 10.5487 24.5625 10.7051V28.7168C24.5625 28.8732 24.6893 29 24.8457 29H29.0938C29.5943 29 30 28.5943 30 28.0938V11.3281C30 10.8276 29.5943 10.4219 29.0938 10.4219ZM28.1875 24.0156C28.1875 24.5163 27.782 24.9219 27.2812 24.9219C26.7805 24.9219 26.375 24.5163 26.375 24.0156V23.1094C26.375 22.6087 26.7805 22.2031 27.2812 22.2031C27.782 22.2031 28.1875 22.6087 28.1875 23.1094V24.0156ZM28.1875 19.9375C28.1875 20.4382 27.782 20.8438 27.2812 20.8438C26.7805 20.8438 26.375 20.4382 26.375 19.9375V19.0312C26.375 18.5305 26.7805 18.125 27.2812 18.125C27.782 18.125 28.1875 18.5305 28.1875 19.0312V19.9375ZM28.1875 15.8594C28.1875 16.3601 27.782 16.7656 27.2812 16.7656C26.7805 16.7656 26.375 16.3601 26.375 15.8594V14.9531C26.375 14.4524 26.7805 14.0469 27.2812 14.0469C27.782 14.0469 28.1875 14.4524 28.1875 14.9531V15.8594Z" fill="#3F85D7"/>
<path d="M1 11.3281V28.0938C1 28.5943 1.40572 29 1.90625 29H6.1543C6.31068 29 6.4375 28.8732 6.4375 28.7168V10.7051C6.4375 10.5487 6.31068 10.4219 6.1543 10.4219H1.90625C1.40572 10.4219 1 10.8276 1 11.3281ZM2.8125 14.9531C2.8125 14.4524 3.21805 14.0469 3.71875 14.0469C4.21945 14.0469 4.625 14.4524 4.625 14.9531V15.8594C4.625 16.3601 4.21945 16.7656 3.71875 16.7656C3.21805 16.7656 2.8125 16.3601 2.8125 15.8594V14.9531ZM2.8125 19.0312C2.8125 18.5305 3.21805 18.125 3.71875 18.125C4.21945 18.125 4.625 18.5305 4.625 19.0312V19.9375C4.625 20.4382 4.21945 20.8438 3.71875 20.8438C3.21805 20.8438 2.8125 20.4382 2.8125 19.9375V19.0312ZM2.8125 23.1094C2.8125 22.6087 3.21805 22.2031 3.71875 22.2031C4.21945 22.2031 4.625 22.6087 4.625 23.1094V24.0156C4.625 24.5163 4.21945 24.9219 3.71875 24.9219C3.21805 24.9219 2.8125 24.5163 2.8125 24.0156V23.1094Z" fill="#3F85D7"/>
</g>
<defs>
<clipPath id="clip0_1765_4158">
<rect width="29" height="29" fill="white"/>
</clipPath>
</defs>
</svg>
