<svg width="14" height="14" viewBox="0 0 14 14" fill="none" xmlns="http://www.w3.org/2000/svg">
<path d="M12.9488 5.38105L7.26133 1.44355C7.13008 1.35605 6.91133 1.35605 6.78008 1.44355L3.49883 3.6748V2.7998C3.49883 2.5373 3.32383 2.3623 3.06133 2.3623C2.79883 2.3623 2.62383 2.5373 2.62383 2.7998V4.24355L1.04883 5.3373C0.830078 5.46855 0.786328 5.73106 0.917578 5.94981C1.04883 6.16856 1.31133 6.2123 1.53008 6.08105L6.99883 2.31855L12.4238 6.08105C12.6863 6.25605 12.9051 6.1248 13.0363 5.94981C13.1676 5.77481 13.1238 5.5123 12.9488 5.38105Z" fill="white"/>
<path d="M11.2852 6.4748L7.26016 3.63105C7.12891 3.54355 6.91016 3.54355 6.73516 3.63105L2.71016 6.4748C2.57891 6.5623 2.53516 6.69355 2.53516 6.8248V12.2061C2.53516 12.4686 2.71016 12.6436 2.97266 12.6436H5.68516C6.07891 12.6436 6.16641 12.4686 6.16641 12.2061V9.58105C6.16641 9.14355 6.51641 8.79355 6.95391 8.79355C7.39141 8.79355 7.74141 9.14355 7.74141 9.58105V12.2061C7.74141 12.4248 7.91641 12.6436 8.17891 12.6436H11.0664C11.3289 12.6436 11.5039 12.4686 11.5039 12.2061V6.8248C11.4602 6.69355 11.4164 6.5623 11.2852 6.4748Z" fill="white"/>
</svg>
