<svg width="14" height="14" viewBox="0 0 14 14" fill="none" xmlns="http://www.w3.org/2000/svg">
<g clip-path="url(#clip0_2192_1597)">
<path d="M11.6667 12.8327H2.33333C2.17862 12.8327 2.03025 12.7712 1.92085 12.6618C1.81146 12.5524 1.75 12.4041 1.75 12.2493V1.74935C1.75 1.59464 1.81146 1.44627 1.92085 1.33687C2.03025 1.22747 2.17862 1.16602 2.33333 1.16602H11.6667C11.8214 1.16602 11.9697 1.22747 12.0791 1.33687C12.1885 1.44627 12.25 1.59464 12.25 1.74935V12.2493C12.25 12.4041 12.1885 12.5524 12.0791 12.6618C11.9697 12.7712 11.8214 12.8327 11.6667 12.8327ZM4.08333 3.49935V5.83268H6.41667V3.49935H4.08333ZM4.08333 6.99935V8.16602H9.91667V6.99935H4.08333ZM4.08333 9.33268V10.4993H9.91667V9.33268H4.08333ZM7.58333 4.08268V5.24935H9.91667V4.08268H7.58333Z" fill="white"/>
</g>
<defs>
<clipPath id="clip0_2192_1597">
<rect width="14" height="14" fill="white"/>
</clipPath>
</defs>
</svg>
