<svg width="15" height="15" viewBox="0 0 15 15" fill="none" xmlns="http://www.w3.org/2000/svg">
<g opacity="0.6">
<g clip-path="url(#clip0_1745_10397)">
<path d="M0.00195312 15.0003H6.18069V11.457H0.00195312V15.0003ZM1.3533 12.3746H4.85861V13.2531H1.3533V12.3746Z" fill="#040F1C"/>
<path d="M0.00195312 10.5784H6.18069V7.09375H0.00195312V10.5784ZM1.3533 8.0285H4.85861V8.90699H1.3533V8.0285Z" fill="#040F1C"/>
<path d="M7.05859 15.0002H14.9943V7.09375H7.05859V15.0002ZM12.3296 8.0285H13.2081V8.92867H12.3296V8.0285ZM10.5726 8.0285H11.4511V8.92867H10.5726V8.0285ZM8.81559 8.0285H9.69408V8.92867H8.81559V8.0285ZM8.81559 9.71459H13.2081V13.2432H8.81559V9.71459Z" fill="#040F1C"/>
<path d="M12.3296 2.02532V0H9.69408V2.02679L7.05859 3.78375V5.33657H14.9943V3.78229L12.3296 2.02532Z" fill="#040F1C"/>
</g>
</g>
<defs>
<clipPath id="clip0_1745_10397">
<rect width="15" height="15" fill="white"/>
</clipPath>
</defs>
</svg>
