<svg width="179" height="179" viewBox="0 0 179 179" fill="none" xmlns="http://www.w3.org/2000/svg">
<path d="M82.0419 134.25H59.2268C57.0117 124.755 47.0176 116.991 42.9155 111.875C35.8911 103.098 31.4889 92.5164 30.2159 81.3475C28.9429 70.1786 30.8509 58.8773 35.7201 48.7454C40.5893 38.6136 48.2216 30.0633 57.7378 24.0795C67.2541 18.0958 78.2671 14.922 89.5083 14.9238C100.749 14.9256 111.761 18.1029 121.276 24.0897C130.79 30.0765 138.42 38.6292 143.286 48.7627C148.152 58.8961 150.056 70.198 148.779 81.3665C147.503 92.5349 143.097 103.116 136.07 111.89C131.968 116.999 121.989 124.763 119.774 134.25H96.9586V96.958H82.0419V134.25ZM119.334 149.166V156.625C119.334 160.581 117.762 164.375 114.965 167.172C112.167 169.97 108.373 171.541 104.417 171.541H74.5836C70.6274 171.541 66.8333 169.97 64.0359 167.172C61.2385 164.375 59.6669 160.581 59.6669 156.625V149.166H119.334Z" fill="white"/>
</svg>
