<svg width="24" height="24" viewBox="0 0 24 24" fill="none" xmlns="http://www.w3.org/2000/svg">
<path d="M2.05078 13.0001H7.52778C7.6989 16.167 8.70833 19.2315 10.4528 21.8801C8.26771 21.5369 6.25798 20.4793 4.7378 18.8726C3.21762 17.2659 2.2727 15.2008 2.05078 13.0001ZM2.05078 11.0001C2.2727 8.79942 3.21762 6.73429 4.7378 5.12763C6.25798 3.52097 8.26771 2.46334 10.4528 2.12012C8.70833 4.76873 7.6989 7.83326 7.52778 11.0001H2.05078ZM21.9508 11.0001H16.4738C16.3027 7.83326 15.2932 4.76873 13.5488 2.12012C15.7338 2.46334 17.7436 3.52097 19.2638 5.12763C20.7839 6.73429 21.7289 8.79942 21.9508 11.0001ZM21.9508 13.0001C21.7289 15.2008 20.7839 17.2659 19.2638 18.8726C17.7436 20.4793 15.7338 21.5369 13.5488 21.8801C15.2932 19.2315 16.3027 16.167 16.4738 13.0001H21.9518H21.9508ZM9.53078 13.0001H14.4708C14.3062 15.6996 13.4561 18.3126 12.0008 20.5921C10.5455 18.3126 9.69538 15.6996 9.53078 13.0001ZM9.53078 11.0001C9.69538 8.30063 10.5455 5.68768 12.0008 3.40812C13.4561 5.68768 14.3062 8.30063 14.4708 11.0001H9.53078Z" fill="#3F85D7"/>
</svg>
