<svg width="50" height="50" viewBox="0 0 50 50" fill="none" xmlns="http://www.w3.org/2000/svg">
<g clip-path="url(#clip0_3271_11804)">
<path d="M1.90556 37.5H48.0926C48.4564 37.5 48.7937 37.3128 48.9854 37.0056C49.1771 36.6983 49.1945 36.3148 49.0315 35.9924L45.8324 29.9621V10.4167C45.8324 8.11875 44.1101 6.25 41.7943 6.25H8.2037C5.88798 6.25 4.16562 8.11865 4.16562 10.4167V29.9622L0.966494 35.9925C0.803506 36.3149 0.820889 36.6984 1.01259 37.0057C1.20438 37.3128 1.54159 37.5 1.90556 37.5ZM8.33231 10.4167H41.6656V29.1667H8.33231V10.4167Z" fill="#3F85D7"/>
<path d="M49.8085 40.0248C49.6117 39.7481 49.2918 39.5833 48.9505 39.5833H31.1178C30.839 39.5833 30.5725 39.6931 30.3756 39.8884L29.9409 40.3198C29.7451 40.5141 29.4745 40.625 29.1988 40.625H20.8011C20.5253 40.625 20.2547 40.5141 20.0589 40.3198L19.6242 39.8884C19.4275 39.6931 19.1609 39.5833 18.8821 39.5833H1.04953C0.708128 39.5833 0.388304 39.7481 0.191527 40.0248C-0.00427398 40.3004 -0.0534927 40.6544 0.0602768 40.9739C0.654906 42.634 2.24075 43.75 4.00598 43.75H45.9942C47.7594 43.75 49.3452 42.634 49.9398 40.9739C50.0535 40.6544 50.0043 40.3004 49.8085 40.0248Z" fill="#3F85D7"/>
</g>
<defs>
<clipPath id="clip0_3271_11804">
<rect width="50" height="50" fill="white"/>
</clipPath>
</defs>
</svg>
