<svg width="23" height="23" viewBox="0 0 23 23" fill="none" xmlns="http://www.w3.org/2000/svg">
<g clip-path="url(#clip0_1086_23757)">
<path d="M16.889 16.4502H5.25549V20.6076C5.25549 20.6281 5.25461 20.6485 5.25391 20.6688H16.8906C16.8899 20.6485 16.889 20.6281 16.889 20.6076V16.4502Z" fill="#3F85D7"/>
<path d="M0.6726 5.88863H12.9531C13.3246 5.88863 13.6257 5.58751 13.6257 5.21603V0.6726C13.6257 0.301117 13.3246 0 12.9531 0H0.6726C0.301117 0 0 0.301117 0 0.6726V5.21603C0 5.58751 0.301117 5.88863 0.6726 5.88863Z" fill="#3F85D7"/>
<path d="M20.2345 10.1067V12.2316H20.6169V6.77357H22.3273C22.5334 6.77357 22.7282 6.67899 22.8558 6.51702C22.9834 6.35488 23.0295 6.14326 22.9811 5.94286L21.9524 1.69125C21.8794 1.38943 21.6094 1.17676 21.2988 1.17676H18.5898C18.2794 1.17676 18.0091 1.38943 17.9361 1.69125L16.9075 5.94286C16.8591 6.14326 16.9052 6.35488 17.0328 6.51702C17.1604 6.67899 17.3551 6.77357 17.5613 6.77357H19.2717V8.38742C19.8488 8.74293 20.2345 9.38061 20.2345 10.1067Z" fill="#3F85D7"/>
<path d="M16.888 15.1043V14.086C16.888 13.0631 17.7202 12.231 18.743 12.231H18.8885V10.1062C18.8885 9.73524 18.5868 9.43359 18.2159 9.43359H3.92651C3.55573 9.43359 3.25391 9.73524 3.25391 10.1062V12.231H3.39938C4.42223 12.231 5.25433 13.0631 5.25433 14.086V15.1043H16.888Z" fill="#3F85D7"/>
<path d="M3.91079 14.0859C3.91079 13.805 3.68214 13.5762 3.40103 13.5762H0.999992C0.71888 13.5762 0.490234 13.805 0.490234 14.0859V20.607C0.490234 20.8881 0.71888 21.1167 0.999992 21.1167H3.40103C3.68214 21.1167 3.91079 20.8881 3.91079 20.607V14.0859Z" fill="#3F85D7"/>
<path d="M21.6551 20.607V14.0859C21.6551 13.805 21.4263 13.5762 21.1452 13.5762H18.7441C18.463 13.5762 18.2344 13.805 18.2344 14.0859V20.607C18.2344 20.8881 18.463 21.1167 18.7441 21.1167H21.1452C21.4263 21.1167 21.6551 20.8881 21.6551 20.607Z" fill="#3F85D7"/>
</g>
<defs>
<clipPath id="clip0_1086_23757">
<rect width="23" height="23" fill="white"/>
</clipPath>
</defs>
</svg>
