<svg width="14" height="14" viewBox="0 0 14 14" fill="none" xmlns="http://www.w3.org/2000/svg">
<g clip-path="url(#clip0_1996_47933)">
<path d="M5.83203 6.41699H2.33203V1.75033C2.33203 1.59562 2.39349 1.44724 2.50289 1.33785C2.61228 1.22845 2.76065 1.16699 2.91536 1.16699H11.082C11.2367 1.16699 11.3851 1.22845 11.4945 1.33785C11.6039 1.44724 11.6654 1.59562 11.6654 1.75033V12.2503C11.6654 12.405 11.6039 12.5534 11.4945 12.6628C11.3851 12.7722 11.2367 12.8337 11.082 12.8337H2.91536C2.76065 12.8337 2.61228 12.7722 2.50289 12.6628C2.39349 12.5534 2.33203 12.405 2.33203 12.2503V7.58366H5.83203V9.33366L8.7487 7.00033L5.83203 4.66699V6.41699Z" fill="white"/>
</g>
<defs>
<clipPath id="clip0_1996_47933">
<rect width="14" height="14" fill="white"/>
</clipPath>
</defs>
</svg>
