<svg width="32" height="32" viewBox="0 0 32 32" fill="none" xmlns="http://www.w3.org/2000/svg">
<path d="M13.1875 15.0625H18.8125V18.8125H13.1875V15.0625Z" fill="#3F85D7"/>
<path d="M11.3125 14.125C11.3125 13.6068 11.7318 13.1875 12.25 13.1875H19.75C20.2682 13.1875 20.6875 13.6068 20.6875 14.125V18.8125H24.4375V8.5C24.4375 6.94913 23.1759 5.6875 21.625 5.6875H20.6875V1.875H21.625C22.1432 1.875 22.5625 1.45569 22.5625 0.9375C22.5625 0.419312 22.1432 0 21.625 0H10.375C9.85681 0 9.4375 0.419312 9.4375 0.9375C9.4375 1.45569 9.85681 1.875 10.375 1.875H11.3125V5.6875H10.375C8.82413 5.6875 7.5625 6.94913 7.5625 8.5V18.8125H11.3125V14.125ZM13.1875 1.875H18.8125V5.6875H13.1875V1.875ZM12.25 7.5625H19.75C20.2682 7.5625 20.6875 7.98181 20.6875 8.5C20.6875 9.01819 20.2682 9.4375 19.75 9.4375H18.8125V10.375C18.8125 10.8932 18.3932 11.3125 17.875 11.3125C17.3568 11.3125 16.9375 10.8932 16.9375 10.375V9.4375H12.25C11.7318 9.4375 11.3125 9.01819 11.3125 8.5C11.3125 7.98181 11.7318 7.5625 12.25 7.5625Z" fill="#3F85D7"/>
<path d="M5.6875 32H26.3125V20.6875H5.6875V32ZM10.375 24.4375H12.25C12.7682 24.4375 13.1875 24.8568 13.1875 25.375V26.3125H18.8125V25.375C18.8125 24.8568 19.2318 24.4375 19.75 24.4375H21.625C22.1432 24.4375 22.5625 24.8568 22.5625 25.375C22.5625 25.8932 22.1432 26.3125 21.625 26.3125H20.6875V27.25C20.6875 27.7682 20.2682 28.1875 19.75 28.1875H12.25C11.7318 28.1875 11.3125 27.7682 11.3125 27.25V26.3125H10.375C9.85681 26.3125 9.4375 25.8932 9.4375 25.375C9.4375 24.8568 9.85681 24.4375 10.375 24.4375Z" fill="#3F85D7"/>
<path d="M31.0625 20.6875H28.1875V32H31.0625C31.5807 32 32 31.5807 32 31.0625V21.625C32 21.1068 31.5807 20.6875 31.0625 20.6875Z" fill="#3F85D7"/>
<path d="M0 21.625V31.0625C0 31.5807 0.419312 32 0.9375 32H3.8125V20.6875H0.9375C0.419312 20.6875 0 21.1068 0 21.625Z" fill="#3F85D7"/>
</svg>
