<svg width="31" height="31" viewBox="0 0 31 31" fill="none" xmlns="http://www.w3.org/2000/svg">
<path d="M18.2488 6.07752C16.8171 4.64632 14.9335 3.75579 12.9189 3.55765C10.9043 3.35952 8.88333 3.86604 7.20031 4.99092C5.51729 6.11579 4.27636 7.78943 3.68897 9.72666C3.10157 11.6639 3.20404 13.7449 3.97893 15.615C4.75381 17.4852 6.15316 19.0288 7.93856 19.9829C9.72395 20.9369 11.7849 21.2425 13.7703 20.8474C15.7557 20.4522 17.5427 19.381 18.8268 17.816C20.1109 16.2511 20.8126 14.2893 20.8125 12.265C20.8112 9.94435 19.8892 7.71901 18.2488 6.07752Z" fill="white"/>
<path d="M25.3181 23.7554L20.8456 19.2842C20.5857 19.6114 20.3077 19.924 20.0131 20.2204C19.7168 20.5143 19.4047 20.7918 19.0781 21.0517L23.5494 25.5229C23.7851 25.7506 24.1009 25.8766 24.4286 25.8738C24.7564 25.8709 25.0699 25.7395 25.3016 25.5077C25.5334 25.2759 25.6649 24.9624 25.6677 24.6347C25.6706 24.3069 25.5446 23.9912 25.3169 23.7554H25.3181Z" fill="white"/>
</svg>
