<svg width="21" height="13" viewBox="0 0 21 13" fill="none" xmlns="http://www.w3.org/2000/svg">
<g clip-path="url(#clip0_1417_37833)">
<path d="M13.3314 1.36328H7.64844V11.3798H13.3314V1.36328Z" fill="#FF5A00"/>
<path d="M8.02842 6.37113C8.02842 4.33608 9.0036 2.5299 10.5 1.36289C9.39872 0.513402 8.00951 0 6.4942 0C2.90452 0 0 2.84948 0 6.37113C0 9.89278 2.90452 12.7423 6.4942 12.7423C8.00951 12.7423 9.39872 12.2289 10.5 11.3794C9.0015 10.2289 8.02842 8.40619 8.02842 6.37113Z" fill="#EB001B"/>
<path d="M21 6.37113C21 9.89278 18.0955 12.7423 14.5058 12.7423C12.9905 12.7423 11.6013 12.2289 10.5 11.3794C12.0153 10.2103 12.9716 8.40619 12.9716 6.37113C12.9716 4.33608 11.9964 2.5299 10.5 1.36289C11.5992 0.513402 12.9884 0 14.5037 0C18.0955 0 21 2.86804 21 6.37113Z" fill="#F79E1B"/>
</g>
<defs>
<clipPath id="clip0_1417_37833">
<rect width="21" height="13" fill="white"/>
</clipPath>
</defs>
</svg>
