<svg width="56" height="25" viewBox="0 0 56 25" fill="none" xmlns="http://www.w3.org/2000/svg">
<g clip-path="url(#clip0_1034_19406)">
<path d="M31.6821 4.99219H23.293V19.6317H31.6821V4.99219Z" fill="#FF5A00"/>
<path d="M23.8515 12.3117C23.8515 9.33735 25.291 6.69754 27.5 4.99191C25.8743 3.75036 23.8236 3 21.5867 3C16.2876 3 12 7.16463 12 12.3117C12 17.4587 16.2876 21.6233 21.5867 21.6233C23.8236 21.6233 25.8743 20.873 27.5 19.6314C25.2879 17.9499 23.8515 15.286 23.8515 12.3117Z" fill="#E60000"/>
<path d="M43 12.3117C43 17.4587 38.7124 21.6233 33.4133 21.6233C31.1764 21.6233 29.1257 20.873 27.5 19.6314C29.7369 17.9228 31.1485 15.286 31.1485 12.3117C31.1485 9.33735 29.709 6.69754 27.5 4.99191C29.1226 3.75036 31.1733 3 33.4102 3C38.7124 3 43 7.19175 43 12.3117Z" fill="#F79E1B"/>
</g>
<defs>
<clipPath id="clip0_1034_19406">
<rect width="31" height="19" fill="white" transform="translate(12 3)"/>
</clipPath>
</defs>
</svg>
