<svg width="20" height="20" viewBox="0 0 20 20" fill="none" xmlns="http://www.w3.org/2000/svg">
<g clip-path="url(#clip0_1086_24158)">
<path d="M10.2625 11.0902C9.51563 11.159 8.78281 10.9332 8.21328 10.4676C7.58164 9.95117 7.05312 9.29063 6.89062 8.48828H7.66016L10.2625 11.0902Z" fill="#3F85D7"/>
<path d="M13.1098 8.48828C13.0996 8.53906 13.0883 8.59023 13.0754 8.64141C12.8637 9.49063 12.0898 10.3035 11.5008 10.6727L9.31641 8.48828H13.1098Z" fill="#3F85D7"/>
<path d="M13.1652 7.3168H8.1457L7.05078 6.22148C7.24922 5.52305 7.54531 4.8293 7.82852 4.14648H12.173C12.6051 5.18789 13.0652 6.25039 13.1652 7.3168Z" fill="#3F85D7"/>
<path d="M16.6449 17.4738C14.8125 19.1074 12.475 20.0004 10 20.0004C7.32891 20.0004 4.81758 18.9602 2.92891 17.0715C1.04023 15.1828 0 12.6715 0 10.0004C0 7.52539 0.892969 5.18789 2.52656 3.35547L5.7582 6.58711C5.60508 7.38008 5.59492 8.15469 5.78711 8.925C6.00352 9.79414 6.60156 10.6645 7.4707 11.375C8.03125 11.8336 8.70586 12.1293 9.41406 12.2355V15.8543H7.65899C7.33555 15.8543 7.07305 16.1168 7.07305 16.4402C7.07305 16.7637 7.33555 17.0262 7.65899 17.0262H12.341C12.6645 17.0262 12.927 16.7637 12.927 16.4402C12.927 16.1168 12.6645 15.8543 12.341 15.8543H10.5859V12.2355C10.8109 12.2016 11.0328 12.1488 11.2484 12.0773L16.6449 17.4738Z" fill="#3F85D7"/>
<path d="M20.0004 10C20.0004 12.475 19.1074 14.8125 17.4738 16.6449L12.3449 11.516C12.4078 11.4703 12.4695 11.4238 12.5297 11.3746C13.3988 10.6641 13.9969 9.79375 14.2133 8.92461C14.7172 6.90352 13.7941 5.03359 13.1086 3.34023C13.0191 3.11914 12.8043 2.97422 12.5656 2.97422H7.43555C7.19688 2.97422 6.98203 3.11875 6.89258 3.34023C6.63828 3.96719 6.35391 4.61055 6.11758 5.28867L3.35547 2.52656C5.18789 0.892969 7.52539 0 10.0004 0C12.6715 0 15.1828 1.04023 17.0715 2.92891C18.9602 4.81758 20.0004 7.32891 20.0004 10V10Z" fill="#3F85D7"/>
</g>
<defs>
<clipPath id="clip0_1086_24158">
<rect width="20" height="20" fill="white"/>
</clipPath>
</defs>
</svg>
