<svg width="20" height="20" viewBox="0 0 20 20" fill="none" xmlns="http://www.w3.org/2000/svg">
<path d="M10 0C7.52344 0 5.18555 0.892578 3.35391 2.525L9.07109 8.24219H10C10.323 8.24219 10.5859 7.9793 10.5859 7.65625V4.14062C10.5859 3.81719 10.8484 3.55469 11.1719 3.55469C12.0879 3.55469 12.9531 3.99648 13.5035 4.72656H14.6875C15.6566 4.72656 16.4453 5.51523 16.4453 6.48438C16.4453 7.46109 15.6513 8.25195 14.666 8.24219H14.6594C14.3466 8.24219 14.1016 8.51539 14.1016 8.82812V13.2727L17.475 16.6461C19.1078 14.8145 20 12.4766 20 10C20 4.46984 15.5315 0 10 0ZM13.5156 15.2734H11.1719C10.8484 15.2734 10.5859 15.0109 10.5859 14.6875V13.5156C10.5859 13.1926 10.323 12.9297 10 12.9297H8.82812C8.50508 12.9297 8.24219 13.1926 8.24219 13.5156V14.6875C8.24219 15.0109 7.97969 15.2734 7.65625 15.2734H5.3125C4.98906 15.2734 4.72656 15.0109 4.72656 14.6875V10C4.72656 9.77148 4.77031 9.55273 4.85039 9.35234C4.10469 9.14883 3.55469 8.46562 3.55469 7.65625C3.55469 7.33281 3.81719 7.07031 4.14062 7.07031C4.46406 7.07031 4.72656 7.33281 4.72656 7.65625C4.72656 7.9793 4.98945 8.24219 5.3125 8.24219H7.41328L2.525 3.35391C0.892187 5.18555 0 7.52344 0 10C0 15.5302 4.46852 20 10 20C12.4766 20 14.8145 19.1074 16.6461 17.475L14.0645 14.8934C13.9809 15.1152 13.7668 15.2734 13.5156 15.2734ZM8.58516 9.41406H6.48438C6.16133 9.41406 5.89844 9.67695 5.89844 10V14.1016H7.07031V13.5156C7.07031 12.5465 7.85898 11.7578 8.82812 11.7578H10C10.9691 11.7578 11.7578 12.5465 11.7578 13.5156V14.1016H12.9297V13.7586L8.58516 9.41406ZM14.6875 5.89844H13.1906C12.982 5.89844 12.7891 5.7875 12.684 5.60703C12.4676 5.23555 12.1402 4.96445 11.7578 4.82773V7.65625C11.7578 8.54805 11.0898 9.28711 10.2281 9.39922L12.9297 12.1008V8.82812C12.9297 8.35742 13.1215 7.89805 13.4559 7.56758C13.7859 7.24141 14.2207 7.06563 14.6801 7.07031C15.0049 7.07512 15.2734 6.81242 15.2734 6.48438C15.2734 6.16133 15.0105 5.89844 14.6875 5.89844Z" fill="#3F85D7"/>
</svg>
