<svg width="20" height="20" viewBox="0 0 20 20" fill="none" xmlns="http://www.w3.org/2000/svg">
<path d="M9.99965 0C7.44906 0 5.12199 0.955391 3.35547 2.52719L9.85172 9.02344H16.2496C16.7881 9.02344 17.2262 9.46152 17.2262 10V11.5625C17.2262 12.101 16.7881 12.5391 16.2496 12.5391H13.3673L17.4725 16.6442C19.0443 14.8777 19.9996 12.5506 19.9996 10C19.9996 4.47715 15.5225 0 9.99965 0ZM9.99965 6.09375C9.03039 6.09375 8.24184 5.30519 8.24184 4.33594V4.10156C8.24184 3.77797 8.50418 3.51562 8.82777 3.51562C9.15137 3.51562 9.41371 3.77797 9.41371 4.10156V4.33594C9.41371 4.65902 9.67656 4.92187 9.99965 4.92187C10.3232 4.92187 10.5856 5.18422 10.5856 5.50781C10.5856 5.83141 10.3232 6.09375 9.99965 6.09375ZM17.2262 7.26562C17.2262 7.58922 16.9639 7.85156 16.6403 7.85156C16.3167 7.85156 16.0543 7.58922 16.0543 7.26562V6.67969C16.0543 6.3566 15.7915 6.09375 15.4684 6.09375H12.3434C11.3741 6.09375 10.5856 5.30519 10.5856 4.33594V4.10156C10.5856 3.77797 10.8479 3.51562 11.1715 3.51562C11.4951 3.51562 11.7575 3.77797 11.7575 4.10156V4.33594C11.7575 4.65902 12.0203 4.92187 12.3434 4.92187H15.4684C16.4377 4.92187 17.2262 5.71043 17.2262 6.67969V7.26562Z" fill="#3F85D7"/>
<path d="M3.94531 10.1953H6.28906V11.3672H3.94531V10.1953Z" fill="#3F85D7"/>
<path d="M10.5386 11.3672L9.36668 10.1953H7.46094V11.3672H10.5386Z" fill="#3F85D7"/>
<path d="M3.75 12.5387C3.21152 12.5387 2.77344 12.1006 2.77344 11.5621V9.99965C2.77344 9.46117 3.21152 9.02309 3.75 9.02309H8.1948L2.52719 3.35547C0.955391 5.12199 0 7.44906 0 9.99965C0 15.5225 4.47715 19.9996 10 19.9996C12.5506 19.9996 14.8777 19.0443 16.6442 17.4725L11.7104 12.5387H3.75Z" fill="#3F85D7"/>
<path d="M16.0542 11.3672V10.1953H11.0234L12.1953 11.3672H16.0542Z" fill="#3F85D7"/>
</svg>
