<svg width="69" height="19" viewBox="0 0 69 19" fill="none" xmlns="http://www.w3.org/2000/svg">
<path d="M25.715 3.88574H21.9094C21.649 3.88574 21.4275 4.0815 21.3869 4.3475L19.8477 14.4446C19.8171 14.6438 19.9663 14.8234 20.1616 14.8234H21.9784C22.2388 14.8234 22.4603 14.6277 22.5009 14.3611L22.916 11.6377C22.9561 11.3712 23.1781 11.1754 23.438 11.1754H24.6427C27.1495 11.1754 28.5963 9.92026 28.9741 7.43298C29.1444 6.3448 28.9813 5.4898 28.4889 4.89101C27.948 4.2335 26.9887 3.88574 25.715 3.88574ZM26.154 7.57347C25.9459 8.98638 24.9026 8.98638 23.8937 8.98638H23.3194L23.7223 6.34768C23.7462 6.1882 23.8798 6.07074 24.0356 6.07074H24.2988C24.986 6.07074 25.6343 6.07074 25.9693 6.47608C26.169 6.71789 26.2302 7.07717 26.154 7.57347Z" fill="#253B80"/>
<path d="M37.0882 7.52792H35.2658C35.1105 7.52792 34.9764 7.64537 34.9525 7.80486L34.8718 8.33225L34.7444 8.1411C34.3499 7.54865 33.4701 7.35059 32.592 7.35059C30.5782 7.35059 28.8583 8.92874 28.5233 11.1425C28.3491 12.2468 28.5967 13.3028 29.2021 14.0392C29.7575 14.7163 30.5521 14.9984 31.4975 14.9984C33.1201 14.9984 34.0199 13.9188 34.0199 13.9188L33.9387 14.4428C33.908 14.6431 34.0572 14.8228 34.2514 14.8228H35.8929C36.1539 14.8228 36.3742 14.627 36.4154 14.3604L37.4003 7.90677C37.4315 7.70813 37.2829 7.52792 37.0882 7.52792ZM34.548 11.1978C34.3721 12.275 33.5458 12.9982 32.4919 12.9982C31.9627 12.9982 31.5398 12.8226 31.2682 12.4898C30.9989 12.1593 30.8965 11.6889 30.9822 11.165C31.1464 10.0969 31.9866 9.35019 33.0244 9.35019C33.5419 9.35019 33.9626 9.5281 34.2397 9.86377C34.5174 10.2029 34.6275 10.6762 34.548 11.1978Z" fill="#253B80"/>
<path d="M46.7954 7.52832H44.9641C44.7894 7.52832 44.6252 7.61814 44.5262 7.76841L42.0004 11.6179L40.9298 7.91868C40.8625 7.68723 40.656 7.52832 40.4223 7.52832H38.6228C38.4041 7.52832 38.2522 7.74941 38.3217 7.96244L40.3389 14.0873L38.4425 16.8573C38.2933 17.0755 38.4436 17.3755 38.7012 17.3755H40.5303C40.7039 17.3755 40.8664 17.288 40.9649 17.1406L47.0558 8.04362C47.2016 7.82599 47.0519 7.52832 46.7954 7.52832Z" fill="#253B80"/>
<path d="M52.8556 3.88574H49.0495C48.7896 3.88574 48.5681 4.0815 48.5275 4.3475L46.9884 14.4446C46.9578 14.6438 47.1069 14.8234 47.3011 14.8234H49.2542C49.4356 14.8234 49.5909 14.6864 49.6193 14.4998L50.0561 11.6377C50.0962 11.3712 50.3182 11.1754 50.578 11.1754H51.7822C54.2896 11.1754 55.7358 9.92026 56.1142 7.43298C56.285 6.3448 56.1209 5.4898 55.6284 4.89101C55.0881 4.2335 54.1293 3.88574 52.8556 3.88574ZM53.2946 7.57347C53.0871 8.98638 52.0437 8.98638 51.0343 8.98638H50.4606L50.8641 6.34768C50.888 6.1882 51.0204 6.07074 51.1768 6.07074H51.44C52.1266 6.07074 52.7755 6.07074 53.1105 6.47608C53.3102 6.71789 53.3709 7.07717 53.2946 7.57347Z" fill="#179BD7"/>
<path d="M64.2342 7.52792H62.413C62.2566 7.52792 62.1236 7.64537 62.1002 7.80486L62.0196 8.33225L61.8916 8.1411C61.497 7.54865 60.6178 7.35059 59.7398 7.35059C57.726 7.35059 56.0065 8.92874 55.6715 11.1425C55.4979 12.2468 55.7444 13.3028 56.3499 14.0392C56.9063 14.7163 57.6998 14.9984 58.6452 14.9984C60.2678 14.9984 61.1676 13.9188 61.1676 13.9188L61.0864 14.4428C61.0558 14.6431 61.2049 14.8228 61.4002 14.8228H63.0412C63.3011 14.8228 63.5225 14.627 63.5631 14.3604L64.5486 7.90677C64.5787 7.70813 64.4295 7.52792 64.2342 7.52792ZM61.694 11.1978C61.5193 12.275 60.6919 12.9982 59.6379 12.9982C59.1099 12.9982 58.6858 12.8226 58.4143 12.4898C58.145 12.1593 58.0437 11.6889 58.1283 11.165C58.2935 10.0969 59.1327 9.35019 60.1705 9.35019C60.688 9.35019 61.1086 9.5281 61.3858 9.86377C61.6645 10.2029 61.7747 10.6762 61.694 11.1978Z" fill="#179BD7"/>
<path d="M66.3785 4.16228L64.8165 14.4442C64.7859 14.6434 64.935 14.823 65.1292 14.823H66.6995C66.9605 14.823 67.182 14.6272 67.222 14.3607L68.7623 4.26419C68.7929 4.06498 68.6438 3.88477 68.4496 3.88477H66.6912C66.5359 3.88534 66.4024 4.0028 66.3785 4.16228Z" fill="#179BD7"/>
<path d="M4.04653 16.7859L4.33756 14.8732L3.68929 14.8577H0.59375L2.74499 0.744147C2.75167 0.701541 2.77337 0.661813 2.80509 0.633601C2.83681 0.605389 2.87743 0.589844 2.91972 0.589844H8.13923C9.87202 0.589844 11.0678 0.962935 11.6922 1.69933C11.9849 2.04478 12.1713 2.40578 12.2614 2.80306C12.356 3.2199 12.3577 3.71793 12.2653 4.32536L12.2586 4.36969V4.7589L12.5513 4.93048C12.7978 5.06578 12.9937 5.22066 13.144 5.39799C13.3944 5.69336 13.5563 6.06875 13.6247 6.51381C13.6954 6.97154 13.672 7.51621 13.5563 8.13284C13.4227 8.84218 13.2068 9.45996 12.9153 9.96548C12.647 10.4313 12.3054 10.8176 11.8997 11.117C11.5124 11.4014 11.0523 11.6173 10.532 11.7555C10.0278 11.8914 9.45302 11.9599 8.82256 11.9599H8.41635C8.12588 11.9599 7.84376 12.0681 7.62229 12.2622C7.40027 12.4602 7.25336 12.7308 7.20829 13.0268L7.17769 13.1989L6.66352 16.57L6.64015 16.6938C6.63403 16.7329 6.62346 16.7525 6.60788 16.7658C6.59397 16.7778 6.57394 16.7859 6.55446 16.7859H4.04653Z" fill="#253B80"/>
<path d="M12.8269 4.41406C12.8113 4.51712 12.7935 4.62249 12.7735 4.73073C12.0852 8.38737 9.73025 9.65058 6.72263 9.65058H5.19127C4.82346 9.65058 4.51351 9.92694 4.4562 10.3023L3.67216 15.4473L3.45014 16.9057C3.41285 17.1521 3.59648 17.3744 3.83687 17.3744H6.55291C6.87454 17.3744 7.14776 17.1325 7.19839 16.8044L7.2251 16.6616L7.73648 13.3038L7.76931 13.1195C7.81939 12.7902 8.09317 12.5484 8.4148 12.5484H8.82101C11.4525 12.5484 13.5124 11.4429 14.1145 8.244C14.366 6.90767 14.2358 5.79185 13.5703 5.00709C13.3689 4.77046 13.119 4.57412 12.8269 4.41406Z" fill="#179BD7"/>
<path d="M12.1038 4.11696C11.9986 4.0853 11.8901 4.05651 11.7788 4.0306C11.667 4.00527 11.5523 3.98281 11.4344 3.96324C11.0215 3.89415 10.5691 3.86133 10.0844 3.86133H5.99338C5.89267 3.86133 5.79696 3.88493 5.71126 3.92754C5.52262 4.02139 5.3824 4.20621 5.34846 4.43248L4.47817 10.1359L4.45312 10.3023C4.51044 9.92693 4.82038 9.65057 5.1882 9.65057H6.71955C9.72717 9.65057 12.0821 8.38678 12.7704 4.73072C12.791 4.62248 12.8082 4.51712 12.8238 4.41406C12.6497 4.31848 12.461 4.23672 12.2579 4.16706C12.2078 4.14978 12.1561 4.13309 12.1038 4.11696Z" fill="#222D65"/>
<path d="M5.34972 4.43276C5.38366 4.20648 5.52389 4.02167 5.71253 3.92839C5.79878 3.88579 5.89393 3.86218 5.99465 3.86218H10.0857C10.5703 3.86218 11.0227 3.895 11.4356 3.96409C11.5536 3.98367 11.6682 4.00612 11.7801 4.03145C11.8914 4.05736 11.9999 4.08615 12.105 4.11782C12.1573 4.13394 12.2091 4.15064 12.2597 4.16733C12.4628 4.237 12.6515 4.31933 12.8256 4.41433C13.0304 3.06303 12.824 2.14297 12.1178 1.30985C11.3394 0.392667 9.93432 0 8.13643 0H2.91691C2.54966 0 2.23637 0.276364 2.17961 0.652333L0.0055583 14.911C-0.0372885 15.1931 0.17305 15.4476 0.447937 15.4476H3.67035L4.47943 10.1362L5.34972 4.43276Z" fill="#253B80"/>
</svg>
