<svg width="16" height="16" viewBox="0 0 16 16" fill="none" xmlns="http://www.w3.org/2000/svg">
<path d="M2 6.25581C2 6.91473 2.20571 7.43798 2.61714 7.82558C3.02857 8.21318 3.60457 8.40698 4.34514 8.40698C5.09029 8.40698 5.66629 8.21318 6.07314 7.82558C6.48457 7.43798 6.69029 6.91473 6.69029 6.25581V5.28036C6.69029 4.62575 6.48457 4.10465 6.07314 3.71705C5.66629 3.32946 5.09029 3.13566 4.34514 3.13566C3.60457 3.13566 3.02857 3.32946 2.61714 3.71705C2.20571 4.10034 2 4.62145 2 5.28036V6.25581ZM3.45371 6.27519V5.2739C3.45371 4.97244 3.52 4.72696 3.65257 4.53747C3.78971 4.34798 4.02057 4.25323 4.34514 4.25323C4.66971 4.25323 4.89829 4.34798 5.03086 4.53747C5.168 4.72696 5.23657 4.97244 5.23657 5.2739V6.27519C5.23657 6.57666 5.168 6.82214 5.03086 7.01163C4.89829 7.19681 4.66971 7.28941 4.34514 7.28941C4.02057 7.28941 3.78971 7.19681 3.65257 7.01163C3.52 6.82214 3.45371 6.57666 3.45371 6.27519ZM11.5589 3.62016L10.4891 3L4.48229 12.3669L5.54514 13L11.5589 3.62016ZM9.30971 10.7519C9.30971 11.4109 9.51543 11.9341 9.92686 12.3217C10.3383 12.7093 10.9143 12.9031 11.6549 12.9031C12.4 12.9031 12.976 12.7093 13.3829 12.3217C13.7943 11.9341 14 11.4109 14 10.7519V9.77649C14 9.12188 13.7943 8.60078 13.3829 8.21318C12.976 7.82558 12.4 7.63178 11.6549 7.63178C10.9143 7.63178 10.3383 7.82558 9.92686 8.21318C9.51543 8.59647 9.30971 9.11757 9.30971 9.77649V10.7519ZM10.7634 10.7713V9.77003C10.7634 9.46856 10.8297 9.22308 10.9623 9.03359C11.0994 8.8441 11.3303 8.74935 11.6549 8.74935C11.9794 8.74935 12.208 8.8441 12.3406 9.03359C12.4777 9.22308 12.5463 9.46856 12.5463 9.77003V10.7713C12.5463 11.0728 12.4777 11.3183 12.3406 11.5078C12.208 11.6929 11.9794 11.7855 11.6549 11.7855C11.3303 11.7855 11.0994 11.6929 10.9623 11.5078C10.8297 11.3183 10.7634 11.0728 10.7634 10.7713Z" fill="white"/>
</svg>
