<svg width="32" height="32" viewBox="0 0 32 32" fill="none" xmlns="http://www.w3.org/2000/svg">
<g clip-path="url(#clip0_1086_24558)">
<path d="M28.9898 27.0968C28.9699 26.8692 28.9435 26.6422 28.9104 26.4161C28.9103 26.4158 28.7782 25.6824 28.7527 25.5705C28.4588 24.2812 27.6578 23.3358 26.5756 22.6024C26.3732 22.4653 26.1632 22.3463 25.9505 22.2345C25.6701 22.0871 21.4331 20.6948 21.3228 20.6602C21.3488 20.805 21.3666 20.9653 21.3725 21.1393C21.9625 21.5536 23.7015 23.0489 22.9118 25.8469C22.9118 25.8469 21.6634 24.3587 20.3897 24.1675C19.1767 26.282 17.1117 28.9586 15.9995 29.6612C14.8873 28.9586 12.8223 26.282 11.6093 24.1674C10.3356 24.3587 9.08726 25.8468 9.08726 25.8468C8.29757 23.0489 10.0365 21.5536 10.6266 21.1393C10.6324 20.9653 10.6502 20.805 10.6762 20.6602C10.5659 20.6948 6.32886 22.0872 6.04854 22.2344C5.83591 22.3463 5.62583 22.4652 5.4234 22.6024C4.34121 23.3357 3.54015 24.2811 3.24631 25.5704C3.22078 25.6825 3.08868 26.4159 3.08868 26.4161C3.05558 26.6423 3.02912 26.8692 3.00921 27.0968C3.00836 27.1063 2.9609 28.2908 2.96094 28.2976C2.96094 28.2976 2.97316 28.8526 2.98004 28.9851C3.01807 29.7213 3.17251 30.406 3.70985 30.9765C4.39458 31.7032 5.22631 32.0008 6.20173 32.0002C9.4676 31.9987 12.7336 31.9983 15.9995 31.9982C19.2655 31.9983 22.5314 31.9987 25.7973 32.0002C26.7726 32.0008 27.6044 31.7032 28.2891 30.9765C28.8264 30.406 28.9809 29.7214 29.0189 28.9851C29.0258 28.8526 29.0381 28.2976 29.0381 28.2976C29.0381 28.2908 28.9907 27.1063 28.9898 27.0968Z" fill="#3F85D7"/>
<path d="M8.31412 13.7804C8.41556 14.1469 8.48046 14.4917 8.47799 14.8191C8.47714 14.9281 8.4688 15.0353 8.45185 15.1407C8.36016 15.4505 7.70735 16.4947 7.60312 16.6701C8.75341 17.9103 10.2768 18.1979 11.7793 18.5145C12.2235 18.6081 12.6764 18.6643 13.1577 18.7265C13.3129 18.7547 13.4692 18.7838 13.6266 18.8137L12.8632 21.0451C12.8632 21.0451 12.8415 24.3011 15.9891 26.2824H16.0088C19.1565 24.301 19.1348 21.0451 19.1348 21.0451L18.3714 18.8138C18.5287 18.7838 18.685 18.7548 18.8403 18.7266C19.3216 18.6643 19.7744 18.6081 20.2187 18.5147C21.7212 18.198 23.2446 17.9103 24.3949 16.6703C24.2907 16.4947 23.6378 15.4505 23.5461 15.1407C23.5291 15.0354 23.5208 14.9282 23.52 14.8191C23.5175 14.4918 23.5824 14.1469 23.6838 13.7805C23.7802 13.4321 23.8913 13.0855 23.9971 12.7372C24.5057 11.6039 24.7889 10.3457 24.7889 9.02072C24.7889 4.09381 20.8729 0.0902703 16.0087 0.000687851V0C16.0054 4.04618e-05 16.0022 0.000242771 15.9989 0.000283233C15.9956 0.000242771 15.9924 8.09236e-05 15.989 0V0.000606927C11.125 0.0901894 7.20898 4.09372 7.20898 9.02064C7.20898 10.3456 7.49218 11.6038 8.00078 12.7371C8.10667 13.0854 8.21774 13.432 8.31412 13.7804Z" fill="#3F85D7"/>
</g>
<defs>
<clipPath id="clip0_1086_24558">
<rect width="32" height="32" fill="white"/>
</clipPath>
</defs>
</svg>
