<svg width="14" height="14" viewBox="0 0 14 14" fill="none" xmlns="http://www.w3.org/2000/svg">
<g clip-path="url(#clip0_2195_166)">
<path d="M2.33596 11.666V8.16602C2.33596 6.92834 2.82762 5.74135 3.70279 4.86618C4.57796 3.99101 5.76495 3.49935 7.00262 3.49935C8.2403 3.49935 9.42729 3.99101 10.3025 4.86618C11.1776 5.74135 11.6693 6.92834 11.6693 8.16602V11.666H12.2526V12.8327H1.75262V11.666H2.33596ZM3.50262 8.16602H4.66929C4.66929 7.54718 4.91512 6.95368 5.35271 6.5161C5.79029 6.07851 6.38379 5.83268 7.00262 5.83268V4.66602C6.07437 4.66602 5.18413 5.03476 4.52775 5.69114C3.87137 6.34752 3.50262 7.23776 3.50262 8.16602ZM6.41929 1.16602H7.58596V2.91602H6.41929V1.16602ZM11.5398 2.80402L12.3646 3.62885L11.128 4.8661L10.3025 4.04127L11.5398 2.80402ZM1.64062 3.62885L2.46546 2.80402L3.70271 4.04068L2.87846 4.86668L1.64062 3.62885Z" fill="white"/>
</g>
<defs>
<clipPath id="clip0_2195_166">
<rect width="14" height="14" fill="white"/>
</clipPath>
</defs>
</svg>
