<svg width="19" height="19" viewBox="0 0 19 19" fill="none" xmlns="http://www.w3.org/2000/svg">
<g clip-path="url(#clip0_2009_15452)">
<path d="M9.5026 17.4163C5.13023 17.4163 1.58594 13.872 1.58594 9.49967C1.58594 5.1273 5.13023 1.58301 9.5026 1.58301C13.875 1.58301 17.4193 5.1273 17.4193 9.49967C17.4193 13.872 13.875 17.4163 9.5026 17.4163ZM13.3184 13.5182C14.2741 12.6124 14.876 11.396 15.0163 10.0868C15.1566 8.77759 14.8263 7.46121 14.0843 6.37347C13.3424 5.28572 12.2374 4.49768 10.9673 4.15053C9.69721 3.80338 8.34501 3.91979 7.15294 4.47892L7.92481 5.8683C8.52721 5.60649 9.1853 5.49869 9.83974 5.55464C10.4942 5.61058 11.1244 5.8285 11.6737 6.18876C12.2229 6.54902 12.6738 7.04029 12.9858 7.61829C13.2978 8.19628 13.4611 8.84284 13.4609 9.49967H11.0859L13.3184 13.5182ZM11.8523 14.5204L11.0804 13.1311C10.478 13.3929 9.81991 13.5007 9.16546 13.4447C8.51102 13.3888 7.88078 13.1708 7.33155 12.8106C6.78233 12.4503 6.33139 11.9591 6.01938 11.3811C5.70736 10.8031 5.54409 10.1565 5.54427 9.49967H7.91927L5.68677 5.48117C4.73114 6.38695 4.12924 7.60339 3.9889 8.91257C3.84856 10.2218 4.17895 11.5381 4.92088 12.6259C5.66282 13.7136 6.76781 14.5017 8.0379 14.8488C9.308 15.196 10.6602 15.0796 11.8523 14.5204Z" fill="#E7C100"/>
</g>
<defs>
<clipPath id="clip0_2009_15452">
<rect width="19" height="19" fill="white"/>
</clipPath>
</defs>
</svg>
