<svg width="40" height="40" viewBox="0 0 40 40" fill="none" xmlns="http://www.w3.org/2000/svg">
<g opacity="0.3" clip-path="url(#clip0_1199_35459)">
<path d="M19.9987 36.6666C10.7937 36.6666 3.33203 29.2049 3.33203 19.9999C3.33203 10.7949 10.7937 3.33325 19.9987 3.33325C29.2037 3.33325 36.6654 10.7949 36.6654 19.9999C36.6654 29.2049 29.2037 36.6666 19.9987 36.6666ZM14.1654 23.3333V26.6666H18.332V29.9999H21.6654V26.6666H23.332C24.4371 26.6666 25.4969 26.2276 26.2783 25.4462C27.0597 24.6648 27.4987 23.605 27.4987 22.4999C27.4987 21.3948 27.0597 20.335 26.2783 19.5536C25.4969 18.7722 24.4371 18.3333 23.332 18.3333H16.6654C16.4444 18.3333 16.2324 18.2455 16.0761 18.0892C15.9198 17.9329 15.832 17.7209 15.832 17.4999C15.832 17.2789 15.9198 17.0669 16.0761 16.9107C16.2324 16.7544 16.4444 16.6666 16.6654 16.6666H25.832V13.3333H21.6654V9.99992H18.332V13.3333H16.6654C15.5603 13.3333 14.5005 13.7722 13.7191 14.5536C12.9377 15.335 12.4987 16.3948 12.4987 17.4999C12.4987 18.605 12.9377 19.6648 13.7191 20.4462C14.5005 21.2276 15.5603 21.6666 16.6654 21.6666H23.332C23.553 21.6666 23.765 21.7544 23.9213 21.9107C24.0776 22.0669 24.1654 22.2789 24.1654 22.4999C24.1654 22.7209 24.0776 22.9329 23.9213 23.0892C23.765 23.2455 23.553 23.3333 23.332 23.3333H14.1654Z" fill="#B3BBC2"/>
</g>
<defs>
<clipPath id="clip0_1199_35459">
<rect width="40" height="40" fill="white"/>
</clipPath>
</defs>
</svg>
