<svg width="14" height="14" viewBox="0 0 14 14" fill="none" xmlns="http://www.w3.org/2000/svg">
<g clip-path="url(#clip0_2140_3746)">
<path d="M9.37891 2.65289H11.7644C11.3329 2.22032 9.8522 0.741019 9.37891 0.269531V2.65289Z" fill="white"/>
<path d="M13.5897 6.09766H0.410152C0.183639 6.09766 0 6.2813 0 6.50781V10.9921C0 11.2187 0.183639 11.4023 0.410152 11.4023H13.5897C13.8162 11.4023 13.9999 11.2187 13.9999 10.9921V6.50781C13.9999 6.28127 13.8163 6.09766 13.5897 6.09766ZM4.59371 7.62889H3.91012V10.2812C3.91012 10.5077 3.72648 10.6914 3.49997 10.6914C3.27345 10.6914 3.08981 10.5077 3.08981 10.2812V7.62889H2.40623C2.17971 7.62889 1.99607 7.44525 1.99607 7.21874C1.99607 6.99223 2.17971 6.80859 2.40623 6.80859H4.59371C4.82022 6.80859 5.00386 6.99223 5.00386 7.21874C5.00386 7.44525 4.82022 7.62889 4.59371 7.62889ZM8.34725 10.6652C8.13531 10.7448 7.89874 10.6375 7.81911 10.4254L7.67253 10.0351H6.32843L6.18045 10.4263C6.11838 10.5904 5.96238 10.6914 5.79676 10.6914C5.51217 10.6914 5.31117 10.4058 5.41322 10.1361C6.60774 6.97806 6.55574 7.1153 6.55905 7.10726C6.63337 6.92564 6.80817 6.80856 7.00403 6.80856C7.21171 6.80856 7.38733 6.93984 7.45331 7.11828L8.58703 10.137C8.66665 10.349 8.55933 10.5855 8.34725 10.6652ZM11.594 10.6914C11.466 10.6914 11.3399 10.6317 11.2599 10.5196L10.4999 9.45563L9.73991 10.5196C9.65985 10.6316 9.53377 10.6914 9.4058 10.6914C9.07593 10.6914 8.87758 10.3155 9.0724 10.0428L9.99585 8.74997L9.0724 7.45715C8.94074 7.27282 8.98343 7.01667 9.16775 6.88498C9.35207 6.75333 9.60823 6.79601 9.73991 6.98036L10.4999 8.04432L11.2599 6.98036C11.3915 6.79604 11.6478 6.75335 11.832 6.88498C12.0164 7.01664 12.0591 7.2728 11.9274 7.45715L11.0039 8.74997L11.9274 10.0428C12.1222 10.3156 11.9238 10.6914 11.594 10.6914Z" fill="white"/>
<path d="M1.99609 13.1797C1.99609 13.632 2.36408 14 2.8164 14H11.1835C11.6358 14 12.0038 13.632 12.0038 13.1797V12.2227H1.99609V13.1797Z" fill="white"/>
<path d="M12.0038 3.47274H8.96868C8.74217 3.47274 8.55853 3.2891 8.55853 3.06259V0.000173525C7.93291 -0.00018194 6.43225 0.000118838 2.8164 0.000118838C2.36408 0.000118838 1.99609 0.395451 1.99609 0.847767V5.27741H12.0038V3.47274ZM6.12496 4.34773H4.15623C3.92972 4.34773 3.74608 4.16409 3.74608 3.93758C3.74608 3.71107 3.92972 3.52743 4.15623 3.52743H6.12496C6.35147 3.52743 6.53511 3.71107 6.53511 3.93758C6.53511 4.16409 6.35147 4.34773 6.12496 4.34773ZM6.12496 2.59775H4.15623C3.92972 2.59775 3.74608 2.41411 3.74608 2.1876C3.74608 1.96108 3.92972 1.77744 4.15623 1.77744H6.12496C6.35147 1.77744 6.53511 1.96108 6.53511 2.1876C6.53511 2.41411 6.35147 2.59775 6.12496 2.59775Z" fill="white"/>
<path d="M6.63672 9.2147H7.36245L7.00088 8.25195L6.63672 9.2147Z" fill="white"/>
</g>
<defs>
<clipPath id="clip0_2140_3746">
<rect width="14" height="14" fill="white"/>
</clipPath>
</defs>
</svg>
