<svg width="20" height="20" viewBox="0 0 20 20" fill="none" xmlns="http://www.w3.org/2000/svg">
<path d="M12.4484 11.448C11.9457 11.1734 11.3691 11.0176 10.7562 11.0176H9.29961C8.66953 11.0176 8.07812 11.1824 7.56602 11.4711C6.48906 12.0773 5.76172 13.2316 5.76172 14.5555V15.6469H14.2941V14.5555C14.2941 13.2145 13.548 12.048 12.4484 11.448Z" fill="#B58B67"/>
<path d="M16.4734 10.0479H15.2625C14.5555 10.0479 13.8965 10.2568 13.3438 10.617C13.6094 10.7912 13.859 10.9947 14.0891 11.2248C14.9785 12.1143 15.4684 13.2971 15.4684 14.5553V15.0686H20.0008V13.5752C20.0008 11.6303 18.4184 10.0479 16.4734 10.0479Z" fill="#B58B67"/>
<path d="M4.73828 10.0479H3.52734C1.58242 10.0479 0 11.6303 0 13.5752V15.0686H4.59141V14.5553C4.59141 13.2971 5.08164 12.1143 5.97109 11.2248C6.19258 11.0033 6.43203 10.8064 6.68672 10.6365C6.12812 10.2646 5.4582 10.0479 4.73828 10.0479Z" fill="#B58B67"/>
<path d="M15.8639 4.74316C15.8577 4.74316 15.8513 4.7432 15.845 4.74328C14.5342 4.7541 13.477 5.88711 13.4884 7.26887C13.4997 8.64406 14.5651 9.75527 15.8675 9.75527C15.8738 9.75527 15.8802 9.75523 15.8864 9.75516C16.5292 9.74984 17.129 9.47906 17.5754 8.99262C18.0114 8.51746 18.2485 7.89137 18.2431 7.22957C18.2317 5.85437 17.1663 4.74316 15.8639 4.74316Z" fill="#B58B67"/>
<path d="M4.12954 4.74316C4.12333 4.74316 4.11689 4.7432 4.11064 4.74328C2.79978 4.7541 1.74259 5.88711 1.754 7.26887C1.76533 8.64406 2.83076 9.75527 4.13314 9.75527C4.13939 9.75527 4.14579 9.75523 4.15204 9.75516C4.79478 9.74984 5.39462 9.47906 5.84103 8.99262C6.27708 8.51746 6.51419 7.89137 6.50872 7.22957C6.49736 5.85437 5.43197 4.74316 4.12954 4.74316Z" fill="#B58B67"/>
<path d="M10.0297 4.35352C8.51836 4.35352 7.28906 5.65234 7.28906 7.24922C7.28906 8.40312 7.93125 9.40156 8.8582 9.86641C9.21367 10.0449 9.61094 10.1445 10.0297 10.1445C10.4484 10.1445 10.8457 10.0449 11.2012 9.86641C12.1281 9.40156 12.7703 8.40312 12.7703 7.24922C12.7703 5.65234 11.541 4.35352 10.0297 4.35352Z" fill="#B58B67"/>
</svg>
