<svg width="24" height="20" viewBox="0 0 24 20" fill="none" xmlns="http://www.w3.org/2000/svg">
<path d="M8.14844 9.5C9.03153 9.5 9.8948 9.23812 10.6291 8.74749C11.3633 8.25685 11.9356 7.55949 12.2735 6.7436C12.6114 5.92771 12.6998 5.02994 12.5274 4.16382C12.3551 3.29771 11.9298 2.50215 11.3053 1.87776C10.6808 1.25337 9.88515 0.828199 9.01901 0.65601C8.15286 0.483821 7.2551 0.572351 6.43927 0.910405C5.62344 1.24846 4.92618 1.82085 4.43568 2.55519C3.94517 3.28954 3.68344 4.15284 3.68359 5.03594C3.68484 6.21964 4.15566 7.35449 4.99273 8.19141C5.82981 9.02834 6.96474 9.49897 8.14844 9.5Z" fill="#3F85D7"/>
<path d="M13.9883 13.1882C12.8569 12.0277 11.4053 11.2309 9.81879 10.8994C8.23232 10.5679 6.58306 10.7168 5.08166 11.3272C3.58026 11.9376 2.29489 12.9817 1.38973 14.3261C0.484578 15.6705 0.000732332 17.2542 0 18.8749C0 19.0821 0.08231 19.2808 0.228823 19.4274C0.375336 19.5739 0.57405 19.6562 0.78125 19.6562H15.5156C15.7228 19.6562 15.9215 19.5739 16.0681 19.4274C16.2146 19.2808 16.2969 19.0821 16.2969 18.8749C16.2999 18.0465 16.172 17.2228 15.918 16.4343C15.5397 15.2153 14.8785 14.103 13.9883 13.1882Z" fill="#3F85D7"/>
<path d="M17.5781 9.89062C19.4119 9.89062 20.8984 8.40407 20.8984 6.57031C20.8984 4.73655 19.4119 3.25 17.5781 3.25C15.7444 3.25 14.2578 4.73655 14.2578 6.57031C14.2578 8.40407 15.7444 9.89062 17.5781 9.89062Z" fill="#3F85D7"/>
<path d="M17.5789 10.8047C16.5317 10.8086 15.5047 11.0938 14.6055 11.6305C14.775 11.782 14.9461 11.9313 15.1062 12.0953C16.17 13.1887 16.9603 14.5181 17.4125 15.975C17.5674 16.4546 17.6816 16.9465 17.7539 17.4453H22.657C22.8642 17.4453 23.0629 17.363 23.2095 17.2165C23.356 17.07 23.4383 16.8713 23.4383 16.6641C23.4366 15.1106 22.8188 13.6212 21.7203 12.5227C20.6218 11.4242 19.1324 10.8063 17.5789 10.8047Z" fill="#3F85D7"/>
</svg>
