<svg width="21" height="20" viewBox="0 0 21 20" fill="none" xmlns="http://www.w3.org/2000/svg">
<path d="M18 8.8625V3.125C17.9985 2.62818 17.8005 2.15212 17.4492 1.80081C17.0979 1.4495 16.6218 1.25148 16.125 1.25H4.875C4.37818 1.25148 3.90212 1.4495 3.55081 1.80081C3.1995 2.15212 3.00148 2.62818 3 3.125V8.8625C2.63528 8.99145 2.31937 9.23004 2.09559 9.54558C1.8718 9.86112 1.75109 10.2382 1.75 10.625V18.125C1.75 18.2908 1.81585 18.4497 1.93306 18.5669C2.05027 18.6842 2.20924 18.75 2.375 18.75C2.54076 18.75 2.69973 18.6842 2.81694 18.5669C2.93415 18.4497 3 18.2908 3 18.125V16.875H18V18.125C18 18.2908 18.0658 18.4497 18.1831 18.5669C18.3003 18.6842 18.4592 18.75 18.625 18.75C18.7908 18.75 18.9497 18.6842 19.0669 18.5669C19.1842 18.4497 19.25 18.2908 19.25 18.125V10.625C19.2489 10.2382 19.1282 9.86112 18.9044 9.54558C18.6806 9.23004 18.3647 8.99145 18 8.8625ZM6.125 6.875C6.12648 6.37818 6.3245 5.90212 6.67581 5.55081C7.02712 5.1995 7.50318 5.00148 8 5H13C13.4968 5.00148 13.9729 5.1995 14.3242 5.55081C14.6755 5.90212 14.8735 6.37818 14.875 6.875V8.75H6.125V6.875ZM18 12.5H3V10.625C3 10.4592 3.06585 10.3003 3.18306 10.1831C3.30027 10.0658 3.45924 10 3.625 10H17.375C17.5408 10 17.6997 10.0658 17.8169 10.1831C17.9342 10.3003 18 10.4592 18 10.625V12.5Z" fill="#B58B67"/>
</svg>
