<svg width="14" height="14" viewBox="0 0 14 14" fill="none" xmlns="http://www.w3.org/2000/svg">
<g clip-path="url(#clip0_1996_47978)">
<path d="M3.11075 1.90776C3.47478 1.7779 3.86819 1.75403 4.24525 1.83893C4.62231 1.92383 4.96752 2.11402 5.24076 2.38738C5.51399 2.66073 5.70402 3.00603 5.78875 3.38313C5.87349 3.76023 5.84944 4.15363 5.71941 4.5176L12.0457 10.8438L10.8078 12.0811L4.48158 5.75543C4.11755 5.8853 3.72414 5.90917 3.34708 5.82426C2.97002 5.73936 2.62481 5.54918 2.35157 5.27582C2.07834 5.00246 1.88831 4.65716 1.80358 4.28007C1.71884 3.90297 1.74289 3.50957 1.87291 3.1456L3.17725 4.45051C3.25796 4.53409 3.35452 4.60075 3.46127 4.6466C3.56802 4.69246 3.68284 4.7166 3.79902 4.71761C3.9152 4.71862 4.03042 4.69648 4.13796 4.65248C4.24549 4.60849 4.34319 4.54352 4.42534 4.46136C4.5075 4.3792 4.57247 4.28151 4.61647 4.17397C4.66046 4.06644 4.6826 3.95122 4.68159 3.83504C4.68058 3.71886 4.65644 3.60404 4.61059 3.49729C4.56473 3.39053 4.49807 3.29398 4.4145 3.21326L3.11016 1.90718L3.11075 1.90776ZM9.15816 3.00676L11.0143 1.97543L11.8392 2.80026L10.8078 4.65643L9.7765 4.86293L8.53983 6.10018L7.71441 5.27535L8.95166 4.0381L9.15816 3.00676ZM5.03342 7.54393L6.27066 8.78176L3.38316 11.6693C3.22394 11.827 3.01025 11.9176 2.78617 11.9224C2.56209 11.9273 2.34471 11.8459 2.17885 11.6952C2.01299 11.5444 1.9113 11.3358 1.89475 11.1122C1.8782 10.8887 1.94806 10.6674 2.08991 10.4938L2.1465 10.4314L5.034 7.54393H5.03342Z" fill="white"/>
</g>
<defs>
<clipPath id="clip0_1996_47978">
<rect width="14" height="14" fill="white"/>
</clipPath>
</defs>
</svg>
