<svg width="14" height="14" viewBox="0 0 14 14" fill="none" xmlns="http://www.w3.org/2000/svg">
<g clip-path="url(#clip0_2192_710)">
<path d="M3.18415 2.58527C4.24264 1.66807 5.5968 1.16407 6.9974 1.16602C10.2191 1.16602 12.8307 3.7776 12.8307 6.99935C12.8307 8.24535 12.4399 9.40035 11.7749 10.3477L9.91406 6.99935H11.6641C11.6641 6.08447 11.3953 5.18974 10.8909 4.42642C10.3866 3.6631 9.66902 3.06486 8.82742 2.70609C7.98581 2.34732 7.05731 2.24385 6.15737 2.40853C5.25743 2.57322 4.42574 2.9988 3.76573 3.63235L3.18415 2.58527ZM10.8106 11.4134C9.75215 12.3306 8.39799 12.8346 6.9974 12.8327C3.77565 12.8327 1.16406 10.2211 1.16406 6.99935C1.16406 5.75335 1.5549 4.59835 2.2199 3.65102L4.08073 6.99935H2.33073C2.33065 7.91424 2.5995 8.80897 3.10384 9.57229C3.60818 10.3356 4.32577 10.9338 5.16737 11.2926C6.00898 11.6514 6.93748 11.7549 7.83742 11.5902C8.73736 11.4255 9.56905 10.9999 10.2291 10.3664L10.8106 11.4134Z" fill="white"/>
</g>
<defs>
<clipPath id="clip0_2192_710">
<rect width="14" height="14" fill="white"/>
</clipPath>
</defs>
</svg>
