<svg width="20" height="20" viewBox="0 0 20 20" fill="none" xmlns="http://www.w3.org/2000/svg">
<path d="M17.661 12.98C17.361 12.8075 16.9798 12.9106 16.8073 13.2088L15.1523 12.2531C15.376 11.7431 15.526 11.1938 15.5892 10.6181C15.6017 10.6188 15.6123 10.625 15.6248 10.625H16.8748C17.2198 10.625 17.4998 10.3456 17.4998 10C17.4998 9.65438 17.2198 9.375 16.8748 9.375H15.6248C15.6123 9.375 15.6017 9.38125 15.5892 9.38188C15.526 8.80562 15.3754 8.25688 15.1523 7.74688L16.8073 6.79125C16.9235 6.99125 17.1329 7.10375 17.3492 7.10375C17.4548 7.10375 17.5623 7.07688 17.661 7.02C17.9598 6.8475 18.0623 6.465 17.8898 6.16625L17.2648 5.08375C17.0923 4.785 16.7104 4.68125 16.411 4.855C16.1123 5.0275 16.0098 5.41 16.1823 5.70875L14.5229 6.66687C14.1942 6.22125 13.8023 5.8275 13.3585 5.49625L14.2729 4.09188C14.461 3.8025 14.3792 3.415 14.0904 3.22688C13.8017 3.03875 13.4135 3.12 13.226 3.40937L12.2804 4.86187C11.7648 4.63187 11.2085 4.47625 10.6248 4.41188V2.5C10.9698 2.5 11.2498 2.22062 11.2498 1.875C11.2498 1.52938 10.9698 1.25 10.6248 1.25H9.37478C9.02978 1.25 8.74978 1.52938 8.74978 1.875C8.74978 2.22062 9.02978 2.5 9.37478 2.5V4.41188C8.79103 4.47625 8.23478 4.63187 7.71915 4.86125L6.77353 3.40875C6.5854 3.11937 6.1979 3.03813 5.90915 3.22625C5.61978 3.41438 5.5379 3.80188 5.72603 4.09125L6.6404 5.49563C6.19665 5.82688 5.80478 6.22125 5.47603 6.66625L3.81728 5.70875C3.98978 5.40937 3.88728 5.0275 3.58853 4.855C3.28853 4.68125 2.90665 4.785 2.73415 5.08375L2.10915 6.16625C1.93665 6.46563 2.03915 6.8475 2.3379 7.02C2.43665 7.07688 2.54415 7.10375 2.64978 7.10375C2.86603 7.10375 3.0754 6.99125 3.19165 6.79125L4.84665 7.74688C4.62353 8.25688 4.47228 8.80625 4.40978 9.38188C4.3979 9.38125 4.38728 9.375 4.37478 9.375H3.12478C2.77978 9.375 2.49978 9.65438 2.49978 10C2.49978 10.3456 2.77978 10.625 3.12478 10.625H4.37478C4.38728 10.625 4.3979 10.6188 4.4104 10.6181C4.47353 11.1944 4.62415 11.7431 4.84728 12.2531L3.19228 13.2088C3.01915 12.91 2.63728 12.8069 2.33853 12.98C2.03978 13.1525 1.93728 13.535 2.10978 13.8338L2.73478 14.9162C2.85103 15.1162 3.0604 15.2287 3.27665 15.2287C3.38228 15.2287 3.48978 15.2019 3.58853 15.145C3.88728 14.9725 3.98978 14.59 3.81728 14.2912L5.47665 13.3331C5.8054 13.7788 6.19728 14.1725 6.64103 14.5037L5.72665 15.9081C5.53853 16.1975 5.6204 16.585 5.90915 16.7731C6.01415 16.8419 6.13228 16.875 6.24915 16.875C6.45353 16.875 6.65353 16.775 6.77353 16.5912L7.71915 15.1388C8.2354 15.3681 8.79103 15.5238 9.37478 15.5881V17.5C9.02978 17.5 8.74978 17.7794 8.74978 18.125C8.74978 18.4706 9.02978 18.75 9.37478 18.75H10.6248C10.9698 18.75 11.2498 18.4706 11.2498 18.125C11.2498 17.7794 10.9698 17.5 10.6248 17.5V15.5881C11.2085 15.5238 11.7648 15.3681 12.2804 15.1388L13.226 16.5912C13.346 16.775 13.546 16.875 13.7504 16.875C13.8673 16.875 13.9854 16.8419 14.0904 16.7737C14.3798 16.5856 14.4617 16.1981 14.2729 15.9088L13.3585 14.5044C13.8023 14.1731 14.1942 13.7787 14.5229 13.3337L16.1823 14.2919C16.0098 14.5913 16.1123 14.9731 16.411 15.1456C16.5098 15.2025 16.6173 15.2294 16.7229 15.2294C16.9392 15.2294 17.1492 15.1169 17.2648 14.9169L17.8898 13.8344C18.0623 13.5344 17.9598 13.1525 17.661 12.98ZM7.49978 12.5C6.80915 12.5 6.24978 11.9406 6.24978 11.25C6.24978 10.5594 6.80915 10 7.49978 10C8.1904 10 8.74978 10.5594 8.74978 11.25C8.74978 11.9406 8.1904 12.5 7.49978 12.5ZM10.3123 8.125C9.79478 8.125 9.37478 7.705 9.37478 7.1875C9.37478 6.67 9.79478 6.25 10.3123 6.25C10.8298 6.25 11.2498 6.67 11.2498 7.1875C11.2498 7.705 10.8298 8.125 10.3123 8.125ZM11.2498 12.1875C11.2498 11.67 11.6698 11.25 12.1873 11.25C12.7048 11.25 13.1248 11.67 13.1248 12.1875C13.1248 12.705 12.7048 13.125 12.1873 13.125C11.6698 13.125 11.2498 12.705 11.2498 12.1875Z" fill="#3F85D7"/>
</svg>
