<svg width="35" height="11" viewBox="0 0 35 11" fill="none" xmlns="http://www.w3.org/2000/svg">
<g clip-path="url(#clip0_1417_37826)">
<path d="M15.1634 10.8417H12.3281L14.1015 0.193359H16.9366L15.1634 10.8417Z" fill="#00579F"/>
<path d="M25.4425 0.45334C24.8832 0.237887 23.9962 0 22.8995 0C20.0996 0 18.1279 1.4499 18.1158 3.52283C18.0926 5.05223 19.5275 5.9017 20.6007 6.41165C21.6976 6.93274 22.0705 7.27286 22.0705 7.73734C22.0593 8.4507 21.1841 8.77953 20.3678 8.77953C19.2358 8.77953 18.6293 8.60999 17.7076 8.21312L17.3343 8.04298L16.9375 10.4333C17.6025 10.7275 18.8276 10.9886 20.0996 11C23.0745 11 25.0113 9.57253 25.0342 7.3635C25.0456 6.15133 24.2879 5.22252 22.6543 4.46354C21.6627 3.97632 21.0554 3.6478 21.0554 3.14929C21.067 2.6961 21.5691 2.23192 22.6885 2.23192C23.6102 2.20918 24.2874 2.42434 24.8004 2.63964L25.0569 2.75271L25.4425 0.45334Z" fill="#00579F"/>
<path d="M29.2147 7.06934C29.4482 6.45761 30.3467 4.09003 30.3467 4.09003C30.3349 4.11277 30.5797 3.46701 30.7197 3.07058L30.9178 3.9881C30.9178 3.9881 31.4548 6.53696 31.5713 7.06934C31.1282 7.06934 29.7747 7.06934 29.2147 7.06934ZM32.7145 0.193359H30.5214C29.8451 0.193359 29.3313 0.385777 29.0395 1.07685L24.8281 10.8415H27.8031C27.8031 10.8415 28.2928 9.52725 28.3981 9.2442C28.7245 9.2442 31.6185 9.2442 32.0383 9.2442C32.1197 9.61804 32.3766 10.8415 32.3766 10.8415H35.0018L32.7145 0.193359Z" fill="#00579F"/>
<path d="M9.96091 0.193359L7.18427 7.45448L6.88085 5.98184C6.36751 4.2826 4.75756 2.43642 2.96094 1.51845L5.50424 10.8304H8.50243L12.9589 0.193359H9.96091Z" fill="#00579F"/>
<path d="M4.6083 0.193359H0.0466673L0 0.408511C3.55836 1.29216 5.91499 3.42214 6.88322 5.98229L5.89158 1.08845C5.72832 0.408361 5.22661 0.215793 4.6083 0.193359Z" fill="#FAA61A"/>
</g>
<defs>
<clipPath id="clip0_1417_37826">
<rect width="35" height="11" fill="white"/>
</clipPath>
</defs>
</svg>
