<svg width="56" height="25" viewBox="0 0 56 25" fill="none" xmlns="http://www.w3.org/2000/svg">
<g clip-path="url(#clip0_1034_19398)">
<path d="M25.334 18.8129H22.0938L24.1205 6.22852H27.3606L25.334 18.8129Z" fill="#3268A8"/>
<path d="M37.0793 6.53577C36.4402 6.28114 35.4265 6 34.1731 6C30.9732 6 28.7198 7.71352 28.706 10.1633C28.6794 11.9708 30.3193 12.9747 31.5459 13.5774C32.7995 14.1932 33.2256 14.5952 33.2256 15.1441C33.2129 15.9872 32.2126 16.3758 31.2797 16.3758C29.986 16.3758 29.2929 16.1754 28.2395 15.7064L27.8128 15.5053L27.3594 18.3303C28.1193 18.6779 29.5195 18.9865 30.9732 19C34.3731 19 36.5866 17.313 36.6128 14.7023C36.6257 13.2698 35.7598 12.1721 33.8929 11.2751C32.7596 10.6993 32.0656 10.311 32.0656 9.72189C32.0788 9.1863 32.6526 8.63772 33.9319 8.63772C34.9853 8.61085 35.7593 8.86513 36.3456 9.11957L36.6387 9.2532L37.0793 6.53577Z" fill="#3268A8"/>
<path d="M41.3882 14.3547C41.6551 13.6317 42.6819 10.8337 42.6819 10.8337C42.6684 10.8605 42.9482 10.0974 43.1082 9.62887L43.3347 10.7132C43.3347 10.7132 43.9483 13.7255 44.0815 14.3547C43.5751 14.3547 42.0283 14.3547 41.3882 14.3547ZM45.388 6.22852H42.8816C42.1087 6.22852 41.5215 6.45592 41.188 7.27264L36.375 18.8127H39.7749C39.7749 18.8127 40.3347 17.2595 40.455 16.925C40.828 16.925 44.1354 16.925 44.6152 16.925C44.7083 17.3668 45.0019 18.8127 45.0019 18.8127H48.0021L45.388 6.22852Z" fill="#3268A8"/>
<path d="M19.3867 6.22852L16.2134 14.8098L15.8666 13.0694C15.2799 11.0613 13.44 8.87941 11.3867 7.79453L14.2933 18.7995H17.7199L22.813 6.22852H19.3867Z" fill="#3268A8"/>
<path d="M13.2666 6.22852H8.05333L8 6.48279C12.0667 7.52709 14.76 10.0444 15.8665 13.07L14.7332 7.28635C14.5467 6.48261 13.9733 6.25503 13.2666 6.22852Z" fill="#FAA61A"/>
</g>
<defs>
<clipPath id="clip0_1034_19398">
<rect width="40" height="13" fill="white" transform="translate(8 6)"/>
</clipPath>
</defs>
</svg>
