<svg width="60" height="60" viewBox="0 0 60 60" fill="none" xmlns="http://www.w3.org/2000/svg">
<g clip-path="url(#clip0_1131_30616)">
<circle cx="30" cy="30" r="30" fill="#3F85D7"/>
<path d="M34.4393 31.2451L31.9267 33.7662C30.9078 34.7886 29.1151 34.8107 28.0742 33.7662L25.5615 31.2451L16.5371 40.2988C16.873 40.4541 17.2434 40.5468 17.6371 40.5468H42.3637C42.7575 40.5468 43.1277 40.4542 43.4635 40.2988L34.4393 31.2451Z" fill="white"/>
<path d="M42.3636 19.4531H17.637C17.2433 19.4531 16.8729 19.5458 16.5371 19.7012L26.1803 29.3763C26.1809 29.377 26.1817 29.3771 26.1823 29.3777C26.183 29.3784 26.1831 29.3793 26.1831 29.3793L29.3186 32.5252C29.6517 32.8582 30.3491 32.8582 30.6821 32.5252L33.817 29.3798C33.817 29.3798 33.8178 29.3784 33.8184 29.3777C33.8184 29.3777 33.8198 29.377 33.8205 29.3763L43.4634 19.7011C43.1276 19.5457 42.7573 19.4531 42.3636 19.4531Z" fill="white"/>
<path d="M15.2804 20.9304C15.1066 21.2819 15 21.672 15 22.0899V37.9102C15 38.3281 15.1065 38.7182 15.2804 39.0696L24.3204 30.0003L15.2804 20.9304Z" fill="white"/>
<path d="M44.7196 20.9302L35.6797 30.0002L44.7196 39.0696C44.8934 38.7182 45 38.3281 45 37.9101V22.0897C45 21.6717 44.8934 21.2816 44.7196 20.9302Z" fill="white"/>
</g>
<defs>
<clipPath id="clip0_1131_30616">
<rect width="60" height="60" fill="white"/>
</clipPath>
</defs>
</svg>
