<svg width="60" height="60" viewBox="0 0 60 60" fill="none" xmlns="http://www.w3.org/2000/svg">
<g clip-path="url(#clip0_1131_30628)">
<path d="M30 0C13.1025 0 0 12.3825 0 29.1C0 37.845 3.585 45.405 9.42 50.625C9.9075 51.06 10.2075 51.675 10.2225 52.335L10.3875 57.675C10.3995 58.0679 10.5079 58.4519 10.703 58.7931C10.8981 59.1343 11.1741 59.4224 11.5067 59.632C11.8392 59.8416 12.2182 59.9663 12.6102 59.9952C13.0022 60.024 13.3953 59.9562 13.755 59.7975L19.71 57.1725C20.2125 56.9475 20.7825 56.91 21.315 57.0525C24.0525 57.8025 26.9625 58.2075 30 58.2075C46.8975 58.2075 60 45.825 60 29.1075C60 12.39 46.8975 0 30 0Z" fill="url(#paint0_radial_1131_30628)"/>
<path d="M11.9844 37.6125L20.7969 23.6325C21.1284 23.1062 21.5654 22.6543 22.0804 22.3053C22.5953 21.9564 23.177 21.7181 23.7888 21.6053C24.4005 21.4925 25.029 21.5078 25.6345 21.6502C26.24 21.7926 26.8095 22.0589 27.3069 22.4325L34.3194 27.69C34.6324 27.9244 35.0133 28.0504 35.4044 28.0491C35.7954 28.0477 36.1754 27.919 36.4869 27.6825L45.9519 20.4975C47.2119 19.5375 48.8619 21.0525 48.0219 22.395L39.2019 36.3675C38.8703 36.8938 38.4333 37.3457 37.9183 37.6946C37.4034 38.0436 36.8217 38.2819 36.2099 38.3947C35.5982 38.5074 34.9697 38.4922 34.3642 38.3498C33.7587 38.2074 33.1892 37.941 32.6919 37.5675L25.6794 32.31C25.3663 32.0756 24.9854 31.9496 24.5944 31.9509C24.2033 31.9523 23.8233 32.0809 23.5119 32.3175L14.0469 39.5025C12.7869 40.4625 11.1369 38.955 11.9844 37.6125Z" fill="white"/>
</g>
<defs>
<radialGradient id="paint0_radial_1131_30628" cx="0" cy="0" r="1" gradientUnits="userSpaceOnUse" gradientTransform="translate(10.05 60) scale(66 66)">
<stop stop-color="#0099FF"/>
<stop offset="0.6" stop-color="#A033FF"/>
<stop offset="0.9" stop-color="#FF5280"/>
<stop offset="1" stop-color="#FF7061"/>
</radialGradient>
<clipPath id="clip0_1131_30628">
<rect width="60" height="60" fill="white"/>
</clipPath>
</defs>
</svg>
