<svg width="60" height="60" viewBox="0 0 60 60" fill="none" xmlns="http://www.w3.org/2000/svg">
<path d="M30 2.5C24.561 2.5 19.2442 4.11285 14.7218 7.13459C10.1995 10.1563 6.67474 14.4512 4.59333 19.4762C2.51192 24.5012 1.96732 30.0305 3.02842 35.365C4.08951 40.6995 6.70863 45.5995 10.5546 49.4454C14.4005 53.2914 19.3006 55.9105 24.635 56.9716C29.9695 58.0327 35.4988 57.4881 40.5238 55.4067C45.5488 53.3253 49.8437 49.8005 52.8654 45.2782C55.8872 40.7558 57.5 35.439 57.5 30C57.502 26.3881 56.792 22.8112 55.4107 19.4739C54.0294 16.1365 52.0039 13.1042 49.4498 10.5502C46.8958 7.99617 43.8635 5.97061 40.5261 4.5893C37.1888 3.20799 33.6119 2.49803 30 2.5ZM33.525 40.6L31.775 42.375C29.8986 44.2514 27.3537 45.3056 24.7 45.3056C22.0464 45.3056 19.5014 44.2514 17.625 42.375C15.7486 40.4986 14.6945 37.9536 14.6945 35.3C14.6945 32.6464 15.7486 30.1014 17.625 28.225L19.4 26.475C19.8783 26.0654 20.4935 25.8514 21.1226 25.8757C21.7518 25.9 22.3487 26.1609 22.7939 26.6061C23.2392 27.0513 23.5 27.6482 23.5243 28.2774C23.5486 28.9066 23.3346 29.5218 22.925 30L21.15 31.775C20.2118 32.7132 19.6847 33.9857 19.6847 35.3125C19.6847 36.6393 20.2118 37.9118 21.15 38.85C22.0882 39.7882 23.3607 40.3153 24.6875 40.3153C26.0143 40.3153 27.2868 39.7882 28.225 38.85L30 37.075C30.4783 36.6654 31.0935 36.4514 31.7226 36.4757C32.3518 36.5 32.9487 36.7609 33.3939 37.2061C33.8392 37.6513 34.1 38.2482 34.1243 38.8774C34.1486 39.5066 33.9346 40.1217 33.525 40.6ZM34.425 29.125L29.125 34.425C28.6543 34.8958 28.0158 35.1602 27.35 35.1602C26.6843 35.1602 26.0458 34.8958 25.575 34.425C25.1043 33.9542 24.8398 33.3158 24.8398 32.65C24.8398 31.9843 25.1043 31.3458 25.575 30.875L30.875 25.575C31.3458 25.1042 31.9843 24.8398 32.65 24.8398C33.3158 24.8398 33.9543 25.1042 34.425 25.575C34.8958 26.0458 35.1602 26.6842 35.1602 27.35C35.1602 28.0158 34.8958 28.6542 34.425 29.125ZM42.375 31.775L40.6 33.525C40.1218 33.9346 39.5066 34.1486 38.8774 34.1243C38.2482 34.1 37.6513 33.8391 37.2061 33.3939C36.7609 32.9487 36.5 32.3518 36.4757 31.7226C36.4514 31.0934 36.6654 30.4783 37.075 30L38.85 28.225C39.7882 27.2868 40.3153 26.0143 40.3153 24.6875C40.3153 23.3607 39.7882 22.0882 38.85 21.15C37.9118 20.2118 36.6393 19.6847 35.3125 19.6847C33.9857 19.6847 32.7132 20.2118 31.775 21.15L30 22.925C29.5218 23.3346 28.9066 23.5486 28.2774 23.5243C27.6482 23.5 27.0513 23.2391 26.6061 22.7939C26.1609 22.3487 25.9 21.7518 25.8757 21.1226C25.8514 20.4934 26.0654 19.8783 26.475 19.4L28.225 17.625C30.1014 15.7486 32.6464 14.6944 35.3 14.6944C37.9537 14.6944 40.4986 15.7486 42.375 17.625C44.2514 19.5014 45.3056 22.0464 45.3056 24.7C45.3056 27.3536 44.2514 29.8986 42.375 31.775Z" fill="#3F85D7"/>
</svg>
